<svg width="1000" height="1000" viewBox="0 0 1000 1000" fill="none" xmlns="http://www.w3.org/2000/svg">
<path d="M654.216 864.592H156.062L25 135.408H523.154L654.216 864.592Z" fill="#028EC4"/>
<path d="M222.373 267.312H229.729C236.343 267.312 242.956 267.312 249.569 267.312H461.97C469.462 267.312 476.955 267.312 484.447 267.312C487.986 267.312 491.532 267.373 495.071 267.312C495.226 267.31 495.381 267.312 495.535 267.312C499.271 267.312 499.277 261.507 495.535 261.507H233.462C229.922 261.507 226.377 261.446 222.838 261.507C222.683 261.51 222.528 261.507 222.373 261.507C218.638 261.507 218.632 267.312 222.373 267.312Z" fill="white"/>
<path d="M228.178 288.598H359.843C373.112 288.598 386.381 288.598 399.65 288.598H467.775C475.268 288.598 482.76 288.598 490.252 288.598C493.791 288.598 497.337 288.659 500.876 288.598C501.031 288.595 501.186 288.598 501.341 288.598C505.076 288.598 505.082 282.793 501.341 282.793H261.744C254.251 282.793 246.759 282.793 239.267 282.793C235.728 282.793 232.182 282.732 228.643 282.793C228.488 282.795 228.333 282.793 228.178 282.793C224.443 282.793 224.437 288.598 228.178 288.598Z" fill="white"/>
<path d="M231.081 308.593H490.37C493.872 308.593 497.379 308.653 500.881 308.593C501.034 308.59 501.187 308.593 501.34 308.593C505.076 308.593 505.082 302.788 501.34 302.788H264.289C256.877 302.788 249.464 302.788 242.051 302.788C238.55 302.788 235.042 302.728 231.54 302.788C231.387 302.791 231.234 302.788 231.081 302.788C227.346 302.788 227.339 308.593 231.081 308.593Z" fill="white"/>
<path d="M238.499 329.878H496.24C499.721 329.878 503.208 329.938 506.689 329.878C506.841 329.876 506.993 329.878 507.146 329.878C510.881 329.878 510.887 324.073 507.146 324.073H249.404C245.923 324.073 242.436 324.014 238.955 324.073C238.803 324.076 238.651 324.073 238.499 324.073C234.763 324.073 234.757 329.878 238.499 329.878Z" fill="white"/>
<path d="M246.239 420.18H377.904C391.173 420.18 404.441 420.18 417.71 420.18H508.312C511.852 420.18 515.397 420.241 518.936 420.18C519.091 420.177 519.246 420.18 519.401 420.18C523.136 420.18 523.142 414.375 519.401 414.375H257.327C253.788 414.375 250.242 414.314 246.703 414.375C246.548 414.377 246.393 414.375 246.239 414.375C242.503 414.375 242.497 420.18 246.239 420.18Z" fill="white"/>
<path d="M252.044 441.465H259.4C266.013 441.465 272.626 441.465 279.24 441.465H383.709C396.978 441.465 410.246 441.465 423.515 441.465H514.117C517.657 441.465 521.202 441.526 524.741 441.465C524.896 441.463 525.051 441.465 525.206 441.465C528.941 441.465 528.947 435.66 525.206 435.66H263.132C259.593 435.66 256.047 435.599 252.508 435.66C252.354 435.663 252.199 435.66 252.044 435.66C248.308 435.66 248.302 441.465 252.044 441.465Z" fill="white"/>
<path d="M258.171 461.461H514.366C517.826 461.461 521.292 461.52 524.752 461.461C524.903 461.458 525.054 461.461 525.206 461.461C528.941 461.461 528.947 455.655 525.206 455.655H269.011C265.551 455.655 262.085 455.596 258.625 455.655C258.474 455.658 258.323 455.655 258.171 455.655C254.436 455.655 254.43 461.461 258.171 461.461Z" fill="white"/>
<path d="M263.976 482.746H520.171C523.631 482.746 527.097 482.805 530.557 482.746C530.708 482.743 530.86 482.746 531.011 482.746C534.746 482.746 534.752 476.941 531.011 476.941H296.789C289.464 476.941 282.14 476.941 274.816 476.941C271.356 476.941 267.89 476.882 264.431 476.941C264.279 476.943 264.128 476.941 263.976 476.941C260.241 476.941 260.235 482.746 263.976 482.746Z" fill="white"/>
<path d="M272.039 573.048H511.636C519.128 573.048 526.621 573.048 534.113 573.048C537.652 573.048 541.198 573.108 544.737 573.048C544.891 573.045 545.046 573.048 545.201 573.048C548.937 573.048 548.943 567.242 545.201 567.242H283.128C279.588 567.242 276.043 567.181 272.504 567.242C272.349 567.245 272.194 567.242 272.039 567.242C268.304 567.242 268.298 573.048 272.039 573.048Z" fill="white"/>
<path d="M277.844 594.333H305.04C314.845 594.333 324.649 594.333 334.454 594.333H539.918C543.457 594.333 547.003 594.394 550.542 594.333C550.696 594.33 550.851 594.333 551.006 594.333C554.742 594.333 554.748 588.528 551.006 588.528H288.933C285.393 588.528 281.848 588.467 278.309 588.528C278.154 588.53 277.999 588.528 277.844 588.528C274.109 588.528 274.103 594.333 277.844 594.333Z" fill="white"/>
<path d="M283.972 614.328H518.194C525.518 614.328 532.842 614.328 540.166 614.328C543.626 614.328 547.092 614.387 550.552 614.328C550.703 614.326 550.855 614.328 551.006 614.328C554.741 614.328 554.748 608.523 551.006 608.523H294.811C291.351 608.523 287.885 608.464 284.426 608.523C284.275 608.526 284.123 608.523 283.972 608.523C280.236 608.523 280.23 614.328 283.972 614.328Z" fill="white"/>
<path d="M289.777 635.614H545.972C549.432 635.614 552.898 635.673 556.357 635.614C556.508 635.611 556.66 635.614 556.811 635.614C560.547 635.614 560.553 629.809 556.811 629.809C554.414 629.809 552.017 629.809 549.62 629.809H389.186C377.174 629.809 365.163 629.809 353.151 629.809H300.617C297.157 629.809 293.691 629.749 290.231 629.809C290.08 629.811 289.928 629.809 289.777 629.809C286.042 629.809 286.035 635.614 289.777 635.614Z" fill="white"/>
<path d="M300.42 717.53H327.615C337.42 717.53 347.225 717.53 357.03 717.53H471.891C484.179 717.53 496.466 717.53 508.754 717.53H562.493C566.033 717.53 569.578 717.591 573.117 717.53C573.272 717.527 573.427 717.53 573.582 717.53C577.317 717.53 577.323 711.725 573.582 711.725H311.508C307.969 711.725 304.423 711.664 300.884 711.725C300.729 711.728 300.574 711.725 300.42 711.725C296.684 711.725 296.678 717.53 300.42 717.53Z" fill="white"/>
<path d="M306.225 738.815H568.298C571.838 738.815 575.383 738.876 578.922 738.815C579.077 738.812 579.232 738.815 579.387 738.815C583.122 738.815 583.128 733.01 579.387 733.01H552.191C542.386 733.01 532.582 733.01 522.777 733.01H339.79C332.298 733.01 324.806 733.01 317.313 733.01C313.774 733.01 310.228 732.949 306.689 733.01C306.535 733.013 306.38 733.01 306.225 733.01C302.49 733.01 302.483 738.815 306.225 738.815Z" fill="white"/>
<path d="M312.352 758.81C314.749 758.81 317.146 758.81 319.543 758.81H338.938C348.523 758.81 358.108 758.81 367.692 758.81H568.547C572.007 758.81 575.473 758.87 578.933 758.81C579.084 758.808 579.235 758.81 579.387 758.81C583.122 758.81 583.128 753.005 579.387 753.005H323.192C319.732 753.005 316.266 752.946 312.806 753.005C312.655 753.008 312.504 753.005 312.352 753.005C308.617 753.005 308.611 758.81 312.352 758.81Z" fill="white"/>
<path d="M318.157 780.096H574.352C577.812 780.096 581.278 780.155 584.738 780.096C584.889 780.093 585.04 780.096 585.192 780.096C588.927 780.096 588.933 774.291 585.192 774.291C582.795 774.291 580.398 774.291 578.001 774.291C571.536 774.291 565.071 774.291 558.606 774.291H456.48C443.509 774.291 430.538 774.291 417.567 774.291H381.531C371.344 774.291 361.157 774.291 350.97 774.291H328.997C325.537 774.291 322.071 774.232 318.611 774.291C318.46 774.293 318.309 774.291 318.157 774.291C314.422 774.291 314.416 780.096 318.157 780.096Z" fill="white"/>
<path d="M309.447 348.476L246.761 315.296C241.426 312.472 241.342 304.86 246.612 301.919L308.545 267.353C314.471 264.046 321.13 262.274 327.916 262.199L672.268 257.637L665.818 347.939L328.927 353.199C322.141 353.274 315.445 351.651 309.447 348.476Z" fill="#F953B2"/>
<path d="M655.849 348.254L654.838 257.253L695.002 256.807C720.131 256.528 740.728 276.672 741.008 301.802C741.287 326.931 721.142 347.528 696.013 347.808L655.849 348.254Z" fill="#6966ED"/>
<path d="M326.279 353.141C333.855 351.183 339.413 344.264 339.322 336.089C339.257 330.237 336.31 325.095 331.847 321.987C336.239 318.78 339.072 313.574 339.007 307.722C338.942 301.869 335.994 296.727 331.532 293.619C335.924 290.413 338.757 285.207 338.692 279.354C338.597 270.839 332.405 263.825 324.313 262.401C318.786 262.955 313.418 264.634 308.545 267.353L246.612 301.919C241.341 304.86 241.426 312.472 246.761 315.296L309.447 348.476C314.663 351.237 320.407 352.823 326.279 353.141Z" fill="white"/>
<path d="M263.556 292.462L246.612 301.919C241.342 304.861 241.426 312.472 246.761 315.296L263.911 324.374L263.556 292.462Z" fill="black"/>
<path d="M192.058 332.458H129.492L119.172 269.892H181.738L192.058 332.458Z" fill="white"/>
<path d="M219.148 483.391H156.582L146.262 420.825H208.828L219.148 483.391Z" fill="white"/>
<path d="M246.239 634.323H183.673L173.352 571.757H235.918L246.239 634.323Z" fill="white"/>
<path d="M273.329 785.256H210.763L200.443 722.69H263.009L273.329 785.256Z" fill="white"/>
<path d="M140.662 294.52C146.506 299.233 152.349 303.946 158.193 308.658C159.015 309.321 159.836 309.983 160.657 310.646C162.127 311.831 164.143 311.771 165.216 310.058C169.004 304.012 172.792 297.966 176.579 291.921C182.589 282.327 188.6 272.734 194.61 263.141C195.992 260.935 197.374 258.729 198.757 256.522C200.746 253.347 195.725 250.43 193.744 253.592C189.956 259.638 186.169 265.684 182.381 271.73C176.371 281.323 170.361 290.916 164.35 300.509C162.968 302.715 161.586 304.922 160.204 307.128C161.723 306.932 163.243 306.737 164.762 306.541C158.919 301.828 153.075 297.116 147.231 292.403C146.41 291.74 145.588 291.078 144.767 290.416C143.548 289.432 141.854 289.224 140.662 290.416C139.645 291.433 139.435 293.531 140.662 294.52Z" fill="#6966ED"/>
<path d="M812.661 255.584C812.916 256.719 812.848 257.613 811.913 258.373C810.961 259.147 809.686 259.484 808.511 259.724C805.656 260.308 802.701 260.135 799.849 260.781C797.001 261.426 794.208 263.206 793.986 266.387C793.772 269.46 796.928 271.511 799.276 272.82C802.163 274.429 805.361 275.315 808.653 275.514C811.14 275.664 811.132 271.793 808.653 271.644C805.407 271.448 802.294 270.331 799.627 268.479C798.894 267.97 797.49 267.194 797.962 266.136C798.514 264.9 800.36 264.597 801.522 264.381C804.859 263.761 808.348 264.091 811.575 262.878C813.202 262.267 814.686 261.357 815.7 259.915C816.827 258.314 816.805 256.392 816.393 254.555C815.847 252.126 812.115 253.154 812.661 255.584Z" fill="black"/>
<path d="M851.136 321.538C849.618 322.071 848.049 322.48 846.487 322.861C842.394 323.859 839.254 324.354 835.55 324.642C825.409 325.428 814.879 324.006 807.136 317.617C794.599 307.274 793.303 288.91 794.281 273.747C795.258 258.601 798.775 243.652 803.017 229.123C804.616 223.643 805.512 218.309 808.389 213.267C810.642 209.319 813.649 205.802 817.302 203.079C832.983 191.391 855.848 194.418 872.655 201.84C881.559 205.772 889.919 211.264 896.406 218.578C903.307 226.357 905.922 235.017 906.518 245.271C907.223 257.41 905.059 269.191 904.105 281.229C903.331 290.985 904.763 300.222 911.164 307.945C915.321 312.96 920.899 316.78 926.517 319.974C931.832 322.996 936.481 326.616 940.982 330.767C948.598 337.792 955.204 345.841 960.319 354.863C969.851 371.674 973.429 391.047 971.627 410.214C969.689 430.835 961.674 450.595 950.623 467.968C937.82 488.096 920.669 505.415 901.391 519.385C879.452 535.281 854.691 547.07 828.713 554.673C800.546 562.918 770.39 566.905 741.055 564.841C720.927 563.425 699.995 558.437 683.8 545.804C671.411 536.14 663.075 522.553 658.767 507.547C654.477 492.605 653.871 476.832 655.049 461.405C656.145 447.074 658.879 432.889 662.592 419.015C665.057 409.805 667.952 400.693 671.37 391.79C671.766 390.758 672.172 389.729 672.586 388.703C672.852 388.046 673.283 387.169 672.825 388.113C675.551 382.492 678.254 376.86 680.968 371.233C685.008 362.859 689.048 354.486 693.088 346.113C694.741 342.686 696.041 339.322 695.221 335.397C693.696 328.097 685.718 323.902 678.812 326.52C674.268 328.243 672.333 332.12 670.179 336.094C668.342 339.483 666.505 342.872 664.667 346.261L670.076 347.726C670.076 338.609 670.076 329.492 670.076 320.374C670.076 314.945 670.076 309.516 670.076 304.087C670.076 299.556 669.956 295.262 666.57 291.697C658.963 283.688 646.301 289.608 645.827 300.042H651.632C651.337 293.467 646.317 287.917 639.508 287.917C632.699 287.917 627.678 293.465 627.383 300.042H633.188C632.893 293.467 627.872 287.917 621.063 287.917C614.254 287.917 609.234 293.465 608.939 300.042H614.744C614.421 292.843 608.382 287.029 600.994 288.062C593.588 289.097 591.015 295.604 590.405 302.199C590.013 306.432 590.334 310.639 590.631 314.864C590.991 320 591.029 325.152 590.952 330.298C590.876 335.454 590.68 340.607 590.572 345.762C590.533 347.624 590.832 350.198 590.462 351.692C589.922 353.871 588.241 356.205 587.277 358.248C570.904 392.962 560.781 430.478 557.696 468.745C555.992 489.874 556.366 511.249 559.964 532.171C563.406 552.188 570.06 571.788 580.698 589.156C592.373 608.217 608.651 624.012 627.65 635.719C651.945 650.69 679.885 659.011 707.91 663.453C744.116 669.192 781.361 669.326 817.454 662.676C845.15 657.573 873.335 648.616 897.298 633.52C913.922 623.049 930.111 611.241 944.318 597.638C950.809 591.422 957.336 584.554 961.556 576.536C964.626 570.703 966.537 563.472 962.86 557.442C961.004 554.398 958.077 552.189 954.937 550.598C953.472 549.856 951.884 550.271 950.966 551.64C945.862 559.249 944.013 568.276 942.491 577.163C940.748 587.341 938.88 597.492 936.805 607.607C932.605 628.071 927.681 648.387 922.046 668.503C910.793 708.674 896.732 748.075 879.912 786.253C871.36 805.665 862.994 827.219 846.437 841.319C843.588 843.745 847.711 847.834 850.542 845.424C865.113 833.015 873.189 815.175 880.934 798.106C889.512 779.204 897.438 760.004 904.684 740.552C919.335 701.218 931.193 660.846 940.14 619.838C942.673 608.228 944.974 596.567 947.034 584.865C948.856 574.509 949.979 563.515 955.979 554.569L952.008 555.611C957.442 558.363 960.071 562.385 958.735 567.98C957.026 575.136 951.751 581.388 946.916 586.695C933.915 600.963 918.048 612.77 902.074 623.489C853.759 655.91 792.624 665.317 735.456 660.886C684.603 656.944 630.225 642.004 596.416 601.246C571.578 571.303 562.724 532.017 562.525 493.87C562.363 462.835 567.228 431.787 576.396 402.155C579.038 393.612 582.044 385.183 585.398 376.894C587.124 372.63 588.953 368.407 590.872 364.226C591.651 362.528 592.445 360.837 593.253 359.153C594.171 357.243 595.695 355.136 596.196 353.072C596.696 351.013 596.323 348.473 596.365 346.356C596.411 343.977 596.48 341.598 596.546 339.219C596.689 334.068 596.838 328.915 596.778 323.762C596.688 315.899 595.109 307.722 596.514 299.915C597.104 296.638 598.909 293.738 602.619 293.722C606.193 293.706 608.784 296.602 608.939 300.042C609.106 303.775 614.576 303.781 614.744 300.042C615.109 291.901 627.017 291.885 627.383 300.042C627.55 303.775 633.02 303.781 633.188 300.042C633.553 291.901 645.461 291.885 645.827 300.042C645.995 303.775 651.462 303.781 651.632 300.042C651.811 296.109 655.342 292.89 659.364 293.909C662.384 294.674 664.137 297.507 664.271 300.477C664.391 303.123 664.271 305.804 664.271 308.452C664.271 318.763 664.271 329.073 664.271 339.384C664.271 342.164 664.271 344.945 664.271 347.726C664.271 350.544 668.288 351.759 669.68 349.191C671.603 345.644 673.526 342.096 675.448 338.549C676.197 337.167 676.856 335.637 677.764 334.347C679.785 331.474 683.783 330.638 686.751 332.547C690.936 335.24 689.764 339.683 688.012 343.313C686.215 347.038 684.418 350.763 682.621 354.488C677.385 365.341 671.49 376.073 666.954 387.244C663.968 394.598 661.439 402.151 659.175 409.756C655.131 423.337 652.077 437.21 650.283 451.27C648.26 467.123 647.973 483.317 650.843 499.087C653.728 514.939 660.265 530.18 671.259 542.114C684.299 556.27 702.481 564.313 721.109 568.028C749.2 573.63 779.064 571.4 806.99 565.933C834.947 560.46 862.121 550.462 886.669 535.96C908.288 523.188 928.041 506.864 943.824 487.281C957.726 470.033 968.793 450.192 974.256 428.621C979.151 409.296 979.348 388.658 973.127 369.605C966.463 349.199 952.987 332.049 936.037 319.108C930.467 314.856 923.93 312.219 918.701 307.422C915.084 304.105 912.159 300.145 910.781 295.389C907.973 285.698 910.701 274.893 911.711 265.118C912.931 253.305 913.764 239.698 909.297 228.438C905.713 219.401 899.087 212.009 891.435 206.165C875.329 193.865 853.347 187.087 833.153 190.448C823.732 192.017 814.632 196.362 808.239 203.577C804.789 207.471 802.216 211.958 800.368 216.81C799.342 219.502 798.654 222.262 798.047 225.072C797.127 229.33 795.714 233.507 794.631 237.733C791.11 251.48 788.402 265.684 788.236 279.918C788.129 289.112 789.118 298.592 792.664 307.15C797.596 319.054 807.583 327.25 820.245 329.672C829.473 331.437 839.11 330.656 848.191 328.419C849.699 328.048 851.213 327.65 852.68 327.136C856.181 325.906 854.674 320.296 851.136 321.538Z" fill="black"/>
<path d="M608.939 299.817V335.215C608.939 338.951 614.744 338.957 614.744 335.215V299.817C614.744 296.081 608.939 296.075 608.939 299.817Z" fill="black"/>
<path d="M627.383 299.999C627.383 310.329 627.383 320.658 627.383 330.988V335.398C627.383 339.133 633.188 339.139 633.188 335.398V299.999C633.188 296.264 627.383 296.258 627.383 299.999Z" fill="black"/>
<path d="M645.827 300.182V335.58C645.827 339.315 651.632 339.322 651.632 335.58V300.182C651.632 296.446 645.827 296.44 645.827 300.182Z" fill="black"/>
<path d="M828.16 327.67C818.972 328.219 805.238 326.48 800.248 326.422C800.248 326.422 832.326 357.668 860.657 333.503C866.49 326.837 873.99 316.837 873.99 316.837C873.99 316.837 856.075 326.003 828.16 327.67Z" fill="black"/>
<path d="M828.16 324.767C818.808 325.295 809.572 323.662 800.248 323.52C797.747 323.481 796.401 326.73 798.196 328.475C804.118 334.231 811.591 338.751 819.186 341.877C825.564 344.501 832.587 345.987 839.5 345.477C847.91 344.856 856.064 341.416 862.394 335.823C864.149 334.272 865.593 332.179 867.071 330.364C868.553 328.544 870.013 326.706 871.459 324.856C873.156 322.686 874.843 320.506 876.496 318.302C877.257 317.289 876.878 315.62 876.042 314.785C875.097 313.84 873.68 313.741 872.525 314.331C871.894 314.653 871.246 314.942 870.598 315.227C870.441 315.297 870.284 315.365 870.126 315.433C870.026 315.476 869.299 315.783 869.812 315.569C870.33 315.352 869.598 315.657 869.5 315.697C869.261 315.795 869.021 315.893 868.78 315.989C867.701 316.422 866.613 316.834 865.519 317.23C858.693 319.698 851.633 321.525 844.494 322.82C839.091 323.8 833.64 324.431 828.16 324.767C826.595 324.863 825.257 326.033 825.257 327.67C825.257 329.167 826.587 330.669 828.159 330.572C843.419 329.636 858.775 326.574 872.866 320.528C873.737 320.154 874.61 319.774 875.455 319.343C874.131 318.02 872.807 316.696 871.484 315.372C871.155 315.81 870.823 316.247 870.492 316.683C869.619 317.83 868.84 318.843 868.168 319.707C865.671 322.92 863.138 326.107 860.517 329.219C859.233 330.745 857.961 332.071 856.338 333.239C854.617 334.477 852.803 335.586 850.905 336.529C847.999 337.972 844.29 339.098 841.152 339.512C834.836 340.346 828.756 339.287 822.567 336.997C821.863 336.736 821.164 336.462 820.472 336.172C820.893 336.349 820.057 335.989 819.893 335.916C819.519 335.749 819.147 335.578 818.776 335.404C817.464 334.786 816.174 334.122 814.907 333.417C812.671 332.173 810.506 330.802 808.418 329.324C807.933 328.981 807.453 328.633 806.977 328.278C806.732 328.096 806.489 327.909 806.244 327.725C805.877 327.451 806.706 328.093 806.148 327.65C805.433 327.082 804.723 326.51 804.028 325.917C803.441 325.416 802.855 324.908 802.301 324.369L800.249 329.324C809.572 329.467 818.807 331.1 828.159 330.572C829.725 330.484 831.062 329.301 831.062 327.67C831.062 326.166 829.733 324.679 828.16 324.767Z" fill="black"/>
<path d="M803.161 185.179C803.161 185.179 786.079 202.678 791.495 213.51C799.746 230.013 823.16 222.677 823.16 222.677C823.16 222.677 820.243 241.425 844.825 233.093C844.825 242.259 851.908 252.258 864.407 243.509C876.906 234.759 872.323 278.09 864.407 286.839C872.323 288.089 879.514 248.806 890.659 253.092C923.274 265.642 869.965 314.704 859.162 324.897C844.311 338.908 831.949 349.425 813.087 356.683C788.532 366.132 766.867 383.124 752.052 404.888C744.603 415.829 738.73 428.371 738.462 441.605C738.193 454.838 744.51 468.763 756.307 474.764C768.104 480.766 784.982 476.182 789.865 463.88C792.006 458.487 790.192 450.456 784.413 449.944C779.422 449.502 775.89 455.693 777.198 460.53C778.506 465.367 782.888 468.706 787.289 471.102C816.666 487.098 858.383 472.47 871.338 441.63C873.38 436.767 874.782 431.313 873.33 426.243C871.877 421.172 866.726 416.883 861.569 417.987C855.372 419.313 852.926 427.996 856.39 433.303C859.853 438.61 867.132 440.38 873.32 439.01C879.507 437.639 884.806 433.739 889.649 429.651C931.638 394.205 939.282 320.148 935.694 269.055C933.394 236.314 920.346 193.902 889.047 178.271C862.526 165.025 825.406 161.794 803.161 185.179Z" fill="black"/>
<path d="M801.109 183.126C798.598 185.705 796.345 188.596 794.294 191.546C790.877 196.462 787.669 202.313 787.535 208.446C787.396 214.854 791.921 220.71 797.294 223.794C802.224 226.625 808.124 227.449 813.734 227.146C817.134 226.962 820.666 226.493 823.932 225.475L820.361 221.905C819.978 224.407 820.105 227.056 820.893 229.471C822.557 234.567 826.788 237.445 832.017 238.023C836.578 238.528 841.306 237.326 845.597 235.892C844.372 234.959 843.147 234.026 841.923 233.093C841.989 240.071 845.684 248.367 853.329 249.585C858.021 250.333 862.189 248.403 866.035 245.903C866.388 245.674 866.751 245.485 867.12 245.285C866.728 245.497 866.684 245.459 867.075 245.327C867.504 245.182 867.8 245.349 867.045 245.271C867.189 245.286 867.34 245.236 867.487 245.253C868.055 245.32 866.795 245.133 867.253 245.215C867.386 245.238 867.888 245.409 867.352 245.212C866.815 245.014 867.4 245.237 867.525 245.344C867.812 245.588 866.869 245.014 867.368 245.238C867.499 245.297 867.566 245.486 867.68 245.568C867.996 245.793 867.374 244.982 867.596 245.479C867.683 245.672 867.829 245.869 867.934 246.055C867.992 246.156 868.274 246.759 868.06 246.286C867.857 245.837 868.118 246.438 868.162 246.57C868.321 247.04 868.466 247.512 868.584 247.994C868.699 248.458 868.794 248.927 868.875 249.398C868.919 249.649 868.956 249.9 868.994 250.152C869.044 250.486 868.967 249.953 868.965 249.937C868.988 250.128 869.011 250.319 869.03 250.51C869.152 251.747 869.224 252.986 869.246 254.229C869.296 257.045 869.132 259.864 868.839 262.664C868.563 265.301 868.146 267.982 867.51 270.969C866.88 273.931 866.102 276.875 865.041 279.714C864.929 280.015 864.812 280.313 864.694 280.611C864.387 281.386 864.77 280.494 864.494 281.082C864.236 281.63 863.985 282.179 863.699 282.713C863.457 283.165 863.199 283.609 862.918 284.038C862.773 284.258 862.618 284.47 862.465 284.685C862.282 284.944 862.681 284.404 862.664 284.426C862.564 284.549 862.46 284.669 862.355 284.787C860.548 286.822 861.936 289.413 864.407 289.742C869.16 290.376 872.283 284.073 874.014 280.666C876.817 275.152 879.041 269.361 881.936 263.892C882.607 262.626 883.312 261.377 884.089 260.172C884.433 259.639 884.795 259.119 885.167 258.605C885.481 258.171 885.185 258.576 885.123 258.654C885.214 258.539 885.304 258.422 885.399 258.31C885.628 258.04 885.854 257.769 886.095 257.51C886.433 257.146 886.804 256.826 887.159 256.481C887.648 256.005 886.73 256.713 887.294 256.373C887.516 256.239 887.732 256.093 887.954 255.959C888.293 255.754 888.565 255.728 888.005 255.901C888.202 255.84 888.418 255.782 888.609 255.707C889.249 255.455 888.236 255.639 888.604 255.683C888.838 255.71 889.148 255.701 889.384 255.689C888.825 255.718 888.974 255.587 889.405 255.733C889.656 255.818 889.903 255.901 890.152 255.995C890.229 256.025 890.67 256.212 890.229 256.023C890.395 256.094 890.562 256.167 890.725 256.244C891.081 256.412 891.436 256.582 891.784 256.765C892.333 257.052 892.869 257.362 893.388 257.7C893.65 257.871 893.905 258.052 894.16 258.234C894.597 258.545 894.194 258.258 894.116 258.195C894.289 258.334 894.46 258.476 894.628 258.622C895.057 258.997 895.465 259.397 895.845 259.821C896.028 260.026 896.204 260.237 896.375 260.452C895.947 259.912 896.432 260.561 896.565 260.766C896.854 261.21 897.081 261.678 897.336 262.141C897.674 262.755 897.207 261.68 897.427 262.344C897.518 262.622 897.625 262.893 897.71 263.174C897.862 263.678 897.96 264.189 898.071 264.702C898.099 264.83 898.113 264.965 898.134 265.094C898.122 265.021 898.063 264.397 898.105 264.917C898.129 265.22 898.158 265.522 898.171 265.826C898.196 266.379 898.191 266.932 898.162 267.485C898.147 267.768 898.12 268.051 898.098 268.334C898.087 268.477 898.067 268.62 898.052 268.763C898.014 269.132 898.149 268.187 898.052 268.75C897.831 270.038 897.545 271.304 897.161 272.555C896.981 273.138 896.785 273.716 896.576 274.289C896.461 274.603 896.342 274.915 896.219 275.226C896.157 275.383 896.093 275.54 896.03 275.697C895.905 276.006 896.193 275.329 895.974 275.832C893.423 281.679 889.831 287.042 885.986 292.108C885.219 293.119 884.111 294.519 883.086 295.774C882.007 297.094 880.908 298.398 879.792 299.687C877.589 302.233 875.323 304.724 873.01 307.169C869.199 311.199 865.261 315.106 861.248 318.934C848.881 330.729 836.282 342.465 820.837 350.135C816.057 352.509 811.041 354.286 806.159 356.425C801.395 358.513 796.757 360.887 792.275 363.525C783.173 368.882 774.675 375.333 767.065 382.656C759.426 390.005 752.6 398.316 747.005 407.324C740.953 417.067 736.378 427.997 735.646 439.549C734.455 458.353 746.44 479.912 767.157 480.285C775.81 480.441 784.593 476.809 789.848 469.81C792.381 466.437 793.942 462.241 793.59 457.985C793.234 453.682 791.3 449.307 787.06 447.623C782.608 445.854 777.895 448.271 775.655 452.264C773.202 456.637 773.697 461.839 776.566 465.889C779.481 470.005 783.876 472.772 788.367 474.903C792.227 476.735 796.276 478.161 800.45 479.085C817.176 482.79 835.239 479.283 849.766 470.334C857.046 465.85 863.423 459.991 868.349 452.995C870.88 449.402 872.928 445.51 874.536 441.423C876.688 435.953 877.898 429.522 875.558 423.91C873.558 419.112 869.139 415.35 863.856 414.938C859.293 414.582 855.141 417.494 853.283 421.55C851.424 425.606 851.374 430.574 853.698 434.47C856.184 438.639 860.778 441.252 865.489 442.022C876.5 443.823 885.961 436.91 893.721 429.947C900.115 424.209 905.662 417.544 910.431 410.408C920.476 395.377 927.041 378.132 931.438 360.671C935.943 342.788 938.259 324.342 939.067 305.934C939.814 288.935 939.559 271.644 936.988 254.798C934.274 237.011 928.863 219.151 919.435 203.725C914.863 196.244 909.259 189.265 902.484 183.665C895.437 177.839 887.326 173.819 878.744 170.762C861.453 164.602 841.563 162.61 823.953 168.654C815.301 171.624 807.448 176.516 801.109 183.126C798.522 185.823 802.622 189.935 805.214 187.232C817.458 174.465 834.948 169.907 852.218 171.034C860.878 171.599 869.436 173.557 877.591 176.499C885.284 179.275 892.705 182.956 898.975 188.268C911.741 199.083 919.909 214.428 925.135 230.102C930.328 245.676 932.624 261.813 933.298 278.167C933.993 295.043 933.423 311.999 931.408 328.773C929.328 346.082 925.603 363.327 919.474 379.672C913.759 394.911 905.665 409.568 894.296 421.33C891.298 424.431 888.085 427.362 884.661 429.988C880.775 432.967 876.277 435.783 871.325 436.44C867.534 436.942 863.131 436.111 860.271 433.43C857.651 430.971 857.069 427.64 858.327 424.43C858.803 423.215 859.721 422.002 860.818 421.357C862.065 420.623 863.822 420.521 865.378 421.127C869.832 422.863 871.302 427.84 870.962 432.189C870.603 436.777 868.556 441.301 866.342 445.282C864.446 448.689 862.182 451.864 859.568 454.756C849.167 466.268 833.999 473.414 818.629 474.572C810.802 475.162 803.076 474.293 795.668 471.684C791.798 470.32 787.842 468.491 784.592 465.956C781.655 463.665 779.031 460.242 780.104 456.548C780.537 455.057 781.464 453.641 782.838 453.034C783.153 452.895 783.893 452.773 784.358 452.843C784.859 452.918 785.587 453.308 785.782 453.475C787.92 455.311 788.25 459.114 787.45 461.964C785.467 469.03 777.952 473.276 771.075 474.265C763.13 475.407 755.5 472.306 750.055 466.323C744.235 459.927 741.369 451.02 741.356 442.46C741.34 431.798 745.349 421.556 750.676 412.475C755.759 403.808 762.065 395.867 769.147 388.75C776.097 381.766 783.819 375.6 792.173 370.377C796.45 367.703 800.879 365.274 805.434 363.107C810.008 360.931 814.768 359.233 819.399 357.192C836.182 349.799 849.77 337.737 862.976 325.291C870.892 317.83 878.598 310.12 885.605 301.791C889.796 296.809 893.801 291.612 897.175 286.036C900.012 281.351 902.632 276.174 903.578 270.731C904.462 265.646 903.829 260.557 900.542 256.428C898.958 254.438 896.853 252.857 894.601 251.692C892.23 250.466 889.689 249.38 886.991 250.129C882.07 251.496 879.069 256.893 876.86 261.083C874.095 266.329 871.931 271.861 869.289 277.166C868.749 278.25 868.188 279.325 867.576 280.371C867.304 280.836 867.023 281.296 866.726 281.746C866.579 281.969 866.426 282.187 866.273 282.406C866.086 282.674 865.856 282.928 866.218 282.495C865.927 282.843 865.64 283.191 865.313 283.506C865.189 283.627 865.027 283.735 864.917 283.866C864.994 283.774 865.462 283.591 864.938 283.831C864.821 283.885 864.63 283.971 864.54 284.057C864.316 284.272 865.236 283.817 864.665 283.981C864.049 284.158 865.212 283.94 864.866 283.965C864.714 283.976 864.558 283.957 864.407 283.937L866.46 288.892C869.713 285.228 871.244 280.097 872.426 275.444C873.923 269.551 874.812 263.424 875.021 257.346C875.182 252.692 875.201 247.186 872.875 242.99C871.878 241.192 870.25 239.802 868.176 239.524C865.377 239.148 863.4 240.848 861.131 242.164C859.261 243.248 857.228 244.047 855.108 243.973C853.714 243.924 852.26 243.29 851.268 242.363C848.811 240.069 847.76 236.504 847.728 233.093C847.711 231.294 845.875 229.685 844.054 230.294C840.552 231.465 837.118 232.406 833.534 232.321C831.353 232.269 830.096 231.977 828.307 230.723C828.949 231.173 828.029 230.446 827.82 230.225C827.681 230.079 827.556 229.921 827.42 229.772C827.21 229.541 827.624 230.042 827.613 230.026C827.534 229.911 827.446 229.802 827.372 229.684C827.168 229.357 826.976 229.033 826.796 228.693C826.708 228.528 826.641 228.353 826.558 228.186C826.813 228.701 826.684 228.517 826.565 228.147C826.342 227.456 826.205 226.766 826.042 226.06C825.907 225.475 826.079 226.692 826.06 226.219C826.054 226.066 826.026 225.913 826.013 225.761C825.987 225.457 825.969 225.154 825.961 224.849C825.947 224.349 825.956 223.847 825.993 223.347C826.044 222.675 826.077 222.677 825.959 223.448C826.272 221.4 824.708 219.155 822.388 219.878C821.767 220.071 821.132 220.226 820.498 220.372C819.756 220.544 819.009 220.696 818.259 220.828C817.84 220.903 817.419 220.969 816.998 221.034C816.726 221.075 816.349 221.119 816.862 221.055C816.584 221.09 816.306 221.124 816.027 221.154C813.787 221.397 811.524 221.473 809.274 221.322C807.741 221.219 807.382 221.173 805.949 220.871C804.711 220.611 803.498 220.257 802.316 219.809C802.055 219.71 801.594 219.508 801.043 219.226C800.441 218.918 799.856 218.579 799.29 218.208C798.291 217.554 797.493 216.869 796.552 215.849C795.598 214.814 794.863 213.707 794.174 212.384C793.832 211.726 793.418 210.363 793.379 209.767C793.052 204.853 795.622 200.023 798.506 195.657C800.084 193.267 801.186 191.833 802.917 189.794C803.658 188.92 804.414 188.053 805.214 187.232C807.822 184.554 803.721 180.444 801.109 183.126Z" fill="black"/>
<path d="M828.527 246.358C828.859 246.207 828.28 246.442 828.508 246.365C828.594 246.335 828.679 246.3 828.765 246.27C828.96 246.202 829.157 246.143 829.356 246.091C829.555 246.04 829.756 245.997 829.958 245.961C830.267 245.906 830.097 245.996 829.918 245.961C829.995 245.976 830.112 245.94 830.191 245.934C830.601 245.9 831.014 245.898 831.425 245.924C831.54 245.932 831.654 245.947 831.768 245.954C832.033 245.97 831.281 245.868 831.731 245.948C831.934 245.984 832.136 246.022 832.338 246.069C832.742 246.164 833.127 246.301 833.519 246.438C833.769 246.525 833.198 246.286 833.436 246.402C833.539 246.453 833.644 246.498 833.747 246.549C833.931 246.641 834.112 246.74 834.288 246.845C834.465 246.95 834.638 247.061 834.806 247.18C834.871 247.225 834.954 247.315 835.027 247.341C834.726 247.235 834.857 247.209 835.009 247.34C835.34 247.623 835.641 247.936 835.921 248.27C836.573 249.049 837.993 248.993 838.657 248.27C839.418 247.441 839.353 246.365 838.657 245.533C835.744 242.05 830.615 241.177 826.574 243.017C825.649 243.438 825.353 244.848 825.88 245.664C826.495 246.619 827.538 246.808 828.527 246.358Z" fill="black"/>
<path d="M803.642 239.41C803.697 239.382 803.753 239.356 803.808 239.327C804.119 239.168 803.445 239.464 803.642 239.394C803.772 239.347 803.9 239.297 804.033 239.256C804.298 239.176 804.568 239.119 804.842 239.079L804.327 239.148C804.849 239.081 805.371 239.084 805.893 239.154L805.378 239.085C805.684 239.131 805.985 239.196 806.28 239.288C806.413 239.33 806.577 239.426 806.715 239.443C806.632 239.433 806.255 239.239 806.549 239.378C806.618 239.41 806.687 239.445 806.755 239.48C806.891 239.552 807.024 239.629 807.154 239.711C807.241 239.767 807.618 240.045 807.334 239.825C807.061 239.614 807.292 239.795 807.353 239.848C807.411 239.898 807.468 239.949 807.524 240.002C807.647 240.119 807.763 240.242 807.874 240.37C808.543 241.135 809.936 241.105 810.611 240.37C811.359 239.555 811.324 238.449 810.611 237.633C808.423 235.13 804.591 234.583 801.689 236.069C800.786 236.531 800.45 237.872 800.995 238.716C801.588 239.637 802.677 239.905 803.642 239.41Z" fill="black"/>
<path d="M829.617 254.978C829.1 255.878 828.188 256.37 827.183 256.21C826.994 256.18 826.802 256.135 826.64 256.032C826.441 255.904 826.305 255.699 826.201 255.487C825.782 254.631 825.826 253.564 826.315 252.745C826.98 251.633 828.741 251.612 829.514 252.643C830.009 253.303 830.029 254.263 829.617 254.978Z" fill="black"/>
<path d="M827.947 254.002C827.883 254.11 827.814 254.214 827.739 254.314L828.041 253.923C827.903 254.1 827.748 254.257 827.572 254.396L827.964 254.094C827.804 254.214 827.634 254.314 827.45 254.394L827.912 254.199C827.726 254.275 827.536 254.327 827.338 254.355L827.853 254.286C827.646 254.311 827.442 254.309 827.236 254.283L827.75 254.352C827.599 254.33 827.451 254.299 827.307 254.244L827.769 254.439C827.699 254.408 827.635 254.374 827.572 254.33L827.963 254.633C827.891 254.576 827.829 254.515 827.77 254.444L828.073 254.836C827.959 254.688 827.874 254.525 827.802 254.354L827.997 254.817C827.904 254.585 827.841 254.348 827.806 254.101L827.875 254.615C827.843 254.349 827.844 254.084 827.878 253.817L827.809 254.332C827.845 254.085 827.909 253.848 828.002 253.617L827.807 254.079C827.888 253.889 827.983 253.707 828.109 253.543L827.807 253.934C827.897 253.824 827.996 253.727 828.109 253.639L827.717 253.942C827.841 253.85 827.973 253.775 828.114 253.715L827.652 253.91C827.822 253.841 827.997 253.796 828.178 253.772L827.664 253.841C827.847 253.82 828.029 253.821 828.212 253.843L827.698 253.774C827.881 253.8 828.057 253.847 828.228 253.917L827.766 253.721C827.923 253.789 828.069 253.873 828.205 253.976L827.814 253.674C827.927 253.764 828.028 253.864 828.119 253.976L827.817 253.585C827.924 253.725 828.01 253.875 828.08 254.037L827.885 253.575C827.951 253.742 827.995 253.913 828.021 254.09L827.952 253.576C827.976 253.773 827.977 253.969 827.953 254.166L828.022 253.652C827.995 253.849 827.945 254.038 827.87 254.223L828.065 253.761C828.03 253.843 827.991 253.923 827.947 254.002C827.699 254.446 827.615 254.999 827.752 255.493C827.875 255.942 828.222 256.428 828.641 256.649C829.09 256.887 829.634 257.005 830.132 256.844C830.607 256.691 831.04 256.401 831.288 255.955C832.152 254.408 831.99 252.405 830.742 251.109C830.568 250.929 830.357 250.783 830.159 250.635C830.079 250.575 829.998 250.52 829.91 250.472C829.608 250.305 829.273 250.16 828.935 250.081C828.587 249.999 828.213 249.943 827.853 249.956C827.505 249.968 827.136 250.011 826.801 250.114C826.048 250.346 825.4 250.771 824.919 251.394C824.62 251.782 824.442 252.151 824.26 252.614C824.103 253.011 824.055 253.423 824.004 253.846C823.963 254.195 823.993 254.525 824.04 254.873C824.099 255.307 824.192 255.672 824.363 256.076C824.554 256.529 824.763 256.927 825.125 257.281C825.517 257.665 826.042 257.958 826.584 258.061C827.121 258.163 827.578 258.193 828.11 258.121C828.623 258.052 829.014 257.922 829.493 257.695C830.242 257.341 830.874 256.66 831.288 255.955C831.542 255.523 831.617 254.947 831.484 254.464C831.36 254.015 831.013 253.528 830.594 253.307C830.145 253.07 829.601 252.951 829.103 253.112C828.622 253.268 828.207 253.558 827.947 254.002Z" fill="black"/>
<path d="M805.476 248.319C804.959 249.218 804.046 249.71 803.042 249.551C802.852 249.52 802.66 249.475 802.498 249.372C802.3 249.245 802.164 249.039 802.06 248.828C801.64 247.971 801.685 246.904 802.174 246.086C802.839 244.973 804.6 244.952 805.373 245.983C805.868 246.643 805.887 247.603 805.476 248.319Z" fill="black"/>
<path d="M803.805 247.342C803.742 247.45 803.673 247.554 803.597 247.655L803.9 247.263C803.762 247.44 803.607 247.598 803.431 247.736L803.822 247.434C803.662 247.555 803.492 247.655 803.308 247.735L803.77 247.539C803.585 247.615 803.395 247.667 803.197 247.695L803.711 247.626C803.505 247.651 803.301 247.649 803.095 247.623L803.609 247.693C803.457 247.67 803.31 247.639 803.166 247.585L803.628 247.78C803.558 247.749 803.493 247.714 803.43 247.67L803.822 247.973C803.75 247.916 803.687 247.855 803.629 247.785L803.931 248.176C803.818 248.028 803.733 247.866 803.66 247.695L803.855 248.157C803.762 247.926 803.7 247.688 803.665 247.441L803.734 247.956C803.701 247.689 803.702 247.424 803.736 247.158L803.667 247.672C803.704 247.426 803.767 247.188 803.86 246.957L803.665 247.419C803.746 247.229 803.842 247.047 803.968 246.883L803.665 247.274C803.755 247.164 803.855 247.067 803.967 246.98L803.576 247.282C803.7 247.19 803.831 247.116 803.973 247.055L803.511 247.25C803.681 247.181 803.855 247.136 804.037 247.112L803.522 247.181C803.706 247.16 803.888 247.161 804.071 247.183L803.556 247.114C803.739 247.141 803.916 247.187 804.087 247.257L803.625 247.062C803.782 247.129 803.928 247.213 804.064 247.317L803.672 247.014C803.786 247.104 803.887 247.204 803.978 247.317L803.675 246.925C803.783 247.065 803.869 247.215 803.938 247.378L803.743 246.915C803.809 247.082 803.854 247.253 803.88 247.431L803.811 246.916C803.835 247.114 803.835 247.309 803.812 247.506L803.881 246.992C803.853 247.189 803.803 247.378 803.729 247.563L803.924 247.101C803.888 247.183 803.849 247.263 803.805 247.342C803.558 247.786 803.474 248.339 803.61 248.833C803.734 249.282 804.081 249.768 804.499 249.989C804.949 250.227 805.493 250.346 805.991 250.185C806.465 250.031 806.898 249.741 807.147 249.295C808.01 247.748 807.849 245.745 806.6 244.449C806.427 244.269 806.216 244.123 806.017 243.975C805.938 243.915 805.856 243.86 805.769 243.812C805.467 243.646 805.132 243.5 804.794 243.421C804.446 243.339 804.071 243.283 803.712 243.296C803.364 243.308 802.995 243.351 802.659 243.454C801.906 243.686 801.259 244.111 800.778 244.734C800.478 245.122 800.301 245.491 800.118 245.955C799.962 246.351 799.914 246.763 799.863 247.186C799.821 247.535 799.852 247.865 799.899 248.213C799.957 248.648 800.051 249.012 800.221 249.417C800.412 249.869 800.622 250.267 800.983 250.621C801.376 251.006 801.9 251.299 802.442 251.401C802.98 251.503 803.436 251.533 803.969 251.461C804.482 251.392 804.873 251.262 805.352 251.035C806.1 250.681 806.733 250 807.147 249.295C807.401 248.863 807.475 248.287 807.342 247.804C807.219 247.355 806.872 246.869 806.453 246.648C806.004 246.41 805.46 246.291 804.962 246.452C804.481 246.608 804.066 246.898 803.805 247.342Z" fill="black"/>
<path d="M815.006 284.02C815.052 284.304 814.882 284.798 814.651 284.976C813.958 285.51 813.513 286.258 813.762 287.162C813.981 287.96 814.783 288.613 815.628 288.582C819.338 288.446 823.152 287.823 826.585 286.369C828.393 285.604 829.896 284.357 831.379 283.093C833.024 281.692 834.626 280.241 836.228 278.791C835.15 278.507 834.072 278.222 832.994 277.938C834.167 280.912 833.919 284.16 832.157 286.849C830.533 289.327 827.538 290.79 824.622 290.844C823.45 290.866 822.316 292.076 822.756 293.294C823.582 295.582 825.608 296.69 827.98 296.37C829.017 296.23 829.582 294.9 829.332 293.989C829.024 292.87 827.991 292.498 826.951 292.638C826.887 292.647 826.532 292.387 826.487 292.265C825.865 293.081 825.244 293.898 824.622 294.714C828.887 294.635 832.87 292.528 835.332 289.045C837.768 285.597 838.267 280.816 836.726 276.909C836.187 275.542 834.647 275.01 833.492 276.055C832.027 277.38 830.562 278.706 829.065 279.995C827.838 281.05 826.6 282.163 825.103 282.824C822.185 284.112 818.791 284.596 815.628 284.712L816.604 288.318C818.351 286.974 819.092 285.176 818.738 282.992C818.571 281.959 817.287 281.385 816.358 281.64C815.26 281.942 814.839 282.985 815.006 284.02Z" fill="black"/>
<path d="M829.035 284.006C831.111 284.787 832.014 287.072 831.63 289.116C833.194 289.366 834.647 286.313 835.148 285.08C835.969 283.06 836.112 280.754 835.448 278.67C833.708 280.556 831.723 282.219 829.556 283.605" fill="black"/>
<path d="M828.521 285.872C828.077 285.696 828.702 285.998 828.826 286.065C829.125 286.228 828.695 285.898 828.823 286.054C828.891 286.137 828.999 286.21 829.075 286.287C829.139 286.352 829.198 286.421 829.26 286.487C829.539 286.786 829.154 286.271 829.247 286.474C829.332 286.661 829.474 286.888 829.584 287.064C829.708 287.263 829.449 286.639 829.571 287.044C829.597 287.131 829.629 287.217 829.654 287.305C829.686 287.415 829.709 287.527 829.738 287.638C829.817 287.942 829.832 287.749 829.748 287.599C829.831 287.746 829.784 288.12 829.78 288.29C829.778 288.382 829.77 288.474 829.767 288.567C829.754 289.036 829.844 288.139 829.764 288.602C829.531 289.947 830.301 290.894 831.63 291.051C832.831 291.193 834.023 290.399 834.768 289.527C835.493 288.679 836.066 287.728 836.532 286.717C837.778 284.016 838.201 281.041 837.314 278.156C836.902 276.816 835.103 276.199 834.08 277.302C833.227 278.221 832.323 279.09 831.364 279.898C831.13 280.095 830.889 280.283 830.653 280.478C830.396 280.693 831.003 280.218 830.537 280.569C830.415 280.661 830.293 280.753 830.169 280.843C829.651 281.224 829.12 281.586 828.579 281.934C827.729 282.481 827.302 283.677 827.885 284.581C828.433 285.431 829.622 285.861 830.532 285.275C832.831 283.796 834.957 282.042 836.816 280.038L833.582 279.184C833.671 279.475 833.751 279.767 833.813 280.064C833.822 280.109 833.912 280.586 833.871 280.344C833.831 280.113 833.9 280.635 833.9 280.628C833.951 281.237 833.922 281.835 833.877 282.443C833.892 282.242 833.901 282.305 833.872 282.469C833.846 282.618 833.819 282.767 833.788 282.916C833.725 283.213 833.648 283.506 833.558 283.796C833.472 284.07 833.367 284.335 833.266 284.604C833.199 284.785 833.488 284.105 833.339 284.432C833.304 284.509 833.27 284.588 833.235 284.666C832.898 285.408 832.503 286.111 832.042 286.783C831.845 287.07 832.239 286.594 832.071 286.742C831.998 286.807 831.935 286.902 831.869 286.973C831.814 287.03 831.759 287.087 831.702 287.141C831.66 287.181 831.618 287.219 831.574 287.257C831.461 287.353 831.519 287.309 831.749 287.125C831.703 287.135 831.61 287.21 831.572 287.24C831.312 287.439 831.876 287.149 831.718 287.191C831.352 287.288 831.888 287.16 831.91 287.192C831.899 287.176 831.654 287.184 831.63 287.181L833.496 289.631C833.767 288.068 833.626 286.548 832.925 285.111C832.226 283.677 831.007 282.719 829.55 282.14C828.607 281.766 827.384 282.549 827.17 283.492C826.915 284.608 827.511 285.471 828.521 285.872Z" fill="black"/>
<path d="M828.16 324.767C823.837 324.398 819.496 324.329 815.23 323.478C810.99 322.632 806.761 321.997 802.429 322.435C794.521 323.235 786.945 326.306 780.249 330.512C767.756 338.36 757.65 349.657 748.682 361.219C739.754 372.73 731.703 384.919 722.318 396.074C712.343 407.93 700.557 418.04 687.812 426.815C661.307 445.065 630.914 457.495 599.647 464.804C567.145 472.403 532.631 473.726 500.803 462.448C476.51 453.84 455.242 437.58 443.927 414.04C442.473 411.016 441.223 407.911 440.116 404.744L439.823 406.981C443.754 398.535 447.686 390.09 451.617 381.645C453.016 378.639 454.562 375.663 455.804 372.587C459.501 363.425 448.974 354.554 440.62 359.97C438.38 361.422 436.663 363.885 434.924 365.862C433.293 367.714 431.663 369.567 430.033 371.419L434.988 373.472C434.988 365.153 434.988 356.835 434.988 348.516C434.988 343.026 434.988 337.537 434.988 332.048C434.988 328.96 435.349 325.435 434.383 322.46C431.005 312.061 416.753 310.766 411.595 320.415H416.608C411.798 311.446 398.359 311.616 394.266 321.154H399.278C395.093 311.402 380.793 311.402 376.609 321.154H381.621C379.156 315.423 372.417 312.252 366.45 314.305C361.244 316.095 358.035 320.977 357.902 326.394C357.78 331.356 357.902 336.336 357.902 341.299C357.902 353.124 357.96 364.951 357.901 376.776C357.886 379.777 357.965 382.774 358.12 385.771C358.51 393.315 359.317 400.834 360.405 408.308C361.916 418.694 364.059 428.991 366.846 439.11C370.232 451.402 374.592 463.427 379.953 474.997C385.866 487.756 393.076 499.925 401.633 511.092C411.168 523.535 422.223 534.632 434.705 544.124C448.682 554.751 464.292 563.054 480.722 569.199C500.402 576.561 521.181 580.67 542.079 582.509C547.914 583.022 553.764 583.346 559.619 583.519C563.356 583.629 563.352 577.824 559.619 577.714C538.196 577.081 516.815 574.28 496.217 568.242C479.313 563.286 463.091 556.135 448.277 546.573C435.452 538.295 423.844 528.232 413.755 516.778C404.555 506.334 396.71 494.746 390.152 482.478C384.175 471.297 379.381 459.774 375.478 447.711C372.124 437.343 369.486 426.744 367.524 416.026C367.096 413.689 366.7 411.346 366.337 408.998C366.166 407.89 366.002 406.781 365.846 405.671C365.804 405.374 365.616 403.998 365.703 404.652C365.631 404.109 365.56 403.565 365.49 403.02C365.02 399.322 364.631 395.614 364.332 391.898C363.967 387.365 363.713 382.815 363.698 378.266C363.678 372.477 363.707 366.687 363.707 360.898C363.707 352.925 363.707 344.952 363.707 336.979C363.707 334.201 363.707 331.423 363.707 328.645C363.707 326.804 363.584 324.994 364.404 323.275C367.093 317.639 374.364 318.864 376.609 324.083C377.426 325.984 380.804 325.987 381.621 324.083C384.174 318.135 391.709 318.126 394.265 324.083C395.081 325.985 398.462 325.985 399.278 324.083C401.633 318.596 408.672 317.894 411.595 323.345C412.607 325.232 415.596 325.236 416.608 323.345C420.039 316.925 429.014 319.368 429.182 326.498C429.246 329.197 429.182 331.904 429.182 334.603C429.182 344.808 429.182 355.013 429.182 365.217C429.182 367.969 429.182 370.72 429.182 373.472C429.182 375.867 432.435 377.459 434.137 375.524C436.966 372.309 439.693 368.961 442.643 365.859C444.995 363.385 449.043 363.621 450.429 366.892C451.191 368.689 450.637 370.053 449.908 371.619C445.55 380.979 441.193 390.34 436.836 399.7C436.212 401.04 435.572 402.373 434.964 403.72C433.684 406.555 435.864 410.031 436.995 412.703C440.328 420.57 444.704 427.877 450.029 434.557C460.627 447.855 474.938 457.881 490.482 464.586C531.253 482.173 577.175 478.247 618.767 465.684C638.774 459.641 658.236 451.495 676.309 440.97C693.952 430.696 710.791 418.123 724.265 402.697C737 388.115 747.105 371.478 759.715 356.799C772.22 342.242 790.58 324.822 811.524 328.639C817.084 329.653 822.533 330.091 828.159 330.572C831.881 330.891 831.86 325.084 828.16 324.767Z" fill="black"/>
<path d="M432.857 370.673C428.773 369.827 424.466 369.624 420.311 369.723C411.517 369.931 402.646 371.861 394.921 376.17C389.486 379.202 384.909 383.391 381.187 388.356C380.246 389.611 380.984 391.599 382.228 392.327C383.711 393.195 385.256 392.544 386.199 391.286C391.784 383.836 399.748 379.223 408.545 377.05C409.482 376.818 410.426 376.613 411.375 376.433C411.86 376.341 412.345 376.256 412.832 376.177C413.05 376.141 413.268 376.107 413.486 376.074C413.66 376.048 413.833 376.022 414.007 375.998C413.78 376.028 413.78 376.027 414.009 375.998C415.799 375.778 417.594 375.625 419.397 375.556C422.294 375.446 425.201 375.528 428.086 375.815C428.619 375.868 429.15 375.934 429.681 375.996C430.355 376.074 428.906 375.878 429.67 375.996C429.865 376.026 430.06 376.054 430.254 376.084C430.608 376.141 430.963 376.198 431.314 376.271C432.847 376.589 434.45 375.824 434.884 374.244C435.279 372.806 434.399 370.993 432.857 370.673Z" fill="black"/>
<path d="M393.121 320.422V355.815C393.121 359.551 398.926 359.557 398.926 355.815V320.422C398.926 316.687 393.121 316.681 393.121 320.422Z" fill="black"/>
<path d="M411.432 320.422V355.815C411.432 359.551 417.237 359.557 417.237 355.815V320.422C417.237 316.687 411.432 316.681 411.432 320.422Z" fill="black"/>
<path d="M376.536 322.421V356.552C376.536 360.287 382.342 360.293 382.342 356.552V322.421C382.342 318.686 376.536 318.679 376.536 322.421Z" fill="black"/>
<path d="M240.445 282.99C252.348 271.087 264.252 259.184 276.155 247.281C278.8 244.636 274.696 240.53 272.05 243.176C260.147 255.079 248.243 266.982 236.34 278.886C233.695 281.531 237.799 285.637 240.445 282.99Z" fill="#6966ED"/>
<path d="M233.791 332.495C245.847 341.972 257.904 351.449 269.96 360.926C271.191 361.893 272.863 362.127 274.065 360.926C275.071 359.919 275.304 357.795 274.065 356.821C262.008 347.344 249.952 337.867 237.896 328.39C236.665 327.422 234.992 327.189 233.791 328.39C232.785 329.396 232.552 331.521 233.791 332.495Z" fill="#6966ED"/>
<path d="M134.247 220.256C125.103 219.026 116.311 215.436 109.119 209.612C107.619 208.398 104.662 208.514 104.268 210.893C103.621 214.799 102.576 217.929 100.482 221.116C100.025 221.811 99.5877 222.395 99.3186 222.715C98.7423 223.398 98.1436 224.059 97.5045 224.685C96.936 225.242 96.3423 225.772 95.7281 226.278C95.5473 226.427 95.3655 226.575 95.1804 226.719C95.2797 226.642 95.5575 226.437 95.0958 226.777C94.7164 227.056 94.3325 227.329 93.9421 227.593C88.0493 231.571 81.7053 233.427 74.7449 235.362C70.8059 236.456 66.844 237.471 62.9357 238.674C60.7303 239.353 60.2481 241.857 61.6549 243.525C66.6423 249.441 72.1872 256.015 73.3245 263.944C74.4022 271.457 70.5603 278.542 65.8524 284.145C62.9201 287.635 59.6119 290.787 56.2297 293.835C54.2123 295.653 55.9528 298.602 58.2821 298.79C72.8641 299.968 86.3761 310.889 91.5783 324.546C93.1171 328.586 93.9443 332.58 94.0501 336.756C94.1446 340.485 99.95 340.5 99.8552 336.756C99.422 319.657 88.1099 303.59 72.5665 296.67C68.005 294.639 63.2642 293.387 58.282 292.985L60.3344 297.94C66.7168 292.188 73.2539 285.798 76.758 277.806C78.5009 273.83 79.531 269.536 79.2438 265.171C78.9352 260.479 77.3427 256.037 75.0355 251.967C72.4673 247.435 69.106 243.39 65.7595 239.42L64.4787 244.272C78.5403 239.945 95.5553 237.772 104.839 224.994C107.514 221.312 109.126 216.904 109.866 212.437L105.015 213.718C112.981 220.168 122.519 224.484 132.704 225.854C134.255 226.063 135.82 225.482 136.274 223.827C136.646 222.475 135.811 220.466 134.247 220.256Z" fill="#F953B2"/>
</svg>
