<svg width="1000" height="1000" viewBox="0 0 1000 1000" fill="none" xmlns="http://www.w3.org/2000/svg">
<path d="M367.811 245.587C367.811 245.587 369.236 269.374 381.038 282.749C390.486 293.457 347.025 302.275 336.948 291.568C335.058 275.821 342.568 272.577 351.725 269.16C360.882 265.743 367.811 245.587 367.811 245.587Z" fill="black"/>
<path d="M364.977 245.587C365.275 250.491 366.173 255.429 367.335 260.193C368.41 264.596 369.845 268.893 371.681 273.039C372.639 275.204 373.731 277.313 374.989 279.319C376.162 281.19 377.492 283.383 379.137 284.873C379.535 285.233 378.842 284.422 379.02 284.716C379.082 284.818 379.163 284.908 379.222 285.012C379.31 285.166 379.426 285.477 379.547 285.6C379.073 285.118 379.465 285.117 379.517 285.622C379.596 286.391 379.595 285.124 379.533 285.615C379.516 285.751 379.506 286.489 379.559 285.86C379.611 285.245 379.502 285.903 379.496 286.041C379.491 286.146 379.377 286.27 379.385 286.371C379.325 285.646 379.697 285.82 379.529 286.021C379.391 286.186 379.266 286.473 379.158 286.665C378.825 287.253 379.602 286.213 379.117 286.719C378.954 286.89 378.8 287.067 378.631 287.231C378.452 287.406 378.26 287.564 378.074 287.731C377.558 288.195 378.53 287.449 377.823 287.919C376.776 288.616 375.699 289.23 374.555 289.755C374.433 289.81 374.308 289.862 374.187 289.92C373.555 290.223 374.769 289.697 374.106 289.957C373.777 290.086 373.449 290.22 373.118 290.345C372.425 290.605 371.723 290.845 371.017 291.067C369.423 291.569 367.803 291.983 366.169 292.331C365.353 292.504 364.532 292.66 363.71 292.8C363.292 292.871 362.874 292.937 362.456 293C362.287 293.025 362.119 293.049 361.95 293.073C361.265 293.173 362.318 293.034 361.688 293.107C359.901 293.315 358.113 293.479 356.314 293.549C354.397 293.623 352.474 293.607 350.56 293.473C350.119 293.442 349.678 293.405 349.238 293.361C349.033 293.34 347.767 293.182 348.469 293.281C347.572 293.155 346.679 293 345.794 292.802C345.031 292.631 344.274 292.43 343.53 292.191C343.143 292.066 342.764 291.925 342.383 291.786C342.26 291.74 342.139 291.688 342.016 291.639C342.751 291.931 342.053 291.651 341.898 291.573C341.267 291.257 340.648 290.934 340.063 290.538C339.943 290.456 339.827 290.368 339.706 290.286C339.589 290.206 340.166 290.702 339.675 290.251C339.429 290.026 339.183 289.805 338.952 289.563L339.782 291.568C339.601 289.999 339.48 288.424 339.489 286.844C339.496 285.596 339.6 284.225 339.758 283.373C340.19 281.039 340.607 280.032 341.848 278.181C341.932 278.056 342.269 277.647 341.9 278.1C342.046 277.92 342.196 277.744 342.351 277.571C342.66 277.228 342.986 276.902 343.327 276.592C343.497 276.436 343.675 276.29 343.849 276.139C344.408 275.65 343.543 276.355 343.911 276.082C344.318 275.78 344.736 275.494 345.165 275.225C345.911 274.756 346.687 274.338 347.478 273.951C347.923 273.733 348.373 273.526 348.827 273.326C348.89 273.299 349.657 272.975 349.078 273.215C349.394 273.084 349.71 272.956 350.028 272.83C351.922 272.078 353.893 271.484 355.576 270.301C357.425 269.002 359.007 267.426 360.41 265.661C363.231 262.113 365.456 258.16 367.362 254.056C368.531 251.539 369.639 248.967 370.544 246.341C371.043 244.894 369.974 243.242 368.564 242.854C367.007 242.426 365.578 243.381 365.078 244.834C364.7 245.929 364.272 247.009 363.834 248.081C363.734 248.326 363.632 248.57 363.53 248.814C363.378 249.182 363.732 248.346 363.568 248.722C363.51 248.857 363.453 248.993 363.394 249.128C363.127 249.744 362.853 250.358 362.572 250.968C361.939 252.341 361.271 253.698 360.558 255.032C359.795 256.461 358.982 257.865 358.101 259.224C357.187 260.632 356.495 261.585 355.612 262.609C355.148 263.147 354.664 263.668 354.154 264.163C353.909 264.401 353.658 264.633 353.4 264.857C353.274 264.967 353.145 265.074 353.017 265.181C352.763 265.395 353.34 264.96 352.912 265.265C352.398 265.632 351.869 265.952 351.318 266.258C351.186 266.332 351.046 266.389 350.911 266.456C351.436 266.197 351.106 266.379 350.972 266.427C350.557 266.575 350.146 266.736 349.734 266.893C344.336 268.952 338.7 271.541 335.959 276.973C334.306 280.249 333.758 283.932 333.825 287.574C333.865 289.748 333.716 292.476 335.415 294.037C336.254 294.808 337.203 295.491 338.202 296.042C342.796 298.578 348.364 299.205 353.526 299.258C359.295 299.318 365.172 298.575 370.738 297.057C374.989 295.898 379.997 294.218 383.034 290.831C384.342 289.372 385.328 287.518 385.194 285.501C385.018 282.837 383.22 281.111 381.792 279.239C377.364 273.434 374.854 266.705 373.055 259.7C372.317 256.824 371.725 253.911 371.268 250.977C371.183 250.427 371.105 249.876 371.027 249.324C371.144 250.148 371.032 249.359 371.006 249.155C370.971 248.878 370.938 248.6 370.906 248.323C370.828 247.653 370.758 246.982 370.701 246.309C370.68 246.069 370.66 245.828 370.645 245.587C370.552 244.059 369.409 242.753 367.811 242.753C366.348 242.753 364.883 244.052 364.977 245.587Z" fill="black"/>
<path d="M344.771 226.102C344.098 227.472 343.731 228.932 344.302 230.409C344.799 231.695 345.744 232.657 346.867 233.428C348.832 234.777 351.24 235.236 353.43 236.084C354.135 236.357 355.302 236.853 355.625 237.562C355.578 237.429 355.59 237.473 355.661 237.695C355.663 237.535 355.667 237.573 355.672 237.81C355.687 237.53 355.577 238.078 355.672 237.834C355.765 237.735 355.73 237.768 355.568 237.932C355.675 237.853 355.632 237.878 355.438 238.008C355.191 238.164 354.915 238.292 354.647 238.407C352.538 239.311 350.124 239.582 347.907 239.191C346.903 239.014 345.871 239.462 345.583 240.511C345.332 241.424 345.892 242.657 346.902 242.836C349.198 243.241 351.504 243.217 353.775 242.658C355.856 242.146 358.619 241.206 359.292 238.916C359.997 236.519 358.331 234.36 356.317 233.277C354.511 232.305 352.503 231.854 350.601 231.124C349.871 230.843 348.863 230.317 348.319 229.777C348.026 229.486 347.883 229.296 347.806 229.014C347.684 228.569 347.778 228.831 347.78 228.897C347.78 228.909 347.815 228.574 347.79 228.685C347.845 228.438 347.926 228.229 348.034 228.01C348.484 227.094 348.281 225.965 347.356 225.424C346.524 224.937 345.222 225.182 344.771 226.102Z" fill="black"/>
<path d="M865.772 353.153C865.824 353.445 865.823 353.884 865.772 354.017C865.814 353.907 865.545 354.357 865.617 354.27C865.702 354.167 865.226 354.613 865.425 354.46C865.042 354.754 864.805 354.849 864.505 354.952C864.011 355.122 863.497 355.247 862.98 355.326C860.974 355.63 858.732 355.434 856.648 355.803C854.338 356.212 852.049 357.719 851.916 360.269C851.792 362.656 854.105 364.327 855.92 365.433C858.004 366.704 860.325 367.405 862.741 367.665C863.757 367.774 864.63 366.718 864.63 365.775C864.63 364.663 863.76 363.996 862.741 363.886C860.718 363.668 858.544 362.806 856.791 361.474C856.5 361.252 855.963 360.835 855.688 360.455C855.748 360.537 855.666 360.137 855.689 360.473C855.636 360.635 855.64 360.6 855.702 360.369C855.624 360.494 855.643 360.454 855.759 360.25C855.868 360.07 856.09 359.902 856.32 359.798C856.787 359.587 857.432 359.47 857.874 359.409C860.451 359.055 863.13 359.469 865.625 358.556C866.856 358.106 867.954 357.447 868.737 356.372C869.66 355.108 869.677 353.631 869.417 352.148C869.24 351.142 868.009 350.576 867.092 350.828C866.031 351.12 865.595 352.144 865.772 353.153Z" fill="black"/>
<path d="M446.762 527.784C453.682 519.327 490.762 513.548 539.1 510.399C539.12 509.41 539.142 508.423 539.142 507.43C539.142 416.216 456.375 342.272 354.276 342.272C252.177 342.272 169.409 416.216 169.409 507.43C169.409 566.426 204.041 618.188 256.125 647.4C240.603 668.495 218.214 692.469 196.7 692.328C234.293 694.036 280.95 685.715 309.568 667.714C323.885 670.891 338.858 672.588 354.276 672.588C382.424 672.588 409.096 666.958 432.977 656.905C431.65 600.957 435.206 541.908 446.762 527.784Z" fill="#CA3A31"/>
<path d="M820.745 527.784C808.812 509.374 646.277 503.418 539.1 510.399C537.82 575.201 494.772 630.891 432.977 656.905C434.206 708.732 439.626 757.897 446.762 766.223C456.219 777.256 598.053 783.266 704.451 780.415C720.706 813.278 754.185 846.701 784.158 852.426C767.813 827.86 763.658 799.342 763.448 777.553C794.621 775.132 816.472 771.419 820.745 766.223C839.048 743.962 838.059 554.497 820.745 527.784Z" fill="#FFA900"/>
<path d="M539.1 510.399C490.762 513.548 453.681 519.327 446.762 527.784C435.206 541.908 431.649 600.957 432.976 656.905C494.772 630.891 537.82 575.2 539.1 510.399Z" fill="#6966ED"/>
<path d="M659.274 323.059C669.782 314.418 685.552 315.038 698.056 317.446C699.558 317.735 701.115 317.024 701.543 315.466C701.924 314.079 701.074 312.271 699.563 311.98C684.745 309.127 667.525 308.97 655.265 319.05C654.082 320.023 654.257 322.05 655.265 323.059C656.435 324.229 658.087 324.034 659.274 323.059Z" fill="black"/>
<path d="M615.288 633.2C597.745 590.282 596.598 543.782 602.451 498.336C605.419 475.284 609.969 452.427 614.92 429.729C620.019 406.352 625.861 383.127 632.834 360.235C634.587 354.48 636.411 348.746 638.313 343.038C639.016 340.928 640.179 338.684 640.211 336.441C640.245 334.136 640.053 331.805 639.974 329.501L638.933 298.979C638.529 287.168 638.126 275.358 637.723 263.548C637.5 257.007 637.503 250.412 637.052 243.881C636.916 241.915 636.387 240.243 637.577 238.444C639.72 235.208 645.537 235.522 646.841 239.294C647.118 240.094 647.023 241.228 647.102 242.065L647.707 248.487C648.712 259.154 649.717 269.821 650.722 280.487L650.935 282.749C651.279 286.4 656.234 286.385 656.604 282.749C657.97 269.331 659.336 255.913 660.701 242.496C660.923 240.319 660.844 237.66 662.255 235.903C663.078 234.878 664.646 233.772 666.053 233.978C666.193 233.998 666.231 233.948 666.523 234.312C667.629 235.693 667.864 237.95 668.074 239.633C668.875 246.057 668.261 252.672 668.191 259.138C668.108 266.799 668.025 274.459 667.942 282.119C667.907 285.287 672.732 286.007 673.509 282.873C676.828 269.484 680.147 256.094 683.466 242.705C684.089 240.19 684.393 237.203 686.921 235.874C691.264 233.591 694.996 237.856 694.342 241.955C693.204 249.098 691.614 256.198 690.253 263.301C688.938 270.163 687.623 277.024 686.309 283.885C685.626 287.448 690.629 288.892 691.775 285.392C694.351 277.526 696.927 269.66 699.503 261.794C700.986 257.265 702.469 252.736 703.952 248.207C704.217 247.398 704.42 246.522 704.76 245.74C705.393 244.287 706.661 242.953 707.943 241.992C709.107 241.12 711.838 239.502 713.133 239.691C714.77 239.93 715.951 242.495 716.088 243.896C716.187 244.92 715.866 245.79 715.59 246.751C715.388 247.452 715.198 248.157 715.003 248.861C714.038 252.326 713.074 255.792 712.109 259.258C709.108 270.042 706.107 280.826 703.106 291.609C701.076 298.903 699.046 306.196 697.017 313.489C696.488 315.388 698.432 317.814 700.503 316.975C704.16 315.495 707.816 314.016 711.472 312.536C712.942 311.941 714.435 311.194 715.974 310.787C719.411 309.878 722.835 311.881 723.31 315.51C723.851 319.643 720.094 321.629 717.307 323.735C713.314 326.751 709.322 329.768 705.33 332.784C702.447 334.962 699.464 337.052 696.662 339.333C695.411 340.352 695.088 341.359 694.95 342.82C694.604 346.477 694.309 350.141 693.988 353.801C692.55 370.228 691.111 386.655 689.673 403.082C687.838 424.035 686.003 444.987 684.169 465.94C682.712 482.579 681.255 499.218 679.797 515.858L678.768 527.61C678.594 529.598 678.282 531.54 677.501 533.407C676.094 536.771 672.31 541.54 668.08 540.213C663.975 538.926 665.733 533.446 666.628 530.554C669.428 521.504 675.08 513.573 681.085 506.372C686.589 499.772 692.599 493.598 699.009 487.875C711.895 476.371 726.413 466.777 741.777 458.914C757.382 450.927 774.124 444.324 791.179 440.173C800.619 437.874 810.264 437.577 819.935 437.589C828.26 437.599 837.723 438.814 845.356 434.785C851.561 431.511 855.622 425.391 857.951 418.938C860.818 410.991 859.599 403.769 854.405 397.163C849.207 390.553 845.933 381.484 846.181 372.665C846.615 357.246 857.31 342.889 869.342 334.056C880.009 326.224 893.109 322.51 906.29 323.05C917.389 323.505 929.006 326.928 937.784 333.932C944.934 339.636 950.17 348.271 948.073 357.674C946.843 363.187 943.455 368.024 941.125 373.114C938.137 379.639 935.56 386.354 933.346 393.179C928.756 407.328 925.522 422.113 924.675 436.989C923.987 449.079 924.681 462.773 931.268 473.346C932.136 474.739 933.087 475.951 934.19 477.132C934.654 477.63 935.102 478.142 935.542 478.661C935.836 479.007 936.124 479.356 936.409 479.709C936.702 480.072 937.276 480.813 937.079 480.555C947.588 494.354 953.433 511.394 956.177 528.37C958.588 543.292 958.461 558.607 956.747 573.597C954.801 590.619 950.904 607.519 943.845 623.18C930.692 652.363 908.292 677.283 880.378 693.023C848.074 711.239 810.123 715.549 773.664 712.404C764.222 711.59 754.832 710.272 745.513 708.557C736.355 706.871 727.022 705.079 718.117 702.333C709.544 699.689 700.271 700.476 692.384 704.835C690.386 705.939 688.501 707.277 686.595 708.528C672.849 717.547 659.294 726.969 645.312 735.617C640.029 738.884 632.946 733.915 635.731 727.777C636.779 725.468 639.423 724.198 641.448 722.87C649.337 717.693 657.227 712.516 665.116 707.338C670.24 703.977 675.363 700.615 680.486 697.253C683.063 695.562 681.505 691.066 678.302 692.072C667.413 695.493 656.524 698.914 645.635 702.334L629.962 707.257C627.345 708.08 624.663 708.264 622.409 706.307C618.39 702.818 620.545 697.288 624.829 695.467C630.478 693.067 636.23 690.885 641.926 688.596C645.284 687.246 644.062 682.458 640.419 683.13C635.504 684.036 630.589 684.942 625.674 685.848C623.917 686.173 622.029 686.741 620.227 686.729C614.654 686.691 611.994 680.086 615.581 675.987C617.06 674.298 616.381 672.019 614.331 671.25C608.864 669.198 608.713 661.271 614.283 659.232C615.232 658.885 616.296 658.743 617.283 658.541C622.079 657.563 626.875 656.584 631.67 655.605C645.314 652.82 658.957 650.035 672.601 647.25C676.056 646.545 679.512 645.839 682.967 645.134C685.12 644.694 685.621 641.84 684.218 640.396C680.77 636.85 677.29 633.333 673.874 629.755C671.269 627.026 670.205 623.048 672.325 619.658C674.981 615.411 679.973 615.317 683.853 617.723C695.176 624.744 706.923 631.052 719.134 636.393C751.709 650.643 790.875 660.191 824.875 645.078C844.271 636.456 860.628 619.625 868.87 600.1C870.852 595.404 872.599 590.561 873.889 585.629C875.123 580.914 876.886 574.162 873.895 569.745C870.407 564.595 862.919 567.606 859.15 570.762C854.01 575.065 850.81 581.677 848.18 587.697C842.059 601.705 838.329 616.58 834.535 631.342C823.876 672.812 812.271 716.872 784.84 750.821C781.453 755.012 777.836 759.004 774.015 762.803C771.425 765.379 775.433 769.388 778.024 766.812C809.243 735.766 823.714 692.944 835.057 651.437C839.245 636.114 842.738 620.557 847.602 605.427C850.027 597.881 852.726 590.309 856.597 583.368C858.99 579.076 862.63 573.01 868.184 572.642C868.94 572.592 869.071 572.668 869.276 572.975C869.239 572.921 869.653 574.072 869.715 574.65C869.988 577.191 869.44 579.839 868.873 582.301C867.794 586.984 866.198 591.548 864.45 596.02C856.899 615.333 840.957 631.788 822.013 640.183C788.92 654.848 749.807 644.198 718.498 629.937C711.89 626.928 705.407 623.642 699.06 620.116C694.254 617.446 689.653 614.034 684.7 611.678C675.65 607.373 664.821 614.545 665.565 624.637C666.054 631.267 671.629 635.578 675.936 640.009C677.36 641.474 678.785 642.939 680.21 644.405L681.46 639.668C659.075 644.237 636.609 648.515 614.287 653.379C610.045 654.303 606.533 657.125 605.076 661.288C602.782 667.846 606.586 674.375 612.823 676.716L611.573 671.979C607.356 676.797 607.001 683.887 611.527 688.679C614.787 692.132 619.23 692.767 623.686 691.959C629.769 690.856 635.846 689.717 641.926 688.596L640.419 683.13C634.74 685.412 629.07 687.718 623.382 689.977C618.486 691.92 614.826 695.662 614.63 701.205C614.409 707.478 619.249 712.788 625.405 713.489C630.25 714.04 635.833 711.353 640.349 709.934C648.256 707.45 656.163 704.966 664.07 702.482C669.316 700.834 674.562 699.186 679.808 697.538L677.624 692.358C664.743 700.81 651.862 709.263 638.982 717.715C637.286 718.828 635.465 719.865 633.892 721.155C628.42 725.644 628.057 734.235 633.193 739.145C637.318 743.09 643.482 743.43 648.234 740.471C650.256 739.212 652.223 737.854 654.215 736.547C667.245 727.997 680.186 719.29 693.314 710.89C700.876 706.052 709.027 705.592 717.461 708.093C726.261 710.702 735.448 712.46 744.469 714.107C762.407 717.383 780.658 719.285 798.907 719.012C833.261 718.497 867.683 709.851 895.989 689.842C921.209 672.014 940.908 646.823 952.098 618.036C958.144 602.481 961.327 585.869 962.861 569.289C964.188 554.947 963.905 540.46 961.54 526.239C958.747 509.435 952.862 492.467 942.685 478.644C941.016 476.377 939.157 474.351 937.33 472.23C937.627 472.576 937.261 472.117 937.16 471.982C936.749 471.437 936.381 470.847 936.026 470.265C935.336 469.136 934.718 467.959 934.176 466.752C933.078 464.305 932.312 461.697 931.717 459.087C930.331 453.008 930.031 446.72 930.196 440.503C930.579 426.049 933.584 411.67 937.806 397.879C939.828 391.272 942.16 384.738 944.931 378.406C947.309 372.972 950.636 367.862 952.636 362.284C960.302 340.911 939.381 324.555 921.06 319.62C909.285 316.448 896.526 316.532 884.841 320.066C870.668 324.353 858.896 333.715 850.296 345.654C842.597 356.341 838.691 369.423 841.433 382.487C842.372 386.964 844.087 391.322 846.354 395.293C848.761 399.511 852.712 402.999 853.712 407.882C855.076 414.542 851.067 422.756 846.249 427.241C840.22 432.854 831.848 431.941 824.21 431.93C814.967 431.916 805.742 431.882 796.585 433.325C787.874 434.697 779.353 437.489 771.037 440.37C739.553 451.276 709.737 468.247 686.306 492.161C680.279 498.313 674.56 504.9 669.689 512.013C665.108 518.702 660.564 526.856 659.882 535.098C659.199 543.34 667.035 548.325 674.412 544.849C680.537 541.962 683.686 535.207 684.334 528.777C685.176 520.429 685.799 512.053 686.53 503.695L691.307 449.15C693.063 429.098 694.819 409.047 696.575 388.995C697.774 375.303 698.973 361.61 700.172 347.918C700.346 345.931 700.52 343.944 700.694 341.956L699.29 344.404C706.653 338.84 714.017 333.277 721.381 327.713C725.61 324.517 729.583 321.102 728.963 315.135C728.134 307.163 720.073 303.057 712.899 305.882C708.247 307.713 703.629 309.634 698.995 311.509C700.158 312.671 701.32 313.834 702.482 314.996C707.532 296.85 712.582 278.705 717.632 260.559L720.624 249.805C721.89 245.256 722.388 240.726 718.806 236.935C717.478 235.528 715.531 234.111 713.539 234.12C711.183 234.131 708.804 234.953 706.746 236.047C703.447 237.801 700.592 240.741 699.282 244.267C698.107 247.427 697.175 250.701 696.126 253.905C692.853 263.899 689.581 273.892 686.309 283.885L691.775 285.392C694.474 271.307 697.399 257.246 699.873 243.12C700.808 237.781 698.369 232.339 693.132 230.323C686.591 227.805 680.222 232.153 678.652 238.562C677.01 245.267 675.331 251.963 673.67 258.663C671.794 266.231 669.918 273.799 668.042 281.366C669.898 281.617 671.754 281.868 673.61 282.119C673.69 274.742 673.77 267.365 673.85 259.987C673.93 252.627 674.615 245.1 673.5 237.803C672.883 233.759 671.13 228.47 666.225 228.317C659.754 228.115 655.847 233.709 655.333 239.537C654.729 246.377 653.942 253.204 653.247 260.035C652.476 267.606 651.706 275.178 650.935 282.749H656.604C655.748 273.666 654.892 264.582 654.036 255.498L652.675 241.055C652.125 235.21 647.778 230.268 641.509 230.461C637.196 230.594 633.313 233.439 631.779 237.442C630.928 239.659 631.161 241.821 631.383 243.881C631.628 246.163 631.542 248.532 631.62 250.825C631.981 261.4 632.342 271.975 632.703 282.55L633.943 318.904L634.378 331.634C634.433 333.252 634.851 335.297 634.558 336.901C634.419 337.659 633.767 338.786 633.5 339.577C633.007 341.042 632.519 342.509 632.036 343.977C631.069 346.916 630.123 349.861 629.196 352.813C627.341 358.723 625.563 364.657 623.856 370.612C620.439 382.533 617.307 394.535 614.407 406.592C608.728 430.196 603.718 454.021 599.773 477.98C592.16 524.222 589.556 572.278 603.653 617.596C605.455 623.389 607.525 629.091 609.821 634.707C611.182 638.038 616.669 636.581 615.288 633.2Z" fill="black"/>
<path d="M627.439 693.005C632.636 691.439 637.833 689.873 643.031 688.306C651.265 685.825 659.5 683.343 667.735 680.861C669.63 680.29 671.524 679.719 673.419 679.148C676.903 678.098 675.419 672.625 671.912 673.682C666.715 675.248 661.518 676.815 656.321 678.381C648.086 680.863 639.851 683.344 631.616 685.826C629.721 686.397 627.827 686.968 625.932 687.539C622.448 688.589 623.933 694.062 627.439 693.005Z" fill="black"/>
<path d="M614.212 676.629C619.9 675.278 625.587 673.927 631.275 672.576C640.298 670.433 649.321 668.29 658.344 666.147C660.43 665.652 662.515 665.157 664.601 664.661C668.149 663.819 666.647 658.351 663.094 659.195C657.406 660.546 651.719 661.897 646.031 663.248C637.008 665.391 627.985 667.534 618.962 669.677C616.876 670.172 614.791 670.667 612.705 671.162C609.157 672.005 610.659 677.473 614.212 676.629Z" fill="black"/>
<path d="M782.077 491.846C761.389 508.724 738.229 522.235 717.315 538.814C712.101 542.948 707.178 547.423 701.987 551.584C697.028 555.559 691.873 559.288 686.595 562.827C675.752 570.098 664.366 576.543 652.676 582.345C640.901 588.188 628.802 593.621 616.355 597.876C603.466 602.282 589.919 605.256 576.231 604.304C554.542 602.797 535.21 590.643 521.076 574.641C504.856 556.277 496.214 533.423 492.167 509.504C489.92 496.224 488.872 482.784 487.464 469.401C486.182 457.216 484.131 445.195 482.276 433.094C479.286 413.577 476.262 392.485 462.351 377.357C446.402 360.014 419.535 354.865 397.591 362.32C392.224 364.143 386.613 367.031 384.01 372.356C381.752 376.973 381.825 383.291 386.052 386.793C389.566 389.704 395.435 389.926 398.794 386.614C402.626 382.836 401.206 377.119 397.669 373.727C393.698 369.921 388.237 368.497 382.938 367.765C377.86 367.064 372.789 367.183 367.731 367.992C357.571 369.617 347.876 374.347 340.285 381.28C336.567 384.675 333.394 388.673 330.896 393.041C329.082 396.213 333.978 399.072 335.791 395.902C345.411 379.078 366.46 369.655 385.432 373.945C387.833 374.488 390.139 375.182 392.199 376.572C393.738 377.61 396.049 379.572 395.349 381.687C394.869 383.14 393.178 383.524 391.802 383.345C389.734 383.077 388.461 381.487 388.197 379.46C387.482 373.963 392.683 370.31 397.126 368.506C402.498 366.324 408.426 365.161 414.196 364.803C425.477 364.102 436.946 366.493 446.772 372.153C455.327 377.081 461.918 384.358 466.341 393.153C470.528 401.478 472.721 410.691 474.403 419.806C476.231 429.711 477.684 439.709 479.277 449.654C483.314 474.862 483.466 500.653 489.705 525.508C495.104 547.014 505.514 567.175 521.154 583.028C535.472 597.542 554.062 607.942 574.569 609.838C600.075 612.197 625.053 601.581 647.663 591.029C669.953 580.626 691.415 568.027 710.233 552.103C719.967 543.866 729.923 536.103 740.376 528.79C750.651 521.602 761.096 514.657 771.232 507.272C776.28 503.594 781.245 499.803 786.085 495.855C788.913 493.548 784.881 489.558 782.077 491.846Z" fill="black"/>
<path d="M858.989 413.335C856.433 418.479 870.474 415.249 875.901 413.363C865.64 409.372 854.155 400.053 847.768 391.086C847.768 391.086 861.392 408.5 858.989 413.335Z" fill="black"/>
<path d="M856.542 411.905C855.493 414.138 855.665 416.598 857.922 418.012C859.538 419.025 861.733 419.022 863.569 418.896C867.989 418.593 872.47 417.536 876.654 416.096C879.428 415.141 879.243 411.651 876.654 410.63C871.453 408.579 866.568 405.439 862.22 401.953C857.762 398.379 853.557 394.307 850.216 389.655C848.732 390.8 847.248 391.945 845.764 393.09C846.058 393.466 845.283 392.453 845.499 392.747C845.639 392.936 845.785 393.12 845.927 393.308C846.42 393.958 846.905 394.614 847.384 395.275C848.859 397.304 850.281 399.373 851.622 401.494C853.081 403.8 854.454 406.171 855.559 408.67C855.272 408.021 855.654 408.917 855.7 409.037C855.801 409.303 855.898 409.57 855.987 409.84C856.149 410.333 856.268 410.831 856.392 411.334C856.58 412.099 856.443 410.988 856.416 411.425C856.404 411.615 856.419 411.854 856.438 412.044C856.511 412.77 856.538 411.564 856.461 411.985C856.415 412.239 856.137 412.779 856.542 411.905C855.899 413.293 856.15 414.959 857.559 415.783C858.784 416.499 860.791 416.161 861.437 414.766C863.268 410.814 860.812 406.186 858.927 402.712C856.878 398.935 854.444 395.361 851.904 391.899C851.207 390.95 850.498 390.01 849.773 389.082C847.81 386.571 843.443 389.901 845.321 392.517C849.044 397.699 853.551 402.266 858.545 406.228C863.628 410.26 869.098 413.711 875.147 416.096V410.63C873.631 411.152 872.086 411.591 870.53 411.98C869.619 412.207 868.703 412.417 867.783 412.604C866.97 412.769 865.592 413.01 865.129 413.074C865.461 413.028 864.695 413.125 864.711 413.123C864.497 413.147 864.283 413.169 864.069 413.188C863.662 413.224 863.255 413.252 862.848 413.265C862.477 413.278 862.105 413.281 861.734 413.265C861.565 413.258 861.395 413.237 861.225 413.233C860.692 413.22 861.647 413.337 861.33 413.249C861.158 413.201 860.361 412.975 860.818 413.156C861.272 413.335 860.887 413.184 860.783 413.118C860.407 412.877 861.253 413.512 861.023 413.293C861.37 413.624 861.522 414.18 861.518 414.452C861.523 414.119 861.386 415.208 861.478 414.726C861.516 414.53 861.762 414.075 861.437 414.766C862.088 413.381 861.824 411.709 860.421 410.888C859.19 410.168 857.196 410.513 856.542 411.905Z" fill="black"/>
<path d="M445.274 480.09C430.543 511.955 405.719 539.317 373.558 554.075C363.025 558.908 351.679 561.368 341.084 566.062C336.366 568.152 331.671 570.505 327.603 573.714C324.626 576.062 321.425 579.559 322.402 583.685C323.671 589.045 330.58 591.067 335.146 592.318C339.69 593.563 344.243 594.777 348.791 596.006L347.541 591.269C338.516 599.652 329.491 608.035 320.466 616.419C314.482 621.977 308.498 627.536 302.515 633.094C299.502 635.893 295.444 638.764 293.146 642.242C288.982 648.545 292.761 657.425 300.126 658.909C305.883 660.068 309.723 656.295 313.784 652.954L309.776 648.945C304.926 653.614 298.087 658.58 300.758 666.322C302.473 671.292 307.501 674.396 312.701 673.66C315.386 673.28 317.449 671.875 319.434 670.134C328.431 662.245 337.428 654.356 346.425 646.467C349.603 643.68 352.78 640.894 355.958 638.108L351.95 634.099C340.76 645.651 329.571 657.203 318.382 668.754C315.996 671.217 313.95 673.542 313.619 677.22C312.885 685.381 321.511 691.381 328.931 688.141C331.712 686.928 333.699 684.353 335.738 682.178C338.875 678.833 342.012 675.488 345.149 672.142C351.061 665.836 356.974 659.531 362.887 653.225L358.435 649.79C351.485 661.23 344.535 672.67 337.586 684.11C336.654 685.644 335.669 687.158 334.785 688.72C332.133 693.406 332.929 699.372 337.172 702.863C342.322 707.101 349.784 705.557 353.444 700.203C357.844 693.767 361.764 687.004 366.213 680.588C384.178 654.685 405.206 631.003 427.931 609.196C451.417 586.659 476.762 566.245 502.87 546.844C521.33 533.125 541.077 518.488 549.262 496.064C559.179 468.891 549.586 438.309 535.551 414.461C528.308 402.153 519.483 390.785 510.49 379.717C501.998 369.266 492.99 359.203 483.144 350.003C463.793 331.922 440.924 317.272 414.948 311.033C396.985 306.718 378.416 308.195 360.392 304.454C353.905 303.107 345.957 301.168 341.558 295.84C337.105 290.446 340.381 282.799 344.016 277.17C349.516 268.652 357.563 262.632 363.803 254.781C371.054 245.659 372.646 234.562 371.791 223.173C370.876 210.993 367.363 199.049 359.186 189.745C353.087 182.805 344.758 177.987 335.846 175.678C317.643 170.961 297.196 176.195 283.605 189.212C275.114 197.343 270.134 208.165 267.896 219.611C264.788 235.51 266.886 251.626 268.049 267.605C269.062 281.527 270.252 298.026 262.949 310.58C257.585 319.8 248.187 325.227 239.347 330.627C229.133 336.866 219.472 343.71 212.763 353.848C205.449 364.901 202.747 378.272 203.169 391.38C203.598 404.697 206.893 417.725 211.051 430.318C214.952 442.131 219.265 453.833 224.559 465.099C230.035 476.751 236.643 488.098 245.377 497.629C249.401 502.019 253.944 505.988 258.982 509.179C262.913 511.67 267.431 514.139 272.145 514.565C276.795 514.985 280.402 512.211 281.118 507.58C282.015 501.776 279.884 495.765 277.601 490.525C272.398 478.583 264.291 468.141 257.739 456.943C249.072 442.13 239.967 427.735 229.846 413.868C219.782 400.08 209.329 386.575 198.562 373.329C188.158 360.527 177.487 347.927 166.496 335.624L166.939 339.058C171.09 330.725 175.241 322.391 179.392 314.057C180.526 311.78 181.384 309.454 181.284 306.852C181.108 302.295 178.373 298.036 174.255 296.055C170.429 294.214 165.762 294.387 162.146 296.667C160.164 297.917 158.847 299.687 157.427 301.484C154.063 305.74 150.699 309.996 147.335 314.252L152.174 316.257C149.972 299.331 147.77 282.406 145.568 265.481C145.216 262.772 144.864 260.063 144.511 257.354C143.705 251.174 139.062 246.173 132.413 247.037C126.342 247.825 122.665 253.274 123.181 259.15C123.515 262.953 123.904 266.753 124.265 270.554C125.155 279.909 126.045 289.265 126.935 298.62L132.502 297.867C129.922 290.969 127.342 284.071 124.761 277.173C123.123 272.794 121.485 268.415 119.847 264.037C118.786 261.199 117.919 257.882 115.817 255.635C113.06 252.688 108.583 251.541 104.751 252.811C100.402 254.252 97.8857 257.977 97.3567 262.39L102.195 260.386C96.5985 254.662 86.7763 256.561 84.1498 264.284C82.9803 267.723 84.1049 270.85 85.1678 274.076C88.0829 282.925 90.9979 291.773 93.913 300.622C94.795 303.299 95.677 305.977 96.559 308.654L102.025 307.147C97.8735 296.857 93.7217 286.566 89.5698 276.276C87.6226 271.45 86.1766 266.158 80.6426 264.292C71.8349 261.321 64.2361 270.501 67.5088 278.721C75.6112 299.07 83.9004 319.348 92.0957 339.66C97.2824 352.516 103.206 365.108 109.098 377.649C123.59 408.497 139.175 438.88 156.421 468.285C165.998 484.614 176.104 500.657 187.111 516.065C197.025 529.943 207.646 543.457 219.731 555.523C222.363 558.15 225.073 560.699 227.866 563.154C230.596 565.555 234.621 561.56 231.874 559.146C219.964 548.676 209.54 536.543 199.938 523.957C188.994 509.613 179.01 494.548 169.569 479.18C151.477 449.729 135.318 419.091 120.28 387.981C112.52 371.927 105.033 355.731 98.0323 339.33C97.7622 338.697 98.3619 340.157 98.0748 339.424C97.6809 338.419 97.2666 337.421 96.8626 336.42C94.9726 331.735 93.0825 327.05 91.1925 322.366C86.2336 310.075 81.2746 297.784 76.3157 285.493C75.1709 282.656 73.9621 279.836 72.8785 276.974C71.6211 273.654 72.9906 269.636 77.0568 269.436C79.6414 269.308 81.3562 270.974 82.2104 273.091C86.594 283.955 90.9775 294.82 95.3611 305.685C95.7604 306.675 96.1597 307.664 96.559 308.654C97.8872 311.946 103.193 310.69 102.025 307.147C97.9552 294.792 93.8102 282.459 89.8143 270.08C89.3536 268.653 89.0271 267.27 89.6162 265.791C91.0789 262.119 95.6065 261.755 98.1869 264.394C100.068 266.318 102.75 264.688 103.026 262.39C103.698 256.775 110.942 256.86 112.876 261.519C113.842 263.848 114.648 266.258 115.531 268.618C118.557 276.707 121.582 284.795 124.608 292.883C125.417 295.047 126.226 297.21 127.036 299.374C128.066 302.127 132.929 302.045 132.603 298.62C131.918 291.412 131.232 284.204 130.547 276.996C130.102 272.317 129.657 267.638 129.212 262.959C128.974 260.458 128.096 256.973 129.624 254.767C131.577 251.946 135.858 251.893 137.876 254.676C138.551 255.608 138.737 256.646 138.892 257.736C139.282 260.493 139.61 263.26 139.969 266.02C141.238 275.774 142.507 285.528 143.776 295.281C144.686 302.273 145.595 309.265 146.505 316.257C146.775 318.336 149.621 320.44 151.343 318.261C153.917 315.004 156.491 311.748 159.065 308.491C161.713 305.141 164.546 299.921 169.518 300.475C173.282 300.893 176.1 304.47 175.581 308.239C175.386 309.653 174.641 310.906 174.016 312.16C171.822 316.566 169.628 320.972 167.434 325.377C165.637 328.984 163.841 332.591 162.045 336.197C161.45 337.391 161.601 338.639 162.488 339.632C184.415 364.178 205.254 389.773 224.673 416.349C234.429 429.702 243.288 443.516 251.656 457.777C258.08 468.723 265.778 479.044 271.354 490.464C273.632 495.129 276.315 501.084 275.589 506.431C275.039 510.477 270.653 508.747 267.99 507.616C257.998 503.374 249.821 495.063 243.499 486.449C236.056 476.309 230.325 464.928 225.514 453.338C220.92 442.268 216.829 430.856 213.582 419.315C210.146 407.106 207.924 394.346 209.112 381.635C210.312 368.792 215.743 356.836 225.089 347.883C232.798 340.499 242.412 335.768 251.21 329.885C260.009 324.002 267.39 316.699 271 306.539C275.894 292.768 274.502 277.001 273.337 262.728C272.077 247.306 270.395 231.472 274.474 216.312C277.213 206.131 282.456 197.127 290.724 190.483C297.526 185.017 305.86 181.6 314.443 180.224C331.597 177.472 350.039 184.078 359.216 199.317C362.177 204.234 363.998 209.659 365.088 215.281C366.422 222.157 366.945 229.655 365.831 236.608C364.348 245.861 359.019 252.113 352.571 258.488C342.822 268.127 324.454 287.985 338.948 301.298C344.279 306.194 351.731 308.417 358.659 309.874C366.638 311.551 374.808 312.269 382.933 312.79C392.206 313.385 401.386 313.874 410.51 315.833C423.078 318.532 435.108 323.22 446.3 329.526C468.63 342.107 487.107 360.42 503.402 379.982C521.408 401.597 539.111 425.218 545.364 453.194C548.196 465.861 548.614 479.361 544.713 491.849C541.469 502.232 535.217 511.242 527.687 518.984C519.633 527.263 510.364 534.245 501.12 541.123C489.281 549.933 477.532 558.85 466.069 568.149C441.635 587.971 418.34 609.274 397.237 632.635C387.164 643.786 377.604 655.401 368.664 667.479C364.092 673.654 359.692 679.957 355.482 686.384C353.414 689.541 351.393 692.727 349.42 695.944C347.917 698.394 345.684 700.409 342.584 699.474C338.738 698.315 338.148 694.162 339.965 691.113C341.156 689.113 342.382 687.134 343.59 685.145C347.762 678.278 351.933 671.411 356.105 664.545C358.513 660.58 360.922 656.616 363.33 652.652C364.986 649.926 361.101 646.847 358.878 649.217C349.018 659.733 339.13 670.224 329.296 680.766C328.366 681.764 327.48 682.747 326.123 683.177C322.915 684.194 319.522 681.876 319.249 678.535C319.018 675.714 320.997 674.201 322.748 672.394C328.841 666.103 334.935 659.812 341.029 653.521C346.006 648.384 350.982 643.245 355.958 638.108C358.521 635.462 354.675 631.71 351.95 634.099C345.198 640.02 338.446 645.941 331.694 651.862C327.483 655.554 323.273 659.246 319.062 662.938C316.647 665.056 313.643 668.743 310.088 668.03C305.326 667.074 304.889 661.58 307.909 658.611C309.847 656.705 311.826 654.839 313.784 652.954C316.461 650.376 312.541 646.67 309.776 648.945C307.148 651.107 304.177 654.604 300.4 653.109C296.042 651.384 296.476 646.449 299.393 643.727C302.446 640.879 305.512 638.044 308.571 635.202C319.871 624.705 331.171 614.208 342.472 603.71C345.498 600.9 348.524 598.089 351.55 595.278C353.124 593.815 352.304 591.082 350.299 590.54C346.221 589.438 342.144 588.336 338.066 587.234C336.092 586.701 334.098 586.195 332.199 585.423C330.441 584.708 328.573 583.612 327.944 582.5C328.219 582.987 327.913 582.227 327.845 582.067C328.052 582.553 328.041 581.735 327.856 582.216C328.139 581.48 327.957 581.519 328.598 580.594C329.257 579.642 330.954 578.184 332.262 577.266C336.289 574.437 340.813 572.278 345.328 570.356C355.745 565.921 366.787 563.458 377.089 558.661C392.266 551.593 406.06 541.608 417.849 529.745C431.287 516.224 442.178 500.24 450.169 482.952C451.69 479.662 446.805 476.779 445.274 480.09Z" fill="black"/>
<path d="M309.487 656.505C313.651 652.877 317.815 649.25 321.979 645.622C328.623 639.834 335.266 634.046 341.91 628.259L346.51 624.251C347.665 623.245 347.54 621.273 346.51 620.243C345.364 619.097 343.659 619.234 342.502 620.243C338.338 623.87 334.173 627.498 330.009 631.126C323.366 636.913 316.722 642.701 310.079 648.489C308.545 649.825 307.012 651.161 305.478 652.497C304.324 653.503 304.448 655.475 305.478 656.505C306.624 657.651 308.329 657.514 309.487 656.505Z" fill="black"/>
<path d="M97.4088 262.844C98.9798 267.494 100.551 272.144 102.122 276.794C104.612 284.164 107.101 291.534 109.591 298.903C110.167 300.608 110.743 302.313 111.319 304.018C111.809 305.468 113.27 306.42 114.806 305.998C116.22 305.609 117.278 303.968 116.786 302.511C115.215 297.861 113.644 293.211 112.073 288.561C109.583 281.191 107.093 273.822 104.603 266.452C104.027 264.747 103.451 263.042 102.875 261.337C102.385 259.887 100.925 258.935 99.3885 259.357C97.9744 259.746 96.9168 261.387 97.4088 262.844Z" fill="black"/>
<path d="M114.445 330.865C124.42 323.643 136.39 319.588 148.715 319.427C152.359 319.38 152.37 313.711 148.715 313.758C135.461 313.931 122.33 318.19 111.584 325.97C110.346 326.866 109.741 328.435 110.567 329.848C111.282 331.07 113.198 331.767 114.445 330.865Z" fill="black"/>
<path d="M331.446 282.598C325.42 281.26 319.862 277.835 316.003 273.011C327.606 273.535 336.948 277.081 352.694 266.373C352.694 266.373 338.207 277.71 337.762 283.015C337.213 285.148 336.081 284.934 335.174 284.311C334.035 283.527 332.796 282.898 331.446 282.598Z" fill="black"/>
<path d="M332.199 279.865C326.555 278.568 321.659 275.501 318.007 271.007L316.003 275.846C321.701 276.116 327.378 277.149 333.095 276.716C340.779 276.135 347.783 273.098 354.125 268.82L350.69 264.369C348.441 266.131 346.276 268.012 344.184 269.956C341.06 272.857 337.494 276.147 335.72 280.101C335.472 280.654 335.225 281.223 335.095 281.819C335.079 281.893 335.069 281.968 335.055 282.043C335.006 282.31 335.039 282.826 334.927 282.764C334.564 282.561 336.286 281.905 336.319 281.904C336.664 281.887 337.187 282.27 336.697 281.923C336.274 281.623 335.826 281.352 335.37 281.106C334.372 280.568 333.301 280.138 332.199 279.865C328.659 278.987 327.148 284.452 330.693 285.331C332.324 285.736 333.502 286.937 335.082 287.386C336.996 287.93 338.951 287.07 339.888 285.319C340.112 284.901 340.311 284.426 340.436 283.967C340.522 283.652 340.537 283.335 340.596 283.015C340.393 284.117 340.514 283.436 340.561 283.326C340.62 283.19 340.653 283.003 340.686 282.858C340.835 282.202 340.524 283.075 340.728 282.708C341.203 281.851 341.677 281.036 342.25 280.238C342.62 279.723 342.173 280.316 342.482 279.936C342.643 279.738 342.804 279.539 342.969 279.343C343.368 278.868 343.779 278.404 344.198 277.947C345.07 276.997 345.976 276.081 346.902 275.185C348.525 273.616 350.209 272.111 351.93 270.651C352.84 269.879 353.759 269.113 354.698 268.377C355.795 267.518 355.709 265.645 354.92 264.655C354.091 263.614 352.454 263.122 351.264 263.925C348.089 266.067 344.734 268.018 341.111 269.298C338.15 270.344 335.323 270.921 332.495 271.088C326.977 271.414 321.502 270.438 316.003 270.177C314.896 270.124 313.811 270.929 313.413 271.919C312.957 273.053 313.248 274.092 313.999 275.016C318.204 280.19 324.203 283.84 330.693 285.331C334.243 286.147 335.759 280.683 332.199 279.865Z" fill="black"/>
<path d="M377.885 190.946C376.232 175.112 334.256 128.807 278.728 155.91C223.199 183.013 222.538 266.305 246.336 286.798C274.761 304.646 289.078 298.496 296.006 287.788C300.244 281.238 296.79 263.78 293.468 251.21C291.703 244.527 289.019 238.143 285.722 232.068C282.895 226.86 280.598 218.598 288.448 211.575C301.008 200.337 305.831 224.659 309.136 224.659C307.814 219.371 313.268 202.819 321.201 201.497C321.201 201.497 380.402 215.037 377.885 190.946Z" fill="black"/>
<path d="M380.72 190.946C380.227 186.454 378.082 182.283 375.636 178.547C372.252 173.379 368.055 168.72 363.437 164.629C351.507 154.059 336.67 147.037 320.796 145.197C302.131 143.033 282.499 148.712 267.172 159.416C254.411 168.328 244.613 180.884 238.291 195.053C232.204 208.694 228.996 223.562 228.652 238.489C228.361 251.099 230.027 264.141 235.184 275.742C237.173 280.217 239.837 284.548 243.395 287.951C245.142 289.622 247.335 290.763 249.425 291.951C251.898 293.357 254.427 294.667 257.02 295.838C261.284 297.762 265.715 299.408 270.331 300.25C276.998 301.466 284.048 301.102 289.999 297.576C292.379 296.166 294.53 294.307 296.282 292.168C298.564 289.382 299.998 286.545 300.488 282.938C301.141 278.144 300.659 273.301 299.995 268.535C299.264 263.286 298.139 258.094 296.847 252.958C295.374 247.105 293.419 241.453 290.866 235.98C289.758 233.606 288.423 231.343 287.335 228.963C287.307 228.9 287.121 228.471 287.289 228.871C287.197 228.652 287.112 228.431 287.028 228.209C286.875 227.801 286.734 227.39 286.606 226.973C286.461 226.501 286.333 226.023 286.224 225.541C286.087 224.929 286.012 224.461 285.987 224.202C285.559 219.752 287.45 215.96 291.129 213.001C290.811 213.257 291.167 212.972 291.218 212.934C291.43 212.781 291.645 212.632 291.866 212.491C292.172 212.295 292.486 212.112 292.809 211.946C292.977 211.86 293.147 211.779 293.32 211.701C292.742 211.96 293.115 211.779 293.242 211.749C293.624 211.659 294.018 211.542 294.399 211.441C293.625 211.647 294.453 211.443 294.749 211.444C294.863 211.444 294.993 211.464 295.105 211.455C295.688 211.403 294.597 211.344 294.961 211.423C295.215 211.478 295.469 211.524 295.719 211.599C295.885 211.649 296.045 211.716 296.21 211.768C295.854 211.656 295.786 211.557 296.167 211.769C296.426 211.912 296.684 212.052 296.932 212.215C297.031 212.281 297.127 212.358 297.228 212.42C297.746 212.739 296.864 212.105 297.162 212.368C297.664 212.811 298.149 213.257 298.596 213.757C298.817 214.004 299.021 214.263 299.235 214.515C299.329 214.626 299.54 214.943 299.161 214.419C299.261 214.557 299.363 214.692 299.462 214.83C299.884 215.417 300.279 216.022 300.657 216.638C301.996 218.821 303.077 221.143 304.321 223.378C305.383 225.287 306.718 227.387 309.136 227.494C311.046 227.578 312.271 225.621 311.869 223.906C311.846 223.807 311.718 223.133 311.805 223.666C311.893 224.208 311.794 223.454 311.789 223.351C311.767 222.959 311.769 222.566 311.785 222.174C311.806 221.657 311.855 221.142 311.919 220.628C311.831 221.336 311.942 220.519 311.958 220.428C312.002 220.181 312.045 219.933 312.093 219.686C312.319 218.535 312.614 217.398 312.961 216.278C313.159 215.638 313.375 215.004 313.608 214.376C313.709 214.103 313.814 213.831 313.922 213.56C313.994 213.379 314.067 213.198 314.142 213.018C314.067 213.2 314.068 213.202 314.146 213.021C314.657 211.869 315.224 210.742 315.868 209.657C316.18 209.132 316.509 208.617 316.859 208.116C317.016 207.891 317.176 207.666 317.343 207.449C317.034 207.851 317.592 207.16 317.658 207.084C318.022 206.662 318.406 206.255 318.814 205.876C318.995 205.707 319.181 205.545 319.371 205.386C319.788 205.037 319.065 205.546 319.659 205.184C320.087 204.923 320.5 204.666 320.957 204.458C320.34 204.738 320.951 204.469 321.107 204.431C321.39 204.362 321.666 204.283 321.954 204.23H320.447C327.369 205.811 334.469 206.839 341.529 207.522C347.16 208.067 352.852 208.341 358.502 207.94C363.66 207.575 369.096 206.76 373.663 204.177C378.502 201.44 381.268 196.532 380.72 190.946C380.57 189.422 379.524 188.111 377.885 188.111C376.469 188.111 374.901 189.413 375.051 190.946C375.121 191.661 375.15 192.378 375.11 193.096C375.1 193.263 375.076 193.432 375.071 193.6C375.052 194.2 375.233 192.924 375.087 193.498C374.997 193.857 374.951 194.226 374.852 194.584C374.784 194.832 374.692 195.072 374.619 195.318C374.557 195.527 374.291 195.967 374.68 195.204C374.612 195.337 374.561 195.479 374.489 195.611C374.347 195.874 374.212 196.137 374.054 196.391C373.9 196.64 373.164 197.47 373.809 196.786C373.428 197.189 373.083 197.612 372.67 197.986C372.492 198.148 371.638 198.77 372.411 198.232C372.107 198.443 371.812 198.665 371.499 198.864C370.942 199.219 370.36 199.536 369.764 199.822C369.506 199.946 369.244 200.061 368.982 200.176C369.819 199.807 368.572 200.322 368.34 200.404C366.91 200.912 365.435 201.288 363.946 201.581C363.149 201.737 362.348 201.863 361.545 201.981C362.379 201.859 361.061 202.037 360.847 202.061C360.388 202.111 359.929 202.156 359.47 202.196C355.882 202.506 352.271 202.512 348.676 202.359C345.143 202.21 341.617 201.901 338.107 201.484C337.287 201.387 336.468 201.282 335.649 201.175C336.512 201.288 335.235 201.117 335.022 201.087C334.639 201.033 334.256 200.978 333.874 200.922C332.415 200.707 330.958 200.475 329.504 200.226C327.522 199.887 325.545 199.519 323.576 199.112C323.112 199.016 322.65 198.908 322.185 198.815C320.801 198.539 319.565 198.913 318.3 199.475C313.482 201.616 310.594 206.867 308.676 211.511C306.962 215.661 305.347 220.899 306.403 225.413L309.136 221.825C309.32 221.833 309.993 222.004 310.138 222.085C309.674 221.825 310.8 222.579 310.328 222.232C310.218 222.15 310.146 221.965 310.03 221.905C310.342 222.065 310.357 222.389 310.026 221.869C309.486 221.022 309.006 220.144 308.539 219.254C307.317 216.925 306.146 214.559 304.652 212.387C303.074 210.095 301.149 207.816 298.555 206.653C295.442 205.257 292.1 205.697 289.217 207.463C285.102 209.983 281.666 214.295 280.649 219.059C279.702 223.491 280.634 227.893 282.498 231.949C283.571 234.285 284.883 236.508 285.971 238.841C287.228 241.536 288.333 244.297 289.28 247.117C290.958 252.109 292.157 257.294 293.209 262.451C294.175 267.187 294.963 271.985 295.113 276.824C295.145 277.877 295.146 278.932 295.098 279.985C295.077 280.451 295.047 280.917 295.004 281.382C294.982 281.63 294.957 281.878 294.926 282.126C294.901 282.332 294.903 282.321 294.93 282.093C294.909 282.233 294.887 282.373 294.862 282.513C294.704 283.34 294.518 284.146 294.259 284.948C294.209 285.102 294.15 285.255 294.091 285.406C294.33 284.792 294.049 285.492 293.998 285.586C293.826 285.903 293.651 286.214 293.455 286.517C293.129 287.021 292.775 287.506 292.417 287.988C292.171 288.32 292.867 287.454 292.453 287.938C292.37 288.034 292.294 288.136 292.213 288.233C291.971 288.526 291.722 288.814 291.466 289.096C290.648 289.997 289.755 290.809 288.814 291.579C289.443 291.064 288.617 291.716 288.455 291.83C288.188 292.018 287.917 292.198 287.641 292.373C287.082 292.727 286.505 293.053 285.913 293.351C285.612 293.502 285.302 293.637 284.998 293.782C284.864 293.846 284.499 293.969 285.108 293.736C284.98 293.785 284.853 293.841 284.724 293.888C284.024 294.138 283.327 294.379 282.608 294.57C281.929 294.75 281.244 294.884 280.553 295.013C280.404 295.041 280.253 295.06 280.103 295.084C280.832 294.966 280.06 295.089 279.938 295.101C279.543 295.138 279.15 295.177 278.754 295.202C277.041 295.308 275.32 295.245 273.615 295.056C273.431 295.035 273.247 295.014 273.064 294.99C273.571 295.056 272.96 294.973 272.838 294.952C272.407 294.881 271.977 294.811 271.548 294.73C270.542 294.538 269.543 294.308 268.553 294.047C266.333 293.46 264.156 292.714 262.024 291.859C259.701 290.928 257.441 289.83 255.227 288.665C252.904 287.444 249.992 286.014 248.104 284.587C247.263 283.952 246.521 283.085 245.827 282.297C245.494 281.919 245.174 281.53 244.857 281.138C244.358 280.519 245.147 281.545 244.674 280.896C244.503 280.662 244.33 280.429 244.163 280.192C242.759 278.201 241.563 276.067 240.528 273.863C240.262 273.297 240.01 272.726 239.762 272.153C240.081 272.889 239.656 271.888 239.586 271.715C239.46 271.4 239.336 271.083 239.215 270.766C238.717 269.459 238.266 268.134 237.855 266.797C237.003 264.023 236.327 261.195 235.795 258.343C235.666 257.655 235.546 256.965 235.434 256.274C235.371 255.886 235.311 255.497 235.253 255.108C235.23 254.951 235.208 254.794 235.185 254.638C235.162 254.48 235.14 254.323 235.118 254.166C235.161 254.485 235.168 254.539 235.14 254.327C234.936 252.761 234.768 251.19 234.639 249.616C234.088 242.9 234.201 236.13 234.897 229.429C234.985 228.586 235.082 227.743 235.188 226.902C235.211 226.725 235.234 226.547 235.257 226.369C235.186 226.91 235.264 226.323 235.283 226.189C235.352 225.699 235.423 225.21 235.498 224.72C235.772 222.929 236.089 221.144 236.449 219.368C237.159 215.861 238.037 212.388 239.087 208.967C241.265 201.862 243.779 195.901 247.496 189.419C251.273 182.834 255.311 177.46 260.684 172.146C272.623 160.338 289.532 152.257 306.509 150.701C322.576 149.229 338 153.548 351.328 162.408C352.824 163.401 354.286 164.445 355.71 165.54C355.311 165.233 356.161 165.896 356.276 165.988C356.582 166.232 356.886 166.477 357.188 166.725C357.849 167.268 358.501 167.822 359.144 168.386C361.534 170.483 363.799 172.725 365.903 175.109C366.373 175.642 366.836 176.182 367.289 176.73C367.498 176.983 367.706 177.237 367.912 177.493C368.035 177.647 368.77 178.595 368.33 178.017C369.151 179.096 369.944 180.195 370.688 181.328C371.954 183.252 372.925 185.266 373.974 187.303C373.523 186.426 374.141 187.739 374.24 188.013C374.397 188.446 374.542 188.884 374.669 189.326C374.775 189.694 374.87 190.064 374.949 190.438C374.991 190.633 375.018 190.832 375.061 191.026C375.206 191.679 374.978 190.28 375.051 190.946C375.218 192.467 376.234 193.78 377.886 193.78C379.288 193.78 380.888 192.477 380.72 190.946Z" fill="black"/>
<path d="M332.17 221.78C332.513 221.675 332.859 221.586 333.211 221.52C333.299 221.503 333.387 221.488 333.475 221.474C333.687 221.442 333.652 221.447 333.372 221.487C333.462 221.435 333.663 221.457 333.772 221.448C334.129 221.422 334.488 221.416 334.845 221.429C335.024 221.435 335.203 221.447 335.381 221.463C335.471 221.471 335.56 221.481 335.648 221.491C335.39 221.455 335.334 221.447 335.479 221.469C336.143 221.589 336.79 221.738 337.424 221.975C337.887 222.148 337.183 221.849 337.531 222.013C337.693 222.09 337.856 222.164 338.015 222.246C338.333 222.411 338.639 222.595 338.938 222.794C339.763 223.342 341.065 222.982 341.523 222.116C342.025 221.166 341.726 220.116 340.845 219.531C338.044 217.668 334.378 217.156 331.165 218.136C330.221 218.424 329.525 219.47 329.846 220.46C330.154 221.412 331.157 222.088 332.17 221.78Z" fill="black"/>
<path d="M354.993 220.768C355.209 220.641 355.429 220.522 355.656 220.414C355.721 220.384 355.786 220.354 355.852 220.325C355.565 220.444 355.513 220.466 355.698 220.392C355.816 220.348 355.932 220.303 356.051 220.262C356.544 220.095 357.051 219.979 357.566 219.903L357.063 219.971C357.812 219.871 358.564 219.869 359.314 219.967L358.811 219.899C359.202 219.955 359.586 220.038 359.966 220.147C360.915 220.42 362.066 219.814 362.29 218.827C362.52 217.819 361.987 216.795 360.971 216.503C358.344 215.747 355.44 216.121 353.085 217.505C352.233 218.006 351.853 219.231 352.407 220.09C352.961 220.949 354.081 221.304 354.993 220.768Z" fill="black"/>
<path d="M356.554 228.078C357.661 227.856 358.768 227.635 359.875 227.414C360.321 227.325 360.781 226.927 361.005 226.545C361.242 226.14 361.342 225.543 361.195 225.089C361.047 224.632 360.764 224.191 360.327 223.96L359.875 223.769C359.54 223.679 359.205 223.679 358.871 223.769C357.764 223.991 356.657 224.212 355.55 224.434C355.104 224.523 354.644 224.921 354.42 225.302C354.183 225.707 354.083 226.304 354.23 226.758C354.378 227.215 354.661 227.656 355.098 227.887L355.55 228.078C355.885 228.168 356.219 228.168 356.554 228.078Z" fill="black"/>
<path d="M333.524 231.153C333.636 231.131 333.747 231.112 333.86 231.096L333.357 231.163C333.832 231.101 334.308 231.104 334.782 231.166L334.279 231.099C334.753 231.167 335.212 231.294 335.653 231.48L335.201 231.289C335.577 231.453 335.93 231.656 336.26 231.899C336.629 232.173 337.293 232.206 337.716 232.09C338.154 231.969 338.629 231.63 338.845 231.221C339.077 230.783 339.193 230.252 339.036 229.765L338.845 229.314C338.677 229.03 338.451 228.804 338.167 228.636C337.856 228.406 337.524 228.211 337.171 228.053C336.69 227.838 336.203 227.638 335.686 227.526C334.62 227.295 333.588 227.296 332.52 227.509C332.074 227.598 331.614 227.996 331.391 228.377C331.154 228.782 331.053 229.379 331.2 229.833C331.348 230.29 331.631 230.732 332.068 230.962C332.536 231.21 333.004 231.257 333.524 231.153Z" fill="black"/>
<path d="M335.703 246.285L330.507 244.997C329.657 244.786 328.808 244.575 327.958 244.365C327.12 244.157 326.181 243.791 325.311 243.834C323.942 243.901 322.922 245.039 323.004 246.408C323.05 247.179 323.221 247.978 323.479 248.706C323.988 250.143 324.766 251.443 325.812 252.556C326.989 253.809 328.478 254.72 330.104 255.262C331.042 255.574 332.21 254.9 332.428 253.942C332.666 252.899 332.113 251.952 331.109 251.617C330.921 251.555 330.734 251.488 330.551 251.413C331.005 251.6 330.413 251.333 330.331 251.291C329.979 251.106 329.652 250.89 329.325 250.666C329.156 250.54 329.166 250.549 329.354 250.691C329.277 250.629 329.201 250.565 329.126 250.501C329.014 250.403 328.904 250.303 328.797 250.2C328.512 249.926 328.246 249.631 327.999 249.321C328.296 249.694 327.908 249.176 327.859 249.103C327.75 248.937 327.646 248.769 327.548 248.597C327.475 248.467 327.405 248.337 327.339 248.204C327.295 248.117 327.059 247.522 327.227 247.979C327.09 247.607 326.964 247.235 326.873 246.848C326.831 246.669 326.759 246.451 326.761 246.266C326.791 246.518 326.797 246.543 326.777 246.341C326.785 246.003 326.743 246.158 326.651 246.806L325.973 247.483C325.701 247.615 325.427 247.642 325.151 247.565C325.229 247.582 325.307 247.6 325.384 247.62C325.581 247.667 325.777 247.717 325.973 247.766L327.247 248.082L329.698 248.689C331.365 249.102 333.031 249.516 334.698 249.929C335.656 250.166 336.792 249.622 337.022 248.609C337.245 247.632 336.729 246.539 335.703 246.285Z" fill="black"/>
<path d="M912.644 370.93C912.644 370.93 923.352 350.145 932.17 362.112C940.988 374.08 924.612 390.456 919.573 389.196C918.313 396.125 925.242 413.761 930.911 412.501C929.651 420.69 969.332 394.235 974.371 372.19C978.15 350.145 963.664 346.366 963.664 346.366C963.664 346.366 964.923 312.353 949.177 304.165C933.43 295.976 888.71 306.054 878.632 290.308C868.554 274.561 847.138 304.165 860.366 311.723C852.177 317.392 856.586 328.729 867.294 329.989C866.034 345.736 884.301 343.846 892.489 341.956C900.677 340.067 910.755 364.632 905.086 381.638C912.015 372.19 912.644 370.93 912.644 370.93Z" fill="black"/>
<path d="M915.092 372.361C915.395 371.775 915.729 371.203 916.068 370.638C916.441 370.017 916.829 369.404 917.231 368.802C917.448 368.476 917.67 368.153 917.896 367.833C918.015 367.665 918.135 367.497 918.256 367.331C918.34 367.216 918.811 366.587 918.608 366.852C918.391 367.136 918.793 366.619 918.858 366.539C918.996 366.366 919.137 366.194 919.279 366.025C919.591 365.652 919.911 365.285 920.241 364.928C920.902 364.214 921.602 363.542 922.346 362.916C922.539 362.754 922.863 362.536 922.462 362.819C922.638 362.694 922.81 362.566 922.989 362.446C923.366 362.192 923.756 361.958 924.16 361.75C924.437 361.607 924.834 361.465 924.313 361.655C924.5 361.587 924.684 361.514 924.874 361.454C925.061 361.396 925.25 361.351 925.439 361.299C925.532 361.274 925.632 361.267 925.724 361.241C926.076 361.139 925.178 361.267 925.543 361.261C925.733 361.258 925.927 361.241 926.118 361.234C926.225 361.23 926.864 361.265 926.415 361.226C925.986 361.188 926.667 361.279 926.812 361.317C926.932 361.349 927.593 361.575 927.248 361.438C926.894 361.298 927.489 361.565 927.586 361.619C927.786 361.73 927.974 361.855 928.166 361.977C928.265 362.04 928.362 362.111 928.455 362.183C928.416 362.153 928.121 361.909 928.362 362.128C928.59 362.336 928.817 362.541 929.031 362.763C929.85 363.61 930.391 364.432 931.002 365.649C931.115 365.874 931.283 366.286 931.458 366.866C931.539 367.138 931.612 367.413 931.675 367.689C931.716 367.869 931.867 368.782 931.809 368.315C931.878 368.865 931.901 369.424 931.897 369.978C931.895 370.256 931.884 370.533 931.866 370.81C931.854 370.988 931.777 371.696 931.8 371.538C931.696 372.257 931.289 373.82 930.922 374.826C930.634 375.615 930.145 376.653 929.517 377.741C929.234 378.232 928.934 378.713 928.62 379.184C928.464 379.417 928.305 379.649 928.142 379.878C928.066 379.984 927.586 380.633 927.836 380.308C927.051 381.33 926.176 382.29 925.249 383.185C924.832 383.587 924.401 383.975 923.957 384.347C923.808 384.471 923.262 384.895 923.704 384.562C923.467 384.741 923.225 384.916 922.979 385.084C922.581 385.356 922.172 385.613 921.749 385.846C921.555 385.952 921.353 386.044 921.159 386.149C920.609 386.448 921.519 386.069 921.11 386.175C920.93 386.221 920.755 386.301 920.575 386.351C920.463 386.382 919.749 386.576 920.309 386.439C920.823 386.313 920.292 386.404 920.159 386.431C919.605 386.544 920.548 386.512 920.326 386.463C918.948 386.158 917.106 386.871 916.84 388.443C915.865 394.206 917.954 400.431 920.317 405.619C922.297 409.966 925.979 416.331 931.664 415.235L928.177 411.748C927.779 414.624 929.418 416.93 932.475 416.853C934.94 416.791 937.399 415.515 939.525 414.395C946.376 410.783 952.626 405.76 958.278 400.508C964.688 394.552 970.87 387.659 974.653 379.692C978.532 371.521 979.301 361.038 975.054 352.828C972.948 348.757 968.977 344.837 964.417 343.633C965.111 344.544 965.804 345.455 966.498 346.366C966.603 343.471 966.474 340.555 966.272 337.668C965.837 331.464 964.945 325.197 963.078 319.25C961.129 313.044 958.053 306.953 952.702 303.027C947.972 299.555 941.647 298.73 935.973 298.176C928.897 297.486 921.768 297.502 914.667 297.32C911.015 297.226 907.363 297.099 903.719 296.828C900.054 296.556 897.558 296.296 894.14 295.604C892.665 295.305 891.2 294.947 889.763 294.498C889.088 294.286 888.419 294.056 887.759 293.8C887.551 293.719 886.823 293.4 887.382 293.652C887.044 293.5 886.706 293.348 886.373 293.184C885.794 292.899 885.227 292.589 884.677 292.25C884.411 292.086 884.148 291.915 883.891 291.737C883.778 291.659 883.667 291.577 883.554 291.498C883.034 291.136 883.652 291.588 883.481 291.445C883.047 291.079 882.622 290.709 882.226 290.301C882.019 290.089 881.833 289.859 881.629 289.644C881.509 289.518 881.228 289.127 881.642 289.682C881.524 289.525 881.408 289.367 881.297 289.205C879.53 286.64 877.6 284.482 874.579 283.431C872.165 282.591 869.417 282.856 867.076 283.792C861.881 285.868 857.753 290.529 855.449 295.546C853.114 300.634 852.124 306.935 855.895 311.611C856.731 312.649 857.787 313.498 858.935 314.171V309.276C854.461 312.458 851.969 317.885 854.011 323.263C856.172 328.955 861.453 332.074 867.294 332.824C866.35 331.879 865.405 330.934 864.46 329.989C864.057 335.587 866.166 341.081 871.339 343.755C875.734 346.028 880.954 346.296 885.798 345.863C888.061 345.661 890.321 345.324 892.543 344.846C892.77 344.797 893.022 344.764 893.243 344.69C893.643 344.555 892.578 344.65 893.184 344.694C893.334 344.705 893.592 344.741 893.729 344.702C893.315 344.821 893.209 344.568 893.759 344.735C893.943 344.791 894.125 344.862 894.31 344.913C894.654 345.008 893.796 344.639 894.104 344.831C894.179 344.877 894.265 344.905 894.34 344.95C894.548 345.078 894.76 345.198 894.968 345.326C895.049 345.376 895.123 345.437 895.202 345.488C895.5 345.683 894.702 345.028 895.174 345.464C895.536 345.8 895.909 346.115 896.25 346.474C896.432 346.664 896.608 346.86 896.78 347.06C896.881 347.178 896.979 347.299 897.079 347.418C897.349 347.741 896.82 347.066 897.08 347.412C897.874 348.464 898.565 349.592 899.187 350.753C900.596 353.383 901.494 355.846 902.316 358.901C904.243 366.062 904.669 373.795 902.353 380.885C901.92 382.212 902.748 383.727 903.994 384.229C905.391 384.79 906.675 384.241 907.534 383.069C909.69 380.127 911.851 377.184 913.911 374.173C914.311 373.587 914.769 372.997 915.092 372.361C915.785 370.997 915.451 369.288 914.075 368.483C912.812 367.744 910.893 368.13 910.197 369.5C909.874 370.136 909.417 370.725 909.016 371.312C906.957 374.323 904.795 377.266 902.639 380.208L907.819 382.392C910.061 375.531 909.955 368.06 908.617 361.031C907.473 355.025 905.315 348.846 901.532 343.975C900.029 342.039 898.217 340.358 895.895 339.476C893.795 338.679 891.816 339.252 889.711 339.646C889.234 339.735 888.756 339.818 888.277 339.893C887.99 339.939 887.703 339.98 887.416 340.022C888.056 339.928 887.308 340.035 887.058 340.064C885.895 340.2 884.727 340.294 883.557 340.336C882.358 340.378 881.156 340.366 879.959 340.279C879.681 340.259 879.404 340.235 879.127 340.206C878.908 340.184 878.239 340.084 878.822 340.176C878.245 340.085 877.671 339.985 877.102 339.853C876.475 339.707 875.854 339.531 875.246 339.316C875.023 339.237 874.337 338.935 874.891 339.192C874.593 339.054 874.298 338.915 874.008 338.759C873.755 338.622 873.506 338.477 873.264 338.322C873.119 338.229 872.35 337.621 872.883 338.077C872.444 337.702 872.067 337.289 871.657 336.887C871.562 336.794 871.339 336.462 871.695 336.954C871.61 336.836 871.52 336.72 871.443 336.597C871.264 336.313 871.087 336.033 870.931 335.735C870.878 335.634 870.829 335.531 870.777 335.43C870.442 334.785 870.888 335.759 870.742 335.358C870.616 335.015 870.5 334.671 870.405 334.319C870.316 333.989 870.247 333.655 870.182 333.32C870.164 333.225 870.104 332.773 870.166 333.276C870.144 333.092 870.127 332.907 870.113 332.722C870.042 331.811 870.063 330.9 870.129 329.989C870.249 328.325 868.722 327.338 867.295 327.155C866.628 327.069 865.283 326.71 864.413 326.37C864.182 326.279 864.474 326.411 864.106 326.233C863.837 326.103 863.571 325.967 863.311 325.82C862.89 325.583 862.479 325.324 862.089 325.038C862.389 325.258 861.99 324.96 861.886 324.869C861.712 324.717 861.539 324.564 861.372 324.404C861.175 324.215 860.984 324.019 860.802 323.816C860.76 323.77 860.313 323.238 860.507 323.485C860.513 323.492 860.061 322.829 859.914 322.577C859.805 322.391 859.701 322.203 859.604 322.011C859.574 321.951 859.269 321.201 859.477 321.756C859.33 321.364 859.203 320.966 859.106 320.559C859.058 320.357 859.022 320.154 858.983 319.951C858.923 319.628 858.968 320.387 858.982 319.846C858.993 319.395 858.972 318.947 858.994 318.494C859.01 318.165 858.872 318.919 859.012 318.391C859.065 318.191 859.099 317.986 859.153 317.786C859.208 317.584 859.272 317.385 859.339 317.187C859.592 316.439 859.086 317.636 859.451 316.923C859.652 316.531 859.871 316.152 860.122 315.789C860.595 315.107 859.789 316.132 860.359 315.498C860.486 315.357 860.615 315.217 860.748 315.082C861.144 314.681 861.562 314.337 861.797 314.171C863.488 312.968 863.757 310.424 861.797 309.276C861.533 309.122 861.286 308.947 861.029 308.785C860.703 308.579 861.415 309.129 861.137 308.872C861.044 308.785 860.938 308.711 860.847 308.622C860.646 308.424 860.448 308.23 860.254 308.026C859.759 307.506 860.369 308.297 860.081 307.81C859.944 307.578 859.79 307.358 859.662 307.12C859.554 306.919 859.299 306.23 859.569 306.986C859.384 306.469 859.239 305.96 859.109 305.427C858.924 304.672 859.095 305.743 859.072 305.268C859.058 304.986 859.024 304.706 859.015 304.423C858.997 303.838 859.045 303.262 859.086 302.68C859.136 301.962 858.977 303.156 859.124 302.442C859.186 302.142 859.237 301.841 859.307 301.542C859.449 300.93 859.625 300.325 859.828 299.731C859.921 299.461 860.023 299.195 860.122 298.927C860.392 298.199 860.048 299.024 860.254 298.606C860.546 298.015 860.818 297.419 861.137 296.841C861.441 296.293 861.767 295.757 862.112 295.234C862.295 294.957 862.484 294.683 862.678 294.414C862.764 294.294 862.854 294.177 862.94 294.057C863.284 293.576 862.618 294.424 863.037 293.935C863.838 293.004 864.642 292.095 865.565 291.28C865.775 291.095 865.993 290.921 866.205 290.739C866.721 290.295 865.855 290.991 866.202 290.74C866.312 290.66 866.421 290.579 866.532 290.5C867.02 290.155 867.526 289.836 868.051 289.551C868.305 289.413 868.572 289.299 868.826 289.162C869.235 288.941 868.295 289.328 869.018 289.087C869.542 288.913 870.058 288.77 870.595 288.646C871.3 288.483 870.29 288.621 870.719 288.625C870.951 288.627 871.185 288.595 871.418 288.595C871.681 288.595 871.939 288.63 872.2 288.637C872.572 288.647 871.608 288.503 871.965 288.608C872.103 288.649 872.252 288.664 872.393 288.698C872.653 288.76 872.9 288.855 873.156 288.928C873.739 289.094 872.712 288.654 873.394 289.045C873.613 289.17 873.828 289.301 874.046 289.427C874.157 289.492 874.258 289.577 874.366 289.647C873.771 289.265 874.295 289.586 874.423 289.702C874.854 290.095 875.254 290.501 875.633 290.945C875.971 291.34 875.686 291.008 875.624 290.924C875.72 291.054 875.816 291.186 875.907 291.32C876.111 291.622 876.304 291.931 876.514 292.227C879.831 296.899 885.213 299.29 890.631 300.624C897.124 302.221 903.908 302.617 910.567 302.863C917.484 303.119 924.412 303.096 931.324 303.493C932.919 303.585 934.514 303.701 936.105 303.858C936.839 303.931 937.572 304.017 938.305 304.106C938.417 304.119 938.865 304.183 938.306 304.105C938.471 304.128 938.636 304.151 938.802 304.176C939.208 304.235 939.613 304.299 940.018 304.367C941.348 304.592 942.671 304.866 943.973 305.221C944.555 305.38 945.134 305.554 945.706 305.751C945.963 305.839 946.22 305.932 946.474 306.029C946.599 306.077 946.722 306.129 946.847 306.176C947.479 306.411 946.3 305.896 946.891 306.198C947.384 306.45 947.886 306.675 948.367 306.953C948.639 307.111 948.905 307.277 949.167 307.45C949.298 307.537 950.216 308.215 949.735 307.836C950.832 308.702 951.788 309.706 952.684 310.774C952.774 310.881 953.101 311.315 952.766 310.87C952.864 311 952.963 311.131 953.057 311.264C953.246 311.533 953.436 311.801 953.618 312.075C954.034 312.701 954.422 313.345 954.786 314.002C955.137 314.634 955.466 315.28 955.775 315.934C955.922 316.246 956.063 316.561 956.203 316.876C956.256 316.995 956.472 317.523 956.273 317.038C956.356 317.24 956.437 317.442 956.517 317.645C957.63 320.479 958.447 323.425 959.076 326.401C959.397 327.918 959.668 329.446 959.897 330.979C959.947 331.309 959.994 331.64 960.04 331.971C959.956 331.372 960.073 332.233 960.099 332.438C960.187 333.148 960.267 333.858 960.339 334.569C960.716 338.298 960.913 342.061 960.843 345.809C960.84 345.995 960.836 346.181 960.829 346.366C960.785 347.592 961.74 348.79 962.91 349.099C963.143 349.161 963.365 349.253 963.593 349.33C964.091 349.498 963.582 349.536 963.326 349.211C963.389 349.291 963.629 349.341 963.727 349.391C964.076 349.565 964.425 349.736 964.764 349.929C965.135 350.141 965.497 350.368 965.849 350.61C966.045 350.744 966.232 350.89 966.427 351.025C965.638 350.48 966.504 351.098 966.685 351.255C967.107 351.62 967.51 352.007 967.892 352.413C968.097 352.632 968.297 352.856 968.49 353.086C968.59 353.204 968.686 353.326 968.785 353.447C968.914 353.61 968.864 353.544 968.633 353.25C968.711 353.354 968.787 353.458 968.863 353.564C969.248 354.133 969.624 354.702 969.955 355.305C970.132 355.628 970.291 355.958 970.455 356.287C970.523 356.423 970.581 356.563 970.645 356.701C970.349 356.062 970.758 356.994 970.803 357.115C971.099 357.908 971.344 358.72 971.544 359.543C971.652 359.988 971.746 360.436 971.828 360.886C971.862 361.073 971.894 361.261 971.924 361.448C971.974 361.792 971.981 361.831 971.946 361.565C971.964 361.715 971.982 361.864 971.997 362.013C972.415 366.269 972.146 370.657 970.663 374.69C970.518 375.084 970.365 375.474 970.204 375.862C970.417 375.348 969.948 376.426 969.869 376.595C969.459 377.475 969.014 378.339 968.542 379.187C967.596 380.887 966.541 382.525 965.415 384.111C964.21 385.806 963.343 386.899 961.908 388.578C960.554 390.163 959.14 391.697 957.68 393.184C954.882 396.034 951.916 398.72 948.819 401.24C947.223 402.538 946.402 403.172 944.679 404.417C943.298 405.415 941.89 406.378 940.45 407.29C939.084 408.154 937.69 408.977 936.251 409.714C935.666 410.014 935.067 410.277 934.475 410.56C933.948 410.811 935.121 410.329 934.584 410.512C934.447 410.558 934.313 410.619 934.177 410.67C933.924 410.764 933.67 410.854 933.412 410.934C933.182 411.006 932.951 411.073 932.716 411.128C932.55 411.166 931.862 411.37 932.472 411.196C933.044 411.033 932.479 411.159 932.303 411.191C931.688 411.3 932.469 411.23 932.525 411.245C931.93 411.084 933.143 411.591 932.789 411.376C933.054 411.537 933.344 411.831 933.486 412.077C933.72 412.483 933.68 412.444 933.725 413.04C933.703 412.747 933.799 412.136 933.644 413.255C933.948 411.061 932.452 409.327 930.158 409.769C929.656 409.865 930.935 409.701 930.159 409.727C930.432 409.718 930.819 409.801 930.303 409.728C930.07 409.696 929.698 409.422 930.367 409.792C930.19 409.694 930.008 409.598 929.83 409.503C929.664 409.415 929.139 408.963 929.713 409.455C929.559 409.324 929.404 409.195 929.256 409.057C928.877 408.706 928.536 408.321 928.201 407.929C927.814 407.475 928.448 408.292 928.054 407.745C927.907 407.541 927.761 407.337 927.62 407.129C927.272 406.616 926.946 406.088 926.638 405.551C926.019 404.474 925.469 403.357 924.972 402.219C924.858 401.957 924.641 401.419 924.418 400.821C924.19 400.213 923.976 399.599 923.776 398.981C923.387 397.778 923.05 396.557 922.779 395.322C922.476 393.939 922.395 393.447 922.314 392.421C922.272 391.883 922.25 391.343 922.26 390.804C922.265 390.591 922.282 390.38 922.289 390.168C922.315 389.332 922.228 390.414 922.307 389.95C921.144 390.61 919.982 391.27 918.82 391.93C923.249 392.911 927.705 388.97 930.442 385.977C934.353 381.699 937.399 376.161 937.561 370.256C937.719 364.534 934.335 357.638 928.513 355.905C923.749 354.487 919.22 357.662 916.157 361.003C913.84 363.53 911.775 366.448 910.197 369.5C908.525 372.736 913.414 375.607 915.092 372.361Z" fill="black"/>
<path d="M859.101 344.125C859.169 344.112 859.236 344.101 859.304 344.092L858.802 344.159C859.143 344.118 859.48 344.12 859.822 344.159L859.319 344.092C859.766 344.155 860.193 344.277 860.609 344.449L860.158 344.258C860.698 344.492 861.193 344.8 861.659 345.158L861.277 344.863C861.981 345.417 862.602 346.062 863.214 346.715C863.891 347.437 865.211 347.45 865.886 346.715C866.597 345.94 866.609 344.813 865.886 344.042C864.957 343.051 863.979 342.072 862.804 341.37C862.183 340.999 861.484 340.695 860.779 340.531C859.869 340.318 859.011 340.316 858.097 340.481C857.655 340.561 857.186 340.975 856.967 341.349C856.73 341.754 856.63 342.351 856.777 342.805C856.925 343.263 857.208 343.704 857.645 343.935C858.117 344.184 858.576 344.22 859.101 344.125Z" fill="black"/>
<path d="M876.977 351.882L877.071 351.868L876.569 351.935C877.136 351.859 877.703 351.861 878.27 351.935L877.767 351.868C878.238 351.936 878.699 352.049 879.146 352.213C879.612 352.385 878.839 352.062 879.134 352.202C879.249 352.257 879.364 352.309 879.477 352.368C879.673 352.47 879.865 352.581 880.051 352.702C880.158 352.771 880.26 352.846 880.364 352.918C880.66 353.124 880.01 352.617 880.281 352.856C880.471 353.023 880.661 353.188 880.836 353.371C880.902 353.44 880.966 353.51 881.028 353.581C881.14 353.709 881.335 354.067 881.03 353.567C881.162 353.783 881.318 353.983 881.445 354.203C881.937 355.061 883.177 355.431 884.03 354.881C884.896 354.323 885.234 353.214 884.708 352.296C883.903 350.892 882.636 349.694 881.171 348.999C880.435 348.65 879.673 348.364 878.866 348.237C877.867 348.08 876.971 348.087 875.972 348.238C875.536 348.304 875.055 348.743 874.843 349.106C874.606 349.511 874.506 350.108 874.652 350.562C874.8 351.019 875.084 351.46 875.521 351.691C875.999 351.944 876.446 351.962 876.977 351.882Z" fill="black"/>
<path d="M874.796 360.63C875.285 360.848 875.493 360.925 876.032 360.964C876.305 360.984 876.587 360.936 876.851 360.872C877.364 360.746 877.873 360.436 878.245 360.064C878.608 359.702 878.942 359.177 879.044 358.668C879.15 358.137 879.137 357.892 879.054 357.368C879.012 357.102 878.888 356.854 878.774 356.614C878.545 356.131 878.115 355.76 877.684 355.465C877.216 355.145 876.683 355.036 876.134 354.98C875.577 354.923 875.048 355.099 874.554 355.334C874.064 355.567 873.689 355.999 873.389 356.435C873.231 356.665 873.127 356.955 873.033 357.206C872.929 357.484 872.906 357.802 872.876 358.089C872.847 358.374 872.907 358.678 872.951 358.952C872.998 359.241 873.133 359.515 873.255 359.776C873.374 359.997 873.536 360.173 873.742 360.307C873.924 360.474 874.139 360.586 874.384 360.645C874.636 360.724 874.887 360.735 875.138 360.679C875.389 360.667 875.624 360.592 875.841 360.454C876.244 360.194 876.599 359.807 876.709 359.325L876.776 358.823C876.775 358.482 876.689 358.164 876.518 357.869C876.51 357.851 876.501 357.833 876.494 357.814L876.684 358.265C876.638 358.153 876.608 358.038 876.592 357.918L876.659 358.42C876.644 358.289 876.646 358.16 876.663 358.029L876.595 358.531C876.615 358.401 876.65 358.276 876.699 358.154L876.509 358.606C876.561 358.486 876.625 358.374 876.705 358.271L876.409 358.653C876.478 358.568 876.554 358.492 876.641 358.425L876.258 358.721C876.339 358.661 876.424 358.612 876.517 358.572L876.065 358.763C876.147 358.73 876.231 358.708 876.318 358.694L875.815 358.761C875.922 358.747 876.027 358.747 876.134 358.759L875.632 358.691C875.758 358.709 875.88 358.742 875.997 358.792L875.546 358.601C875.654 358.649 875.754 358.708 875.847 358.78L875.465 358.484C875.548 358.551 875.622 358.625 875.688 358.709L875.392 358.327C875.449 358.404 875.497 358.485 875.534 358.574L875.344 358.122C875.376 358.204 875.398 358.286 875.41 358.373L875.343 357.87C875.352 357.95 875.351 358.028 875.342 358.108L875.409 357.605C875.396 357.693 875.372 357.777 875.338 357.86L875.529 357.408C875.488 357.5 875.438 357.583 875.377 357.663L875.673 357.28C875.609 357.359 875.539 357.428 875.461 357.492L875.843 357.196C875.756 357.263 875.663 357.318 875.562 357.363L876.014 357.172C875.922 357.209 875.83 357.235 875.732 357.249L876.234 357.181C876.157 357.19 876.081 357.19 876.004 357.182L876.506 357.25C876.427 357.238 876.353 357.219 876.28 357.189L876.731 357.379L876.704 357.367C876.487 357.229 876.252 357.154 876.001 357.143C875.75 357.087 875.499 357.098 875.247 357.177C875.001 357.235 874.787 357.348 874.605 357.515C874.399 357.648 874.237 357.825 874.118 358.045C873.886 358.484 873.77 359.015 873.928 359.501L874.118 359.953C874.286 360.236 874.512 360.462 874.796 360.63Z" fill="black"/>
<path d="M854.101 349.85C854.149 349.925 854.19 350.002 854.226 350.084L854.036 349.632C854.096 349.776 854.136 349.924 854.157 350.078L854.09 349.575C854.108 349.73 854.108 349.884 854.09 350.039L854.157 349.537C854.135 349.703 854.092 349.862 854.028 350.016L854.218 349.565C854.16 349.697 854.089 349.82 854.001 349.935L854.297 349.553C854.241 349.622 854.182 349.687 854.117 349.747L855.955 349.261L855.923 349.248L856.374 349.439C856.223 349.375 856.082 349.293 855.95 349.195L856.333 349.49C856.213 349.396 856.105 349.291 856.01 349.172L856.306 349.555C856.222 349.445 856.152 349.329 856.099 349.201L856.289 349.653C856.247 349.547 856.219 349.439 856.203 349.326L856.271 349.829C856.261 349.74 856.26 349.652 856.27 349.563L856.203 350.065C856.215 349.981 856.237 349.901 856.269 349.821L856.078 350.273C856.116 350.184 856.163 350.102 856.22 350.024L855.924 350.407C855.99 350.322 856.063 350.248 856.147 350.182L855.765 350.477C855.841 350.421 855.92 350.374 856.007 350.337L855.555 350.527C855.632 350.497 855.708 350.476 855.789 350.465L855.287 350.532C855.358 350.525 855.427 350.526 855.497 350.535L854.995 350.467C855.057 350.478 855.115 350.494 855.173 350.518C855.425 350.596 855.676 350.608 855.927 350.551C856.178 350.54 856.413 350.465 856.629 350.327C856.85 350.208 857.026 350.046 857.16 349.84C857.327 349.658 857.439 349.444 857.498 349.198C857.608 348.714 857.584 348.171 857.307 347.742L857.012 347.359C856.776 347.125 856.498 346.963 856.178 346.873C855.725 346.693 855.22 346.74 854.755 346.825C854.448 346.88 854.139 347.016 853.883 347.195C853.465 347.487 853.177 347.76 852.902 348.196C852.778 348.393 852.686 348.639 852.613 348.846C852.559 348.998 852.547 349.15 852.525 349.311C852.502 349.479 852.476 349.629 852.488 349.795C852.505 350.025 852.532 350.296 852.6 350.53C852.691 350.841 852.828 351.168 853.021 351.435C853.16 351.625 853.306 351.831 853.476 352.001C853.644 352.169 853.859 352.322 854.043 352.458C854.319 352.661 854.631 352.778 854.95 352.905C855.285 352.995 855.62 352.995 855.955 352.905C856.275 352.815 856.553 352.653 856.789 352.419C856.976 352.246 857.123 352.032 857.274 351.829C857.337 351.745 857.393 351.657 857.44 351.562C857.556 351.329 857.664 351.085 857.739 350.834C857.793 350.656 857.811 350.474 857.835 350.29C857.86 350.106 857.889 349.926 857.883 349.741C857.873 349.478 857.834 349.216 857.782 348.959C857.762 348.855 857.731 348.756 857.693 348.658C857.6 348.42 857.505 348.162 857.364 347.943C857.101 347.532 856.712 347.205 856.235 347.074C855.984 346.995 855.732 346.984 855.481 347.04C855.23 347.052 854.995 347.127 854.779 347.265C854.375 347.525 854.02 347.912 853.91 348.394C853.8 348.879 853.825 349.419 854.101 349.85Z" fill="black"/>
<path d="M864.689 378.32C868.733 378.699 872.877 378.188 876.712 376.849C877.643 376.524 878.361 375.541 878.032 374.525C877.734 373.604 876.707 372.856 875.708 373.205C872.035 374.487 868.583 374.906 864.689 374.541C863.702 374.449 862.757 375.476 862.8 376.431C862.849 377.533 863.632 378.221 864.689 378.32Z" fill="black"/>
<path d="M876.05 376.953C878.482 376.953 878.486 373.174 876.05 373.174C873.619 373.174 873.615 376.953 876.05 376.953Z" fill="black"/>
<path d="M874.202 376.434C874.191 376.622 874.174 376.808 874.15 376.995L874.217 376.492C874.165 376.848 874.089 377.197 873.984 377.541C873.933 377.705 873.875 377.865 873.815 378.026C873.699 378.334 874.012 377.602 873.86 377.919C873.826 377.99 873.795 378.061 873.76 378.131C873.602 378.453 873.419 378.764 873.216 379.06C873.171 379.124 873.125 379.187 873.08 379.251C872.951 379.436 873.373 378.891 873.175 379.129C873.055 379.274 872.935 379.417 872.807 379.555C872.571 379.807 872.317 380.038 872.053 380.259C871.777 380.49 872.435 379.988 872.139 380.193C872.075 380.237 872.012 380.284 871.948 380.328C871.806 380.425 871.661 380.517 871.513 380.603C871.352 380.698 871.187 380.785 871.018 380.867C870.948 380.9 870.877 380.932 870.806 380.964C870.599 381.059 871.249 380.795 870.955 380.898C870.6 381.024 870.246 381.133 869.876 381.208C868.906 381.405 868.257 382.608 868.556 383.533C868.89 384.562 869.841 385.063 870.881 384.852C874.821 384.054 877.757 380.385 877.981 376.435C878.037 375.446 877.072 374.501 876.091 374.545C875.02 374.593 874.262 375.375 874.202 376.434Z" fill="black"/>
<path d="M870.065 379.19L870.107 379.244L869.812 378.862C870.217 379.389 870.552 379.963 870.814 380.575L870.624 380.123C870.89 380.758 871.072 381.421 871.166 382.103L871.356 382.555L871.652 382.937C871.947 383.233 872.327 383.402 872.737 383.457C873.082 383.503 873.394 383.463 873.716 383.328C874.111 383.161 874.374 382.912 874.619 382.555C875.034 381.951 875.464 381.355 875.862 380.74C876.441 379.844 876.71 378.833 876.491 377.777C876.383 377.254 876.095 376.754 875.726 376.371C875.243 375.87 874.598 375.621 873.914 375.582C873.416 375.553 872.846 375.708 872.425 375.974C871.902 376.304 871.398 376.877 871.299 377.507C871.22 377.758 871.209 378.01 871.265 378.261C871.276 378.512 871.351 378.746 871.489 378.963C871.719 379.355 872.168 379.729 872.619 379.832C873.102 379.942 873.645 379.918 874.075 379.641C874.462 379.392 874.868 378.987 874.943 378.512C874.95 378.465 874.96 378.424 874.976 378.379L874.785 378.831C874.804 378.789 874.824 378.752 874.849 378.714L874.554 379.096C874.591 379.048 874.631 379.008 874.678 378.969L874.295 379.264C874.346 379.228 874.397 379.198 874.453 379.171L874.002 379.361C874.076 379.331 874.149 379.311 874.227 379.298L873.725 379.365C873.805 379.357 873.881 379.357 873.961 379.367L873.459 379.299C873.522 379.311 873.579 379.327 873.639 379.351L873.187 379.161C873.249 379.191 873.304 379.226 873.358 379.267L872.976 378.972C873.03 379.019 873.078 379.068 873.123 379.124L872.827 378.742C872.88 378.815 872.923 378.89 872.96 378.973L872.77 378.521C872.81 378.624 872.838 378.727 872.856 378.836L872.788 378.334C872.805 378.464 872.806 378.59 872.793 378.72L872.86 378.217C872.835 378.394 872.783 378.561 872.715 378.727L872.906 378.275C872.722 378.689 872.451 379.054 872.196 379.425C871.916 379.833 871.636 380.24 871.356 380.647C872.507 380.798 873.659 380.948 874.81 381.099C874.692 380.244 874.419 379.457 874.078 378.667C873.736 377.876 873.268 377.195 872.737 376.518C872.46 376.164 871.828 375.965 871.401 375.965C870.938 375.965 870.384 376.171 870.065 376.518C869.735 376.878 869.489 377.351 869.512 377.854L869.579 378.357C869.669 378.677 869.831 378.954 870.065 379.19Z" fill="black"/>
<path d="M744.987 231.163C750.826 228.016 756.665 224.87 762.504 221.723C763.811 221.019 764.331 219.101 763.521 217.845C762.666 216.518 761.041 216.075 759.643 216.828C753.804 219.975 747.965 223.121 742.126 226.268C740.819 226.972 740.299 228.89 741.109 230.146C741.964 231.473 743.589 231.916 744.987 231.163Z" fill="#6966ED"/>
<path d="M755.538 272.797C758.185 273.856 760.832 274.915 763.479 275.974C764.118 276.229 765.096 276.02 765.663 275.688C766.251 275.344 766.812 274.67 766.966 273.994C767.131 273.268 767.095 272.454 766.68 271.81C766.256 271.152 765.71 270.797 764.986 270.507C762.339 269.449 759.692 268.39 757.046 267.331C756.407 267.076 755.429 267.285 754.861 267.617C754.274 267.961 753.713 268.635 753.559 269.311C753.394 270.036 753.429 270.851 753.845 271.495C754.269 272.153 754.815 272.508 755.538 272.797Z" fill="#6966ED"/>
<path d="M720.106 200.185V214.478C720.106 215.961 721.41 217.381 722.94 217.313C724.476 217.244 725.775 216.067 725.775 214.478V200.185C725.775 198.702 724.471 197.282 722.94 197.351C721.405 197.419 720.106 198.596 720.106 200.185Z" fill="#6966ED"/>
<path d="M24.7639 278.119C20.9877 286.606 21.5872 296.118 25.5318 304.441C29.2203 312.224 36.5388 319.364 45.1841 321.181C50.0859 322.211 56.8119 321.106 58.163 315.406C58.5421 313.807 57.6604 312.484 56.1833 311.919C53.4859 310.889 50.891 312.645 49.5638 314.93C48.308 317.093 48.09 319.549 47.9618 321.993C47.7078 326.835 48.2341 331.745 49.3776 336.453C51.6656 345.872 56.6178 354.707 63.4273 361.602C67.2549 365.477 71.7197 368.767 76.5959 371.199C77.9652 371.882 79.6654 371.564 80.4739 370.182C81.2081 368.927 80.8324 366.99 79.4571 366.304C64.7231 358.957 54.6013 343.395 53.6478 327.083C53.5133 324.782 53.548 322.471 53.763 320.176C53.8395 319.359 53.9797 318.616 54.4587 317.791C54.5655 317.608 54.6842 317.435 54.8031 317.258C54.5953 317.567 55.0803 316.963 54.8832 317.21C54.6782 317.467 55.4222 316.896 54.856 317.236C54.663 317.353 54.0632 317.151 54.6763 317.386C54.0164 316.223 53.3565 315.061 52.6966 313.899C52.6529 314.083 52.612 314.274 52.547 314.453C52.706 314.015 52.5023 314.53 52.4261 314.637C52.1633 315.007 52.6949 314.364 52.3916 314.698C52.2724 314.829 52.147 314.953 52.0134 315.069C51.6782 315.362 52.3265 314.872 51.9404 315.107C51.7437 315.227 51.5469 315.343 51.3387 315.443C51.6861 315.277 50.6808 315.647 50.5262 315.686C49.9668 315.827 49.9453 315.825 49.638 315.852C49.2255 315.887 48.8102 315.898 48.3963 315.891C47.335 315.872 47.1241 315.842 46.106 315.577C42.8319 314.727 39.6428 312.887 37.1707 310.685C34.3703 308.191 32.3911 305.531 30.7074 302.157C29.2961 299.329 28.1863 295.459 27.9336 292.424C27.8502 291.422 27.8185 290.416 27.8426 289.411C27.8648 288.486 27.9668 287.235 28.0495 286.697C28.2101 285.652 28.4394 284.617 28.7317 283.601C28.9864 282.717 29.402 281.558 29.6589 280.98C30.2807 279.583 30.0649 277.934 28.6421 277.102C27.4339 276.396 25.3894 276.713 24.7639 278.119Z" fill="#F953B2"/>
<path d="M51.9823 395.086C54.6292 396.144 57.2762 397.203 59.9231 398.262C60.5617 398.518 61.5399 398.308 62.1072 397.976C62.6951 397.632 63.2559 396.958 63.4098 396.282C63.5751 395.557 63.5393 394.742 63.1241 394.098C62.6995 393.44 62.1535 393.085 61.4302 392.796C58.7833 391.737 56.1363 390.678 53.4894 389.619C52.8508 389.364 51.8726 389.573 51.3053 389.905C50.7174 390.249 50.1566 390.923 50.0027 391.599C49.8374 392.325 49.8732 393.139 50.2884 393.783C50.713 394.442 51.259 394.796 51.9823 395.086Z" fill="#F953B2"/>
<path d="M131.701 216.82C132.759 213.644 133.818 210.468 134.877 207.291C135.346 205.883 134.335 204.132 132.897 203.805C131.333 203.448 129.913 204.277 129.411 205.784C128.352 208.961 127.293 212.137 126.234 215.313C125.765 216.721 126.776 218.472 128.214 218.8C129.778 219.156 131.198 218.327 131.701 216.82Z" fill="#F953B2"/>
<path d="M155.809 240.748C160.044 238.631 164.279 236.513 168.514 234.396C169.843 233.731 170.323 231.746 169.531 230.518C168.654 229.158 167.074 228.79 165.653 229.501C161.418 231.618 157.183 233.736 152.947 235.853C151.618 236.518 151.139 238.503 151.931 239.731C152.807 241.091 154.387 241.459 155.809 240.748Z" fill="#F953B2"/>
<path d="M78.8752 214.321C79.934 215.909 80.9927 217.497 82.0515 219.085C82.4621 219.701 83.0166 220.187 83.7454 220.388C84.4239 220.575 85.3273 220.491 85.9295 220.102C86.5347 219.712 87.0675 219.131 87.2321 218.408C87.3958 217.69 87.369 216.858 86.9464 216.224C85.8876 214.636 84.8289 213.048 83.7701 211.46C83.3595 210.844 82.805 210.358 82.0762 210.157C81.3977 209.97 80.4943 210.055 79.8921 210.443C79.2869 210.833 78.7541 211.414 78.5895 212.137C78.4258 212.856 78.4526 213.687 78.8752 214.321Z" fill="#F953B2"/>
</svg>
