<svg width="1000" height="1000" viewBox="0 0 1000 1000" fill="none" xmlns="http://www.w3.org/2000/svg">
<path d="M520.61 306.213C462.5 268.88 410.715 211.389 352.605 174.055L355.548 254.045L273.953 220.605L314.081 291.231L225.531 313.971L266.729 358.915L199.313 379.247L229.811 410.815L181.122 453.619L428.047 506.856L533.5 433.173L520.61 306.213Z" fill="#FFA900"/>
<path d="M560.167 417.771L417.668 500.075L383.936 389.543C382.59 385.134 384.464 380.379 388.456 378.074L513.346 305.94C518.865 302.753 525.914 305.531 527.775 311.627L560.167 417.771Z" fill="#028EC4"/>
<path d="M556.548 445.687L363.851 556.983C357.737 560.514 349.961 556.992 348.583 550.067L348.224 548.26C347.363 543.929 349.355 539.53 353.179 537.321L560.167 417.771L563.229 429.863C564.792 436.039 562.064 442.501 556.548 445.687Z" fill="#028EC4"/>
<path d="M486.592 392.556C488.15 389.795 489.687 386.616 490.018 384.336C482.442 383.237 480.136 389.663 479.333 393.051C479.19 393.088 479.046 393.121 478.903 393.162C478.853 393.176 478.805 393.194 478.756 393.208C476.283 390.753 470.937 386.523 465.086 391.449C466.552 393.189 469.48 395.054 472.231 396.568C466.219 401.296 463.33 409.351 465.558 417.161C468.5 427.473 479.245 433.447 489.557 430.505C499.869 427.563 505.843 416.819 502.901 406.507C500.695 398.774 494.101 393.48 486.592 392.556Z" fill="#6966ED"/>
<path d="M375.971 393.434C367.579 398.248 359.187 403.061 350.794 407.874C339.82 414.168 328.846 420.462 317.872 426.756C316.655 427.454 315.439 428.277 314.061 428.602C307.971 430.037 303.554 422.758 307.669 418.023C309.547 415.863 307.726 412.826 304.95 413.352C298.921 414.493 294.854 407.256 298.852 402.65C300.728 400.49 298.911 397.453 296.133 397.979C288.975 399.334 285.624 389.679 291.666 385.968C294.727 384.089 291.978 379.345 288.845 381.142C280.947 385.672 273.048 390.202 265.15 394.732C262.1 396.481 258.519 399.389 254.803 398.415C251.062 397.434 248.954 393.333 250.469 389.722C251.107 388.202 252.283 387.205 253.636 386.354C269.703 376.245 285.69 366.009 301.716 355.837C307.824 351.96 313.932 348.083 320.04 344.207C320.976 343.612 321.804 342.198 321.324 341.05C320.086 338.092 318.847 335.134 317.609 332.175C316.225 328.87 314.121 325.227 314.6 321.536C315.393 315.432 321.627 311.643 327.461 313.592C330.694 314.672 332.998 317.833 335.267 320.228C337.802 322.903 340.336 325.578 342.87 328.253C343.631 329.056 345.31 329.42 346.257 328.69C350.384 325.511 354.61 322.455 358.842 319.417C369.761 311.579 380.877 304.013 392.146 296.688C407.854 286.478 423.873 276.741 440.231 267.609C458.625 257.34 477.459 247.812 496.831 239.521C515.722 231.436 535.234 224.507 555.292 219.946C573.192 215.875 591.811 213.678 610.124 215.92C617.985 216.882 626.23 218.922 633.692 222.067C642.437 225.753 650.568 231.513 657.75 237.954C675.997 254.317 688.016 276.368 689.502 301.032C690.834 323.147 684.472 345.204 673.861 364.469C664.352 381.736 651.175 397.947 634.599 408.87C631.162 411.135 627.565 413.152 623.802 414.822C620.521 416.279 623.361 421.097 626.623 419.649C644.396 411.758 658.894 396.851 669.974 381.198C683.026 362.76 692.068 341.136 694.604 318.614C697.275 294.903 691.518 270.861 677.471 251.46C664.807 233.968 646.953 219.484 626.009 213.472C608.429 208.425 589.769 208.693 571.801 211.219C551.454 214.079 531.6 220.02 512.414 227.262C492.187 234.895 472.551 244.065 453.417 254.11C435.743 263.388 418.476 273.439 401.567 284.044C388.475 292.255 375.591 300.8 362.942 309.679C356.638 314.104 350.373 318.595 344.238 323.252C343.97 323.456 343.702 323.659 343.436 323.864C344.565 324.01 345.694 324.155 346.823 324.301C344.332 321.671 341.84 319.042 339.349 316.412C336.241 313.132 333.415 309.667 328.947 308.202C322.054 305.941 314.095 309.178 310.748 315.613C309.048 318.879 308.549 322.601 309.325 326.2C309.666 327.781 310.379 329.266 311.001 330.751C312.645 334.68 314.29 338.608 315.934 342.537C316.362 341.484 316.791 340.432 317.219 339.38C301.375 349.437 285.531 359.493 269.688 369.549C263.347 373.574 257.026 377.633 250.664 381.624C244.306 385.612 242.215 394.026 247.271 400.03C250.216 403.528 255.121 404.909 259.514 403.86C261.271 403.44 262.794 402.527 264.338 401.642C273.447 396.417 282.557 391.193 291.666 385.968L288.845 381.142C283.949 384.148 281.463 390.193 283.527 395.705C285.713 401.544 291.606 404.507 297.619 403.369C296.713 401.812 295.807 400.255 294.9 398.698C291.377 402.756 290.485 408.56 293.38 413.261C296.166 417.783 301.322 419.71 306.436 418.742C305.53 417.185 304.623 415.628 303.717 414.071C299.5 418.923 299.255 426.34 304.047 430.966C308.025 434.806 314 435.271 318.763 432.689C321.944 430.965 325.049 429.084 328.188 427.284C341.46 419.672 354.731 412.061 368.003 404.449C371.599 402.386 375.196 400.324 378.792 398.261C381.912 396.472 379.1 391.64 375.971 393.434Z" fill="black"/>
<path d="M225.256 383.57C242.831 385.092 261.309 380.955 275.207 369.707C287.412 359.828 293.352 345.33 293.99 329.888C295.094 303.131 281.631 274.951 258.759 260.567C246.158 252.643 231.157 249.731 216.454 251.636C199.363 253.85 179.989 261.257 169.978 275.961C158.295 293.121 158.723 315.781 161.627 335.458C163.19 346.05 165.55 356.482 168.649 366.729C171.96 377.673 175.915 388.642 177.146 400.076C179.738 424.146 166.035 443.206 149.365 458.971C132.845 474.595 114.829 488.571 98.2731 504.174C66.8149 533.823 39.3919 570.46 35.097 614.84C31.3277 653.789 48.7219 694.031 80.8724 716.677C115.356 740.965 163.012 739.355 196.375 713.972C230.529 687.987 246.385 646.568 263.243 608.681C272.463 587.963 282.407 565.286 298.021 548.471C305.46 540.459 315.862 535.437 325.729 542.439C332.397 547.171 336.795 556.411 346.476 552.768C354.11 549.896 356.263 540.466 351.618 534.132L347.229 537.519C357.697 548.347 374.813 534.404 365.802 522.152L361.412 525.539C366.726 531.019 375.818 531.023 380.354 524.47C383.933 519.3 382.551 513.287 378.802 508.723C372.985 501.643 366.972 494.717 361.06 487.716L357.673 492.106C364.021 496.109 370.369 500.113 376.717 504.117C383.424 508.347 391.508 514.499 398.931 507.497C403.297 503.378 403.979 496.545 400.514 491.658C398.97 489.48 396.775 488.213 394.575 486.832C387.212 482.212 379.848 477.591 372.485 472.97C366.378 469.138 360.272 465.306 354.165 461.474V466.301C358.623 463.75 364.398 461.53 366.796 456.677C370.349 449.483 365.717 440.68 357.821 439.454C353.061 438.715 347.502 440.997 342.951 442.129C338.136 443.327 333.32 444.52 328.507 445.723C298.458 453.237 268.827 463.907 241.769 479.101C214.809 494.239 188.512 515.13 175.532 543.969C160.648 577.041 168.898 613.55 182.085 645.827C198.103 685.033 225.912 719.593 263.93 739.241C304.544 760.23 351.119 759.46 393.154 743.014C438.072 725.439 476.448 695.212 516.372 668.857C537.144 655.145 558.532 641.914 581.572 632.327C601.244 624.141 622.751 617.949 644.02 623.384C653.648 625.845 662.538 630.727 669.071 638.312C676.479 646.912 680.189 658.009 682.394 668.972C687.496 694.331 686.398 721.003 683.224 746.53C681.617 759.449 678.675 772.17 677.12 785.082C675.909 795.133 676.457 806 682.99 814.24C693.93 828.04 715.737 829.85 730.714 822.348C739.068 818.164 745.82 811.144 749.472 802.54C750.199 800.827 749.674 799.067 747.802 798.434C744.246 797.233 740.881 797.661 737.707 799.644C736.307 800.519 736.097 802.039 736.705 803.468C745.235 823.52 773.246 827.815 792.599 828.618C808.573 829.28 828.392 828.518 842.202 819.391C847.426 815.938 851.452 810.848 851.626 804.368C851.853 795.925 846.07 788.243 840.671 782.336C836.001 777.226 830.724 772.954 826.927 767.075C823.276 761.42 820.783 755.156 819.11 748.653C815.72 735.482 815.569 721.733 815.421 708.217C814.733 645.489 806.477 579.876 769.084 527.498C752.313 504.007 730.275 484.313 703.813 472.43C676.132 460.001 645.337 455.934 615.208 458.061C583.535 460.298 552.991 469.309 524.084 482.202C508.625 489.097 493.662 497.06 479.074 505.633C468.479 511.859 456.966 516.197 446.327 522.318C436.951 527.712 427.293 535.582 426.864 547.343C426.474 558.023 436.148 562.987 445.385 558.923C458.914 552.971 467.88 537.845 477.177 527.044C487.314 515.266 498.243 504.158 510.003 493.994C559.005 451.646 626.518 426.171 690.911 444.576C755.288 462.977 802.612 515.24 844.646 564.35C856.093 577.725 867.365 591.249 878.768 604.663C884.466 611.365 890.187 618.049 895.996 624.655C900.713 630.02 905.736 635.514 912.277 638.66C927.13 645.804 944.344 640.313 960.018 642.07C975.003 643.75 973.2 659.244 968.25 669.219C963.226 679.346 955.733 687.167 948.234 695.445C938.077 706.657 927.802 719.842 914.424 727.383C909.122 730.372 902.813 731.726 897.235 728.979C895.269 728.011 893.298 726.912 891.538 725.601C891.079 725.259 890.033 724.013 889.562 723.9C889.558 723.899 889.153 723.395 889.17 723.391C885.06 724.274 889.385 725.689 889.515 725.863C891.263 728.189 892.955 728.587 892.57 731.99C892.29 734.474 890.941 736.888 889.666 738.982C887.039 743.295 883.608 747.125 879.995 750.634C877.344 753.209 874.099 756.376 870.144 756.398C866.195 756.42 862.296 753.271 859.084 751.314C851.35 746.602 843.617 741.891 835.884 737.179C832.804 735.302 829.992 740.135 833.062 742.006C841.054 746.874 849.045 751.743 857.036 756.612C862.868 760.165 868.655 763.704 875.56 760.773C880.475 758.687 884.487 754.295 887.988 750.367C891.368 746.575 894.609 742.423 896.607 737.719C898.223 733.915 899.046 729.429 896.961 725.619C895.052 722.131 890.371 718.594 886.279 720.411C877.396 724.356 892.423 732.918 895.546 734.349C907.032 739.61 918.75 732.096 927.398 724.821C939.076 714.997 948.863 702.996 959.204 691.827C970.023 680.141 988.381 653.68 970.426 640.309C964.579 635.955 957.768 636.268 950.817 636.394C942.374 636.548 933.729 637.235 925.309 636.426C915.975 635.529 909.17 630.791 902.955 624.063C897.169 617.798 891.691 611.226 886.155 604.741C862.879 577.482 840.247 549.647 815.757 523.451C772.63 477.32 717.605 434.822 651.81 433.019C586.975 431.244 527.722 465.067 484.162 510.982C473.286 522.445 464.265 535.848 452.805 546.701C449.009 550.296 440.059 558.627 434.48 553.544C429.842 549.318 433.54 540.803 436.675 536.868C444.235 527.38 457.586 522.726 468.223 517.736C481.825 511.354 494.448 503.013 507.834 496.169C565.239 466.814 634.665 450.119 696.737 475.43C755.294 499.308 788.686 558.614 801.318 617.944C808.381 651.116 809.072 684.544 810.003 718.278C810.368 731.498 811.39 745.105 816.045 757.601C818.194 763.368 821.052 768.822 824.806 773.709C828.937 779.087 834.282 783.283 838.631 788.467C843.105 793.801 848.562 801.942 844.769 809.044C841.49 815.184 833.511 817.991 827.248 819.73C810.446 824.395 791.153 824.497 774.152 820.772C761.519 818.004 747.026 813.564 741.531 800.647L740.528 804.471C742.456 803.266 744.197 803.109 746.316 803.825L744.646 799.719C736.761 818.295 713.981 826.532 695.884 817.503C686.427 812.785 682.295 803.995 682.161 793.674C682 781.153 685.709 768.502 687.51 756.159C690.987 732.328 692.653 708.109 690.193 684.09C688.231 664.946 684.058 644.021 669.213 630.446C638.282 602.163 591.583 620.026 559.722 636.407C519.103 657.29 483.255 686.036 444.617 710.15C406.752 733.78 364.294 753.221 318.6 749.435C275.757 745.886 237.126 721.345 211.664 687.309C199.775 671.416 190.53 653.6 183.879 634.921C177.823 617.913 172.638 599.417 172.833 581.226C173.161 550.666 190.192 524.721 212.925 505.523C236.525 485.593 265.307 471.968 294.273 461.792C306.388 457.536 318.71 453.924 331.168 450.821C336.451 449.505 341.734 448.192 347.016 446.878C352.166 445.596 361.945 442.179 362.442 450.989C362.76 456.617 355.379 459.166 351.343 461.475C349.474 462.545 349.595 465.204 351.343 466.301C362.354 473.21 373.364 480.119 384.374 487.028C387.94 489.266 395.301 492.216 396.792 496.57C399.114 503.351 391.543 506.624 386.44 503.644C383.85 502.131 381.35 500.434 378.813 498.834C372.707 494.982 366.601 491.131 360.494 487.28C357.662 485.494 355.158 489.36 357.108 491.669C361.334 496.674 365.561 501.679 369.788 506.683C371.585 508.811 373.596 510.869 375.229 513.125C380.227 520.031 371.529 527.945 365.365 521.587C363.218 519.374 359.055 522.363 360.975 524.974C366.112 531.958 357.381 539.98 351.181 533.567C349.036 531.348 344.876 534.341 346.791 536.954C350.286 541.719 347.443 549.354 340.682 547.798C336.574 546.853 333.411 541.376 330.151 538.813C323.77 533.797 315.949 531.839 308.157 534.626C300.05 537.525 294.055 544.004 288.976 550.692C282.468 559.261 276.859 568.491 271.802 577.978C252.5 614.189 241.075 654.87 215.246 687.398C203.309 702.431 188.298 715.45 170.221 722.431C151.177 729.785 129.738 730.479 110.185 724.716C73.0837 713.78 47.3353 679.443 41.4438 642C34.9583 600.782 54.269 560.148 80.9893 529.817C95.6623 513.162 112.476 498.484 129.26 484.019C144.105 471.225 160.023 458.856 171.231 442.551C176.587 434.758 180.795 425.947 182.333 416.562C183.96 406.631 182.739 396.625 180.386 386.915C177.847 376.437 174.064 366.312 171.376 355.875C168.903 346.27 167.059 336.374 166.11 326.5C164.272 307.365 165.947 284.374 181.783 271.105C188.8 265.226 198.378 261.608 207.114 259.203C214.5 257.169 222.145 256.233 229.8 256.771C257.248 258.7 278.033 280.794 285.417 306.209C288.829 317.953 289.686 330.76 286.506 342.656C281.942 359.732 267.514 371.24 250.934 375.835C242.554 378.157 233.898 378.73 225.255 377.982C221.672 377.671 221.693 383.262 225.256 383.57Z" fill="black"/>
<path d="M249.577 321.611C248.33 327.876 259.017 327.056 256.932 320.801C255.508 316.531 250.374 317.63 249.577 321.611Z" fill="black"/>
<path d="M247.781 321.115C247.529 322.426 247.577 323.675 248.131 324.9C248.525 325.773 249.251 326.511 250.074 326.992C251.663 327.92 253.791 328.04 255.488 327.345C256.566 326.903 257.44 326.278 258.136 325.336C258.755 324.5 259.05 323.434 259.065 322.402C259.103 319.763 257.375 316.836 254.642 316.326C251.448 315.73 248.436 317.981 247.781 321.115C247.582 322.067 248.059 323.174 249.082 323.407C250.015 323.62 251.161 323.126 251.374 322.106C251.427 321.852 251.495 321.603 251.585 321.359C251.596 321.329 251.627 321.216 251.646 321.204C251.661 321.194 251.425 321.675 251.558 321.424C251.62 321.305 251.678 321.184 251.746 321.068C251.8 320.977 251.856 320.888 251.916 320.802C252.173 320.428 251.641 321.108 251.883 320.84C252.044 320.662 252.204 320.489 252.387 320.334C252.696 320.072 252.07 320.541 252.301 320.4C252.394 320.343 252.481 320.278 252.575 320.222C252.668 320.167 252.764 320.118 252.859 320.068C253.227 319.875 252.409 320.221 252.806 320.09C252.984 320.031 253.161 319.982 253.344 319.938C253.765 319.839 252.878 319.97 253.225 319.95C253.339 319.943 253.453 319.934 253.568 319.934C253.671 319.934 253.773 319.946 253.875 319.949C254.148 319.958 253.332 319.836 253.719 319.932C253.819 319.957 253.92 319.978 254.019 320.008C254.063 320.021 254.106 320.037 254.15 320.051C254.482 320.151 253.789 319.875 253.964 319.966C254.143 320.06 254.313 320.165 254.489 320.264C254.699 320.383 254.293 320.118 254.287 320.105C254.298 320.128 254.377 320.178 254.401 320.2C254.497 320.284 254.588 320.373 254.674 320.466C254.719 320.514 254.758 320.567 254.804 320.614C254.951 320.767 254.546 320.246 254.661 320.428C254.727 320.534 254.804 320.633 254.868 320.741C254.929 320.841 254.985 320.943 255.037 321.047C255.064 321.101 255.088 321.157 255.115 321.211C255.269 321.525 254.959 320.77 255.07 321.112C255.141 321.33 255.216 321.544 255.27 321.767C255.296 321.871 255.314 321.976 255.336 322.081C255.421 322.489 255.299 321.578 255.323 321.987C255.333 322.167 255.343 322.345 255.335 322.525C255.331 322.61 255.307 322.709 255.312 322.794C255.314 322.823 255.41 322.242 255.354 322.472C255.34 322.527 255.333 322.585 255.32 322.641C255.287 322.786 255.238 322.925 255.194 323.067C255.119 323.305 255.447 322.539 255.265 322.895C255.224 322.974 255.184 323.053 255.139 323.129C255.099 323.197 255.054 323.262 255.011 323.329C254.823 323.618 255.31 322.974 255.144 323.16C255.034 323.283 254.926 323.406 254.803 323.518C254.754 323.563 254.661 323.616 254.625 323.67C254.609 323.694 255.059 323.355 254.877 323.474C254.848 323.493 254.82 323.515 254.792 323.535C254.662 323.625 254.527 323.706 254.387 323.78C254.317 323.817 254.245 323.849 254.174 323.885C253.886 324.031 254.689 323.689 254.349 323.811C254.198 323.865 254.047 323.917 253.892 323.959C253.736 324.001 253.578 324.031 253.42 324.06C253.066 324.126 253.859 324.017 253.649 324.029C253.56 324.035 253.471 324.046 253.381 324.051C253.23 324.058 253.078 324.059 252.927 324.053C252.847 324.049 252.767 324.044 252.688 324.037C252.253 323.996 253.081 324.106 252.868 324.063C252.565 324.002 252.283 323.92 251.991 323.821C251.798 323.756 252.501 324.055 252.271 323.938C252.233 323.919 252.194 323.902 252.156 323.883C252.08 323.845 252.006 323.805 251.933 323.761C251.86 323.718 251.792 323.669 251.72 323.624C251.46 323.461 252.152 323.992 251.858 323.73C251.731 323.617 251.619 323.497 251.503 323.372C251.295 323.146 251.822 323.839 251.61 323.504C251.564 323.43 251.517 323.358 251.476 323.282C251.43 323.199 251.283 322.864 251.442 323.241C251.603 323.622 251.461 323.275 251.432 323.182C251.403 323.092 251.379 323.001 251.358 322.909C251.338 322.817 251.28 322.42 251.337 322.837C251.394 323.258 251.346 322.846 251.342 322.746C251.338 322.638 251.338 322.53 251.342 322.421C251.346 322.307 251.36 322.193 251.368 322.079C251.383 321.854 251.28 322.629 251.334 322.326C251.348 322.252 251.36 322.179 251.374 322.106C251.558 321.152 251.106 320.049 250.072 319.814C249.152 319.604 247.978 320.092 247.781 321.115Z" fill="black"/>
<path d="M276.33 315.725C275.083 321.99 285.77 321.17 283.684 314.915C282.26 310.645 277.127 311.744 276.33 315.725Z" fill="black"/>
<path d="M274.533 315.23C274.281 316.541 274.33 317.789 274.883 319.015C275.277 319.888 276.004 320.626 276.827 321.107C278.415 322.035 280.543 322.155 282.241 321.459C283.318 321.018 284.192 320.392 284.889 319.451C285.507 318.614 285.803 317.549 285.817 316.516C285.855 313.878 284.127 310.951 281.395 310.441C278.2 309.845 275.189 312.095 274.533 315.23C274.334 316.181 274.811 317.289 275.834 317.522C276.768 317.734 277.913 317.241 278.126 316.221C278.18 315.967 278.247 315.717 278.337 315.474C278.348 315.444 278.38 315.331 278.398 315.319C278.413 315.308 278.178 315.79 278.31 315.538C278.373 315.419 278.431 315.298 278.499 315.182C278.552 315.092 278.609 315.003 278.668 314.916C278.925 314.543 278.393 315.223 278.635 314.955C278.796 314.777 278.956 314.604 279.139 314.448C279.448 314.187 278.823 314.655 279.053 314.514C279.146 314.457 279.234 314.392 279.328 314.336C279.421 314.281 279.516 314.233 279.612 314.183C279.979 313.989 279.161 314.335 279.558 314.204C279.737 314.145 279.914 314.096 280.096 314.053C280.517 313.953 279.631 314.084 279.977 314.064C280.092 314.057 280.205 314.048 280.32 314.049C280.423 314.049 280.525 314.06 280.628 314.064C280.901 314.073 280.084 313.951 280.471 314.047C280.572 314.072 280.672 314.092 280.771 314.122C280.815 314.136 280.859 314.152 280.903 314.165C281.234 314.265 280.542 313.99 280.716 314.081C280.896 314.175 281.065 314.28 281.241 314.379C281.452 314.498 281.046 314.232 281.04 314.219C281.05 314.242 281.129 314.293 281.154 314.315C281.25 314.398 281.341 314.487 281.427 314.581C281.471 314.629 281.511 314.682 281.556 314.729C281.704 314.881 281.298 314.36 281.413 314.542C281.48 314.648 281.556 314.748 281.621 314.855C281.681 314.955 281.737 315.058 281.789 315.162C281.816 315.216 281.841 315.271 281.867 315.325C282.022 315.64 281.711 314.884 281.822 315.227C281.893 315.445 281.969 315.659 282.023 315.882C282.048 315.986 282.067 316.091 282.089 316.195C282.173 316.603 282.051 315.693 282.075 316.102C282.086 316.282 282.095 316.459 282.087 316.639C282.083 316.725 282.059 316.823 282.065 316.908C282.067 316.937 282.162 316.356 282.106 316.586C282.092 316.642 282.085 316.699 282.073 316.755C282.04 316.901 281.99 317.039 281.946 317.181C281.872 317.42 282.199 316.654 282.017 317.01C281.977 317.089 281.937 317.167 281.891 317.244C281.851 317.312 281.806 317.377 281.763 317.443C281.576 317.732 282.063 317.089 281.897 317.274C281.786 317.398 281.678 317.52 281.556 317.632C281.506 317.678 281.413 317.731 281.377 317.785C281.361 317.808 281.811 317.469 281.63 317.589C281.601 317.608 281.573 317.63 281.544 317.649C281.414 317.739 281.279 317.821 281.14 317.895C281.069 317.932 280.997 317.964 280.926 318C280.639 318.146 281.441 317.804 281.102 317.925C280.95 317.98 280.8 318.032 280.644 318.073C280.488 318.115 280.331 318.145 280.172 318.175C279.818 318.24 280.611 318.131 280.401 318.144C280.312 318.149 280.223 318.161 280.134 318.165C279.982 318.173 279.831 318.174 279.679 318.167C279.599 318.164 279.52 318.159 279.44 318.151C279.006 318.111 279.834 318.22 279.62 318.177C279.317 318.117 279.036 318.035 278.743 317.936C278.55 317.87 279.254 318.169 279.023 318.053C278.986 318.034 278.946 318.017 278.908 317.998C278.833 317.96 278.758 317.919 278.685 317.876C278.613 317.833 278.544 317.784 278.473 317.739C278.212 317.575 278.904 318.107 278.611 317.845C278.484 317.732 278.371 317.611 278.256 317.486C278.047 317.261 278.575 317.953 278.363 317.618C278.316 317.545 278.27 317.472 278.228 317.396C278.183 317.314 278.036 316.978 278.195 317.356C278.355 317.737 278.213 317.39 278.184 317.297C278.156 317.207 278.131 317.116 278.111 317.024C278.09 316.931 278.032 316.534 278.089 316.952C278.147 317.373 278.098 316.961 278.094 316.861C278.09 316.752 278.09 316.644 278.094 316.536C278.099 316.421 278.112 316.308 278.12 316.194C278.135 315.968 278.032 316.744 278.087 316.44C278.1 316.367 278.112 316.294 278.126 316.221C278.31 315.266 277.859 314.164 276.825 313.928C275.905 313.719 274.73 314.206 274.533 315.23Z" fill="black"/>
<path d="M269.078 320.678C267.931 321.936 267.058 323.421 267.202 325.184C267.335 326.803 268.109 328.222 269.133 329.452C270.96 331.648 273.542 332.955 275.775 334.668C276.664 335.35 277.846 336.236 278.158 337.364C278.485 338.548 277.487 338.682 276.52 338.81C273.529 339.209 270.409 338.678 267.705 337.35C266.803 336.907 265.69 337.106 265.156 338.018C264.676 338.839 264.918 340.122 265.825 340.568C269.031 342.142 272.625 342.923 276.198 342.572C277.84 342.41 279.643 342.158 280.812 340.862C281.969 339.58 282.211 337.684 281.654 336.082C280.582 333.004 277.351 331.236 274.823 329.484C273.691 328.7 272.535 327.841 271.701 326.729C270.782 325.503 270.676 324.451 271.713 323.313C273.325 321.543 270.697 318.901 269.078 320.678Z" fill="black"/>
<path d="M345.326 503.413C349.911 509.71 354.496 516.007 359.081 522.304C359.732 523.198 360.383 524.092 361.034 524.986C361.921 526.205 363.462 526.805 364.858 525.989C366.061 525.285 366.754 523.392 365.861 522.165C361.276 515.868 356.69 509.571 352.105 503.274C351.454 502.38 350.803 501.486 350.152 500.592C349.265 499.373 347.724 498.773 346.328 499.589C345.126 500.292 344.432 502.186 345.326 503.413Z" fill="black"/>
<path d="M331.238 514.622C335.668 521.019 340.097 527.417 344.526 533.814C345.16 534.731 345.794 535.647 346.429 536.563C347.287 537.802 348.879 538.369 350.252 537.566C351.48 536.848 352.118 534.989 351.255 533.742C346.826 527.344 342.397 520.947 337.968 514.549C337.333 513.633 336.699 512.717 336.065 511.8C335.207 510.561 333.615 509.994 332.241 510.798C331.014 511.516 330.375 513.374 331.238 514.622Z" fill="black"/>
<path d="M225.548 380.852C225.548 380.852 234.888 391.063 245.88 397.411C243.553 393.278 242.188 386.161 255.374 379.766C264.915 373.522 266.194 372.291 266.194 372.291C266.194 372.291 241.216 385.161 225.548 380.852Z" fill="black"/>
<path d="M223.572 382.828C229.592 389.396 236.777 395.345 244.469 399.824C246.92 401.251 249.64 398.424 248.293 396C248.108 395.668 247.957 395.316 247.774 394.984C247.585 394.641 247.971 395.554 247.728 394.864C247.65 394.644 247.57 394.425 247.501 394.202C247.378 393.797 247.311 393.385 247.206 392.977C247.108 392.592 247.225 393.553 247.191 392.799C247.18 392.545 247.165 392.292 247.168 392.037C247.171 391.809 247.2 391.582 247.205 391.355C247.212 390.964 247.101 391.89 247.181 391.502C247.202 391.402 247.212 391.3 247.235 391.2C247.299 390.927 247.359 390.655 247.44 390.386C247.498 390.193 247.775 389.471 247.541 390.016C247.763 389.5 248.037 389.005 248.34 388.534C248.401 388.44 248.941 387.696 248.681 388.025C248.919 387.724 249.176 387.438 249.439 387.159C252.145 384.292 255.849 382.808 259.09 380.662C261.404 379.13 263.716 377.591 265.963 375.963C266.707 375.424 267.504 374.901 268.171 374.267C270.547 372.008 267.531 368.465 264.784 369.878C263.953 370.305 263.105 370.702 262.256 371.092C261.317 371.524 260.372 371.94 259.422 372.348C258.802 372.614 259.679 372.246 259.029 372.512C258.728 372.636 258.428 372.76 258.127 372.882C257.442 373.16 256.755 373.431 256.065 373.695C249.967 376.03 243.182 378.087 236.979 378.716C235.091 378.908 233.188 378.99 231.291 378.908C229.37 378.825 228.239 378.678 226.291 378.157C222.813 377.226 221.329 382.616 224.806 383.547C231.897 385.445 239.547 384.364 246.551 382.605C252.616 381.082 258.507 378.876 264.206 376.315C265.349 375.801 266.491 375.278 267.605 374.704L264.218 370.315C264.129 370.399 264.028 370.497 263.925 370.561C263.367 370.903 264.516 370.124 263.948 370.542C263.679 370.74 263.412 370.94 263.142 371.136C260.66 372.935 258.099 374.629 255.541 376.317C251.959 378.679 247.984 380.33 245.092 383.64C243.102 385.919 241.77 388.598 241.593 391.649C241.447 394.155 242.262 396.654 243.467 398.822C244.741 397.547 246.016 396.272 247.29 394.998C239.985 390.743 233.239 385.11 227.525 378.875C225.089 376.218 221.144 380.179 223.572 382.828Z" fill="black"/>
<path d="M287.947 388.246C294.2 384.287 300.454 380.329 306.708 376.37C307.585 375.815 308.462 375.26 309.339 374.704C310.613 373.898 311.123 372.216 310.341 370.881C309.598 369.611 307.798 369.067 306.518 369.878C300.264 373.837 294.01 377.796 287.756 381.754C286.879 382.309 286.002 382.865 285.125 383.42C283.851 384.226 283.342 385.908 284.123 387.244C284.866 388.514 286.666 389.057 287.947 388.246Z" fill="black"/>
<path d="M297.043 404.298C303.296 400.339 309.55 396.38 315.804 392.421C316.681 391.866 317.558 391.311 318.435 390.756C319.709 389.949 320.219 388.268 319.437 386.932C318.694 385.662 316.894 385.119 315.614 385.93C309.36 389.888 303.106 393.847 296.852 397.806C295.975 398.361 295.098 398.916 294.221 399.471C292.947 400.278 292.438 401.96 293.219 403.295C293.962 404.565 295.762 405.108 297.043 404.298Z" fill="black"/>
<path d="M305.068 419.814C311.322 415.855 317.576 411.897 323.83 407.938C324.706 407.383 325.583 406.828 326.46 406.272C327.734 405.466 328.244 403.784 327.463 402.449C326.72 401.178 324.92 400.635 323.639 401.446C317.385 405.405 311.132 409.363 304.878 413.322C304.001 413.877 303.124 414.432 302.247 414.988C300.973 415.794 300.463 417.476 301.244 418.811C301.987 420.082 303.788 420.625 305.068 419.814Z" fill="black"/>
<path d="M189.439 364.495C192.341 359.253 192.978 353.085 193.279 347.101C186.876 346.447 181.695 341.259 179.018 335.406C177.859 332.872 177.054 330.075 177.424 327.313C178.092 322.33 182.749 318.411 187.746 317.856C192.743 317.3 197.783 319.717 201.143 323.457C204.503 327.197 206.33 332.112 207.129 337.076C211.125 332.542 210.38 325.569 208.48 319.832C206.579 314.095 203.723 308.378 204.248 302.358C204.349 301.199 204.59 300.019 205.231 299.049C208.319 294.379 212.671 298.486 215.909 299.763C219.822 301.307 224.571 298.581 227.175 295.605C230.33 291.999 231.648 287.037 231.497 282.248C231.465 281.223 231.353 280.15 230.784 279.296C230.215 278.443 229.054 277.903 228.128 278.344C227.08 278.842 226.853 280.24 226.992 281.392C227.624 286.656 232.808 290.324 237.993 291.429C242.545 292.399 247.457 291.885 251.555 289.681C255.653 287.476 258.852 283.53 259.834 278.981C260.51 275.847 260.027 272.278 257.799 269.973C257.078 269.226 256.119 268.612 255.082 268.652C254.045 268.693 253.017 269.614 253.167 270.641C253.221 271.008 253.409 271.34 253.603 271.656C257.218 277.553 264.433 281.024 271.296 280.169C293.626 277.388 286.048 251.231 273.917 241.303C265.735 234.608 255.224 231.428 244.798 229.681C225.586 226.462 205.074 227.798 187.853 236.903C169.554 246.577 156.244 264.692 151.154 284.757C142.611 318.43 150.973 360.931 174.99 386.913C177.724 382.284 178.259 377.877 175.114 373.278C181.205 373.384 186.525 369.758 189.439 364.495Z" fill="black"/>
<path d="M191.852 365.905C194.985 360.113 195.738 353.579 196.074 347.101C196.159 345.469 194.716 344.473 193.279 344.306C189.683 343.889 186.44 341.419 184.185 338.586C181.866 335.672 179.487 331.21 180.238 327.368C180.9 323.983 183.941 321.491 187.278 320.753C190.986 319.933 195.243 321.676 198.052 324.298C201.833 327.829 203.602 332.827 204.435 337.819C204.771 339.839 207.813 340.572 209.106 339.053C212.104 335.528 213.146 331.031 212.724 326.473C212.272 321.595 210.453 317.208 208.862 312.627C208.065 310.33 207.269 307.928 207.055 305.493C206.885 303.551 206.729 301.318 208.195 299.853C208.31 299.738 208.279 299.763 208.559 299.687C209.145 299.53 208.766 299.666 208.652 299.67C208.835 299.663 209.036 299.668 209.22 299.69C208.852 299.645 209.728 299.857 209.915 299.919C210.218 300.019 210.506 300.15 210.977 300.386C212.678 301.24 214.332 302.365 216.219 302.77C220.903 303.776 225.796 301.221 228.916 297.844C232.245 294.24 233.889 289.485 234.243 284.65C234.425 282.183 234.42 279.319 232.76 277.321C230.988 275.187 227.725 274.695 225.659 276.722C222.163 280.152 225.14 286.273 227.909 289.11C234.485 295.849 246.376 296.401 254.103 291.422C257.982 288.923 261.024 285.101 262.298 280.637C263.551 276.253 262.964 270.747 259.343 267.597C257.18 265.715 253.911 265.107 251.709 267.305C249.498 269.511 250.503 272.267 252.129 274.44C254.874 278.107 258.692 280.79 263.068 282.156C269.813 284.262 278.392 282.79 283.544 277.741C292.293 269.169 287.858 254.393 281.682 245.718C271.26 231.08 251.311 226.915 234.454 225.62C215.264 224.145 195.117 227.717 179.158 238.962C164.728 249.13 154.181 264.354 149.213 281.257C144.427 297.544 144.084 315.137 146.717 331.824C149.371 348.651 155.443 365.266 165.269 379.253C167.639 382.626 170.222 385.856 173.013 388.89C174.236 390.218 176.532 389.832 177.403 388.324C178.864 385.794 179.944 383.034 180.051 380.085C180.157 377.146 179.131 374.294 177.527 371.868C176.723 373.27 175.918 374.671 175.114 376.073C182.183 376.109 188.417 371.968 191.852 365.905C193.628 362.771 188.801 359.952 187.025 363.085C184.52 367.506 180.2 370.509 175.114 370.484C173.081 370.473 171.516 372.897 172.701 374.689C173.8 376.352 174.534 378.068 174.461 380.085C174.391 382.03 173.533 383.846 172.577 385.503C174.04 385.314 175.503 385.126 176.966 384.937C166.803 373.895 159.809 360.203 155.591 345.866C151.272 331.182 149.752 315.678 151.239 300.439C152.713 285.334 157.61 270.729 166.848 258.497C176.573 245.62 190.439 236.792 206.115 233.11C214.674 231.099 223.518 230.564 232.282 231.064C240.919 231.558 249.663 232.944 257.861 235.761C264.488 238.038 271.054 241.517 275.624 246.948C275.809 247.168 275.988 247.391 276.169 247.614C276.569 248.109 276.114 247.513 276.488 248.033C276.88 248.578 277.269 249.122 277.637 249.684C278.358 250.784 279.019 251.923 279.618 253.094C279.889 253.625 280.148 254.162 280.393 254.706C280.463 254.861 280.532 255.016 280.6 255.172C280.554 255.068 280.409 254.703 280.615 255.209C280.743 255.523 280.867 255.838 280.986 256.155C281.442 257.367 281.83 258.606 282.137 259.864C282.282 260.46 282.409 261.06 282.516 261.664C282.566 261.942 282.609 262.221 282.65 262.5C282.715 262.93 282.602 262.04 282.644 262.471C282.662 262.668 282.687 262.865 282.705 263.063C282.811 264.218 282.834 265.383 282.75 266.541C282.729 266.841 282.697 267.14 282.664 267.439C282.728 266.86 282.658 267.453 282.615 267.688C282.511 268.264 282.378 268.835 282.21 269.396C282.138 269.638 282.06 269.879 281.975 270.117C281.924 270.26 281.556 271.086 281.857 270.451C281.611 270.97 281.357 271.481 281.056 271.971C280.924 272.186 280.779 272.391 280.641 272.602C280.266 273.176 280.803 272.441 280.486 272.814C280.103 273.266 279.703 273.698 279.266 274.097C279.042 274.302 278.811 274.5 278.572 274.688C279.003 274.348 278.444 274.767 278.29 274.871C277.749 275.235 277.183 275.562 276.599 275.852C276.477 275.912 275.772 276.236 276.211 276.05C275.882 276.189 275.545 276.313 275.207 276.429C274.487 276.678 273.752 276.882 273.01 277.05C271.328 277.43 270.016 277.583 268.161 277.471C264.843 277.271 261.419 275.841 258.904 273.618C258.214 273.009 257.557 272.348 256.978 271.632C256.779 271.386 256.594 271.131 256.417 270.869C256.306 270.704 256.163 270.398 256.016 270.246L255.829 269.924C256.066 270.489 256.003 270.925 255.641 271.23C255.478 271.361 255.156 271.477 255.149 271.431C255.147 271.418 256.062 272.208 256.073 272.221C256.541 272.794 256.842 273.484 257.039 274.192C257.936 277.402 256.679 280.972 254.65 283.528C252.238 286.566 248.654 288.443 244.83 288.964C241.167 289.463 237.247 288.839 234.078 286.909C232.726 286.086 231.503 284.999 230.707 283.688C230.307 283.028 230.101 282.553 229.917 281.848C229.815 281.461 229.761 281.087 229.754 280.91C229.753 280.859 229.791 280.439 229.764 280.418C229.833 280.47 229.703 280.62 229.657 280.637C229.555 280.675 229.051 280.873 228.937 280.951C229.086 280.85 228.637 280.969 228.618 280.994C228.503 281.138 228.639 281.267 228.647 281.451C228.686 282.387 228.731 283.31 228.679 284.25C228.573 286.189 228.155 288.144 227.422 289.945C226.138 293.097 223.542 296.045 220.217 297.085C219.428 297.331 218.696 297.486 217.861 297.397C217.036 297.31 216.81 297.144 216.157 296.812C214.588 296.014 213.08 295.095 211.401 294.529C207.143 293.094 203.02 295.624 201.845 299.891C200.606 304.388 201.863 309.398 203.323 313.68C204.676 317.647 206.454 321.54 207.053 325.72C207.51 328.915 207.318 332.556 205.153 335.101L209.825 336.334C208.881 330.679 206.646 325.047 202.575 320.902C198.57 316.823 192.768 314.361 187.027 315.155C181.801 315.879 177.176 319.449 175.295 324.392C173.231 329.813 175.641 336.14 178.794 340.646C182.268 345.61 187.172 349.189 193.28 349.896C192.348 348.965 191.417 348.033 190.485 347.102C190.202 352.561 189.671 358.193 187.025 363.085C185.314 366.249 190.138 369.074 191.852 365.905Z" fill="black"/>
<path d="M164.948 294.861C167.485 291.03 168.111 285.998 166.589 281.662C165.067 277.327 161.434 273.79 157.059 272.385C150.512 270.282 143.421 272.882 137.318 276.051C135.13 277.187 132.631 279.176 133.313 281.545C133.572 282.445 134.621 283.232 135.423 282.747C135.97 282.416 136.102 281.683 136.091 281.044C135.815 264.784 103.894 276.595 97.9057 281.982C83.3343 295.09 85.2682 320.574 99.1026 333.536C100.381 334.733 102.249 335.875 103.767 335.002C104.812 334.4 105.192 332.992 104.878 331.828C104.564 330.664 103.696 329.724 102.733 328.997C91.7732 320.732 70.2262 332.921 61.6809 340.242C52.2049 348.359 45.908 360.544 46.3298 373.015C46.6444 382.314 53.2026 400.259 65.0066 399.829C68.467 399.703 71.8386 395.895 70.1696 392.861C65.878 396.325 63.7728 402.033 63.868 407.547C63.9632 413.062 66.0512 418.39 68.9299 423.095C77.2933 436.763 92.8524 445.734 108.872 446.122C117.817 446.34 127.992 443.021 131.358 434.731C132.369 432.242 132.584 429.167 130.923 427.056C129.261 424.945 125.329 424.802 124.196 427.238C123.451 428.838 124.147 430.744 125.126 432.212C128.034 436.572 133.302 438.962 138.528 439.356C143.754 439.749 148.963 438.369 153.853 436.482C165.591 431.951 176.82 423.424 179.993 411.248C182.158 402.942 180.302 394.169 178.222 385.841C174.651 371.545 170.423 357.416 165.665 343.47" fill="black"/>
<path d="M167.361 296.271C171.493 289.833 170.986 281.414 166.238 275.47C161.402 269.414 153.565 267.847 146.279 269.547C142.532 270.421 138.779 271.997 135.435 273.895C132.413 275.61 129.394 278.841 130.732 282.582C131.461 284.618 133.696 286.16 135.891 285.558C138.004 284.978 138.938 282.849 138.88 280.818C138.823 278.827 138.34 276.718 137.215 275.045C132.406 267.897 121.496 269.74 114.461 271.578C110.301 272.664 106.23 274.172 102.351 276.025C99.0099 277.621 96.0841 279.543 93.6168 282.341C85.7154 291.302 83.545 303.893 86.0279 315.367C87.2307 320.925 89.5975 326.346 93.0365 330.887C94.8792 333.32 97.0895 336.175 99.9341 337.458C101.934 338.36 104.317 338.349 106.012 336.794C107.487 335.441 108.031 333.342 107.642 331.408C107.025 328.342 104.137 326.209 101.427 325.025C98.8941 323.918 96.1781 323.428 93.415 323.436C87.5226 323.452 81.7733 325.395 76.4541 327.776C65.6853 332.599 55.7531 339.981 49.6696 350.248C46.0498 356.357 43.8241 363.321 43.5432 370.433C43.3447 375.459 44.3569 380.516 46.0962 385.218C47.919 390.147 50.5341 395.182 54.6008 398.637C58.7916 402.198 65.317 404.435 70.1288 400.698C73.0153 398.456 74.2422 394.814 72.5827 391.45C71.7205 389.702 69.4731 389.823 68.1932 390.884C60.2639 397.459 59.6653 409.011 63.2694 418.002C66.7578 426.705 73.0333 434.05 80.6398 439.45C88.0405 444.704 96.8214 447.915 105.852 448.743C114.058 449.495 123.214 447.904 129.478 442.181C132.618 439.313 135.141 434.924 134.931 430.56C134.807 427.987 133.786 425.447 131.612 423.947C129.878 422.75 127.548 422.336 125.507 422.892C123.102 423.549 121.42 425.547 121.151 428.014C120.848 430.806 122.314 433.315 124.043 435.381C126.928 438.827 131.356 441.021 135.736 441.793C141.047 442.729 146.447 441.917 151.538 440.267C155.988 438.825 160.335 436.889 164.338 434.464C171.989 429.829 178.59 423.264 181.797 414.788C185.668 404.558 183.032 393.405 180.442 383.215C177.651 372.229 174.474 361.342 170.97 350.562C170.119 347.944 169.248 345.333 168.36 342.728C167.873 341.299 166.439 340.359 164.922 340.776C163.531 341.158 162.481 342.778 162.97 344.213C166.208 353.717 169.207 363.301 171.917 372.968C173.269 377.79 174.556 382.632 175.753 387.495C176.874 392.046 177.902 396.652 178.12 401.348C178.321 405.652 177.835 409.988 176.139 413.982C174.738 417.282 172.626 420.258 170.147 422.832C164.898 428.28 158.052 432.14 150.933 434.583C143.545 437.118 133.985 438.233 128.238 431.71C127.71 431.11 127.206 430.417 126.902 429.674C126.785 429.388 126.741 429.069 126.679 428.78C126.616 428.487 126.485 429.993 126.744 428.355C126.732 428.43 126.53 428.677 126.721 428.423C126.888 428.2 126.754 428.384 126.671 428.435C127.114 428.165 126.865 428.322 126.731 428.363C126.907 428.309 127.081 428.251 127.263 428.219C127.125 428.243 126.803 428.246 127.362 428.237C127.755 428.231 128.206 428.314 128.676 428.687C128.44 428.5 128.801 428.886 128.834 428.935C129.03 429.219 129.128 429.484 129.218 429.809C129.423 430.554 129.387 431.371 129.236 432.132C128.919 433.722 128.146 435.23 127.184 436.474C123.201 441.626 115.743 443.394 109.383 443.336C101.891 443.267 94.4513 441.116 87.9338 437.456C81.3156 433.739 75.569 428.46 71.5421 422.006C67.371 415.321 64.5944 406.534 68.61 399.113C69.5166 397.438 70.6804 396.052 72.1459 394.837C70.6827 394.648 69.2196 394.46 67.7564 394.271C67.7497 394.258 67.8185 394.709 67.8448 394.545C67.7681 395.023 67.7233 395.125 67.4758 395.486C67.1442 395.968 66.4858 396.564 65.9103 396.805C65.0868 397.148 64.4737 397.073 63.5257 396.991C63.0251 396.947 64.1702 397.124 63.3559 396.965C63.185 396.932 63.0148 396.899 62.845 396.86C62.3796 396.753 61.9312 396.607 61.4799 396.453C61.3574 396.411 60.8457 396.18 61.3089 396.391C61.1514 396.319 60.995 396.245 60.8405 396.166C60.4512 395.97 60.072 395.752 59.7038 395.518C58.8011 394.945 58.8555 394.979 58.0431 394.233C57.3921 393.635 56.7854 392.989 56.2179 392.312C55.8235 391.841 55.2963 391.123 54.77 390.31C52.6573 387.049 51.4291 384.052 50.3961 380.375C49.9293 378.714 49.5627 377.026 49.3089 375.319C49.3979 375.917 49.2593 374.883 49.2427 374.719C49.2076 374.372 49.178 374.025 49.1565 373.677C49.0858 372.532 49.0889 371.381 49.1405 370.235C49.5839 360.391 54.4797 351.05 61.4515 344.237C62.2465 343.46 63.0692 342.711 63.9193 341.995C64.1937 341.764 64.4711 341.536 64.7509 341.311C64.9139 341.18 65.0778 341.051 65.2423 340.922C65.3943 340.803 65.3758 340.817 65.1869 340.964C65.2919 340.884 65.3972 340.804 65.5028 340.724C67.0169 339.597 68.5667 338.524 70.1623 337.515C73.5654 335.364 77.3468 333.329 80.9436 331.895C82.8992 331.116 84.8992 330.44 86.9407 329.923C88.9798 329.407 90.4351 329.143 92.3735 329.052C93.2543 329.01 94.1379 329.015 95.0174 329.08C95.2555 329.098 95.4931 329.12 95.7303 329.147C96.2626 329.208 95.0856 329.026 95.968 329.184C96.4252 329.266 96.8797 329.358 97.3292 329.475C98.807 329.861 100.156 330.398 101.319 331.435C101.679 331.756 102.045 332.099 102.214 332.566C102.111 332.282 102.171 333.064 102.206 332.695C102.207 332.691 102.429 332.531 102.402 332.507C102.262 332.384 101.673 332.077 101.407 331.865C99.9772 330.725 98.5186 328.965 97.5732 327.678C95.1326 324.357 93.402 320.868 92.2405 317.049C89.9036 309.364 89.9247 301.043 93.0741 293.516C93.6765 292.076 94.7834 290.058 95.8215 288.539C96.8558 287.024 98.1596 285.536 99.6362 284.181C99.8078 284.024 100.088 283.836 100.242 283.651C100.486 283.359 99.6661 284.054 100.2 283.687C100.621 283.398 101.037 283.109 101.471 282.84C102.513 282.195 103.598 281.62 104.697 281.081C105.28 280.795 105.869 280.521 106.462 280.256C106.772 280.117 107.084 279.981 107.397 279.847C106.833 280.088 107.965 279.616 108.136 279.547C109.584 278.969 111.052 278.44 112.536 277.963C114.106 277.458 115.695 277.009 117.301 276.63C118.036 276.457 118.774 276.299 119.516 276.158C119.881 276.089 120.248 276.024 120.615 275.963C120.817 275.93 121.019 275.899 121.221 275.867C121.363 275.845 122.09 275.756 121.441 275.834C122.897 275.66 124.358 275.546 125.825 275.573C126.468 275.585 127.104 275.649 127.745 275.693C128.258 275.728 127.697 275.686 127.613 275.672C127.811 275.704 128.01 275.733 128.208 275.77C128.528 275.83 128.846 275.899 129.161 275.981C129.435 276.053 129.707 276.133 129.975 276.223C130.185 276.294 130.962 276.671 130.242 276.305C130.768 276.572 131.254 276.854 131.75 277.173C131.065 276.733 131.78 277.217 131.959 277.392C132.12 277.55 132.259 277.727 132.417 277.888C131.856 277.316 132.443 277.941 132.573 278.157C132.725 278.41 132.851 278.674 132.977 278.94C132.618 278.182 133.011 279.128 133.064 279.32C133.133 279.573 133.17 279.834 133.237 280.086C133.408 280.734 133.232 279.473 133.248 280.165C133.251 280.308 133.273 280.454 133.28 280.597C133.287 280.726 133.27 280.912 133.296 281.043C133.451 281.821 133.272 280.646 133.737 280.449L135.147 280.068C135.628 280.015 135.838 280.608 135.996 280.879C135.985 280.517 135.991 280.446 136.014 280.666C135.917 280.826 135.959 280.75 136.138 280.439C136.634 279.926 137.119 279.414 137.782 279.001C139.628 277.851 141.703 276.938 143.737 276.175C147.811 274.645 152.253 273.714 156.492 275.139C159.724 276.225 162.49 278.903 163.766 282.055C165.29 285.822 164.7 290.075 162.535 293.45C160.586 296.486 165.423 299.292 167.361 296.271Z" fill="black"/>
<path d="M247.802 352.935C250.669 353.828 253.536 354.722 256.402 355.615C257.333 355.905 258.476 355.272 258.694 354.313C258.925 353.301 258.389 352.332 257.393 352.021C254.526 351.128 251.66 350.235 248.793 349.342C247.862 349.052 246.72 349.685 246.501 350.643C246.271 351.655 246.806 352.625 247.802 352.935Z" fill="black"/>
<path d="M243.66 307.806C243.964 307.47 244.286 307.151 244.632 306.857C244.733 306.77 244.836 306.685 244.94 306.603C244.801 306.712 244.805 306.704 244.946 306.607C245.122 306.486 245.297 306.364 245.477 306.251C245.861 306.009 246.26 305.793 246.67 305.602C246.817 305.533 246.985 305.467 246.739 305.565C246.838 305.526 246.937 305.487 247.037 305.449C247.262 305.365 247.49 305.289 247.72 305.22C248.154 305.089 248.597 304.985 249.044 304.908C249.149 304.89 249.254 304.873 249.36 304.858C249.19 304.882 249.142 304.884 249.341 304.868C249.58 304.849 249.819 304.83 250.059 304.822C250.513 304.808 250.963 304.831 251.415 304.867C251.615 304.883 251.565 304.885 251.396 304.859C251.501 304.875 251.606 304.891 251.711 304.91C251.974 304.957 252.234 305.016 252.493 305.082C253.436 305.323 254.558 304.775 254.785 303.781C255.005 302.812 254.494 301.747 253.483 301.489C249.056 300.36 244.108 301.771 241.025 305.171C240.37 305.893 240.258 307.102 241.025 307.806C241.739 308.461 242.96 308.577 243.66 307.806Z" fill="black"/>
<path d="M275.228 308.179C275.955 307.925 276.693 307.707 277.443 307.532C277.765 307.457 278.088 307.39 278.412 307.331C278.629 307.291 278.846 307.258 279.063 307.222C279.473 307.155 278.77 307.25 279.222 307.201C280.702 307.039 282.182 307.013 283.666 307.15C284.64 307.24 285.572 306.229 285.529 305.287C285.481 304.201 284.709 303.52 283.666 303.424C280.498 303.131 277.24 303.537 274.237 304.586C273.319 304.906 272.612 305.875 272.936 306.878C273.23 307.785 274.243 308.523 275.228 308.179Z" fill="black"/>
<path d="M428.824 192.658C438.916 205.665 449.569 218.238 460.2 230.805C471.652 244.343 483.188 257.812 494.517 271.454C500.212 278.311 505.862 285.208 511.326 292.251C512.252 293.444 514.306 293.224 515.279 292.251C516.457 291.073 516.207 289.495 515.279 288.298C505.085 275.161 494.323 262.466 483.584 249.775C472.112 236.216 460.558 222.725 449.215 209.057C443.646 202.347 438.122 195.596 432.776 188.706C431.85 187.512 429.797 187.733 428.824 188.706C427.646 189.884 427.895 191.461 428.824 192.658Z" fill="#F953B2"/>
<path d="M511.089 262.326C513.745 270.028 516.401 277.73 519.057 285.432C519.549 286.858 520.973 287.802 522.495 287.384C523.882 287.003 524.941 285.379 524.447 283.946C521.791 276.244 519.135 268.542 516.478 260.841C515.986 259.414 514.562 258.47 513.041 258.889C511.653 259.27 510.594 260.893 511.089 262.326Z" fill="#F953B2"/>
<path d="M53.1108 759.297C54.9141 756.592 56.7175 753.887 58.5208 751.182C59.3337 749.963 58.7988 748.035 57.5182 747.359C56.1126 746.616 54.5619 747.06 53.6944 748.361C51.8911 751.066 50.0877 753.771 48.2844 756.476C47.4715 757.696 48.0064 759.623 49.287 760.3C50.6926 761.043 52.2433 760.599 53.1108 759.297Z" fill="#6966ED"/>
<path d="M88.478 757.887C87.7585 765.373 89.38 772.964 92.9165 779.585C93.6273 780.916 95.4734 781.329 96.7403 780.588C98.0867 779.8 98.4565 778.1 97.7429 776.764C94.6318 770.939 93.4367 764.45 94.0675 757.887C94.2121 756.382 92.6795 755.092 91.2727 755.092C89.6409 755.092 88.623 756.378 88.478 757.887Z" fill="#6966ED"/>
<path d="M25.743 734.884C28.448 734.434 31.153 733.983 33.858 733.532C34.5078 733.424 35.2091 732.793 35.5283 732.247C35.8789 731.648 36.0274 730.766 35.81 730.094C35.5912 729.418 35.1721 728.765 34.5256 728.424C33.8228 728.052 33.153 728.012 32.372 728.142C29.667 728.593 26.962 729.044 24.257 729.494C23.6072 729.603 22.9059 730.233 22.5867 730.779C22.2361 731.378 22.0876 732.261 22.305 732.932C22.5238 733.609 22.9429 734.261 23.5894 734.603C24.2922 734.974 24.962 735.015 25.743 734.884Z" fill="#6966ED"/>
</svg>
