<svg width="1000" height="1000" viewBox="0 0 1000 1000" fill="none" xmlns="http://www.w3.org/2000/svg">
<path d="M128.329 211.39C128.042 212.67 128.047 214.001 128.812 215.124C129.512 216.15 130.543 216.789 131.689 217.216C132.677 217.583 133.738 217.715 134.781 217.818C135.287 217.868 135.794 217.9 136.301 217.943C136.554 217.964 136.807 217.99 137.06 218.015C137.296 218.043 137.312 218.045 137.106 218.019C137.231 218.037 137.356 218.058 137.48 218.081C137.721 218.126 137.96 218.177 138.196 218.243C138.287 218.268 138.916 218.522 138.513 218.326C138.605 218.371 139.139 218.739 138.813 218.458C138.898 218.53 138.977 218.607 139.05 218.69C138.918 218.514 138.911 218.519 139.03 218.707C138.949 218.493 138.942 218.492 139.009 218.705C138.986 218.455 138.977 218.445 138.981 218.673L138.991 218.475C139.085 218.268 139.077 218.262 138.967 218.456C139.101 218.283 139.093 218.279 138.944 218.446C138.862 218.525 138.777 218.601 138.69 218.674C138.522 218.809 138.514 218.817 138.666 218.698C138.569 218.77 138.471 218.841 138.372 218.91C137.974 219.186 137.559 219.435 137.129 219.657C136.914 219.768 136.696 219.873 136.473 219.968C136.836 219.813 136.16 220.078 136.094 220.1C135.637 220.257 135.169 220.385 134.695 220.482C134.619 220.497 133.885 220.609 134.319 220.556C134.078 220.586 133.837 220.604 133.596 220.618C132.578 220.68 131.594 221.472 131.643 222.571C131.688 223.576 132.504 224.589 133.596 224.524C135.445 224.412 137.189 223.959 138.856 223.15C139.616 222.782 140.313 222.323 140.98 221.807C141.797 221.176 142.574 220.408 142.796 219.353C143.289 217.023 141.554 215.214 139.474 214.548C138.607 214.271 137.678 214.169 136.776 214.08C136.364 214.039 135.952 214.01 135.54 213.978C135.35 213.963 135.16 213.948 134.971 213.931C134.844 213.919 134.719 213.906 134.593 213.894C134.445 213.88 134.339 213.865 134.549 213.894C134.084 213.831 133.621 213.736 133.173 213.6C133.083 213.573 132.994 213.542 132.905 213.514C132.748 213.464 132.68 213.424 132.871 213.513C132.7 213.433 132.532 213.346 132.372 213.246C132.32 213.214 132.05 213.009 132.239 213.166C132.419 213.314 132.165 213.085 132.136 213.056C132.081 213 132.026 212.942 131.976 212.881C132.079 213.006 132.14 213.058 132.018 212.889C132.053 212.937 132.079 213.187 132.064 212.993C132.051 212.829 132.06 213.214 132.037 212.867C132.036 212.857 132.042 212.536 132.03 212.741C132.018 212.937 132.094 212.431 132.095 212.428C132.318 211.434 131.793 210.268 130.731 210.027C129.74 209.801 128.568 210.324 128.329 211.39Z" fill="black"/>
<path d="M878.022 102.829H361.888V482.933H878.022V102.829Z" fill="#82B536"/>
<path d="M877.696 78.7473H367.42C360.77 78.7473 355.379 84.1382 355.379 90.7882V90.7883C355.379 97.4383 360.77 102.829 367.42 102.829H877.696C884.346 102.829 889.737 97.4383 889.737 90.7882C889.737 84.1382 884.346 78.7473 877.696 78.7473Z" fill="#6966ED"/>
<path d="M877.696 482.933H367.42C360.77 482.933 355.379 488.324 355.379 494.974V494.974C355.379 501.624 360.77 507.015 367.42 507.015H877.696C884.346 507.015 889.737 501.624 889.737 494.974C889.737 488.324 884.346 482.933 877.696 482.933Z" fill="#6966ED"/>
<path d="M472.135 275.81C476.015 269.513 479.896 263.216 483.776 256.919C489.967 246.875 496.157 236.83 502.347 226.786C503.775 224.469 505.203 222.152 506.63 219.836L503.323 221.182C508.229 222.866 513.135 224.55 518.041 226.234C525.866 228.92 533.692 231.607 541.518 234.293C543.322 234.913 545.126 235.532 546.931 236.151C548.253 236.605 549.491 235.815 550.238 234.805C555.91 227.145 561.582 219.484 567.254 211.823C576.228 199.702 585.203 187.58 594.178 175.459C596.237 172.678 598.296 169.897 600.355 167.116C599.019 167.466 597.683 167.816 596.347 168.166C601.248 170.507 606.149 172.848 611.05 175.189C618.874 178.925 626.697 182.662 634.521 186.399C636.332 187.264 638.144 188.129 639.955 188.994C641.083 189.533 642.598 189.553 643.504 188.536C645.437 186.367 647.369 184.199 649.302 182.03C653.972 176.788 658.643 171.547 663.314 166.305C668.941 159.99 674.568 153.675 680.195 147.36C685.086 141.872 689.977 136.384 694.867 130.895C697.236 128.237 699.663 125.621 701.978 122.916C702.012 122.876 702.047 122.838 702.082 122.799C703.134 121.618 703.246 119.821 702.082 118.657C701.011 117.586 698.996 117.471 697.94 118.657C696.007 120.825 694.075 122.994 692.142 125.163C687.472 130.404 682.801 135.646 678.13 140.887C672.503 147.202 666.876 153.517 661.249 159.832C656.358 165.321 651.468 170.809 646.577 176.297C644.972 178.098 643.367 179.899 641.763 181.7C641.007 182.548 640.15 183.368 639.467 184.277C639.436 184.318 639.397 184.355 639.362 184.394C640.545 184.241 641.728 184.089 642.912 183.936C638.01 181.595 633.109 179.254 628.208 176.913C620.385 173.177 612.561 169.44 604.738 165.704C602.927 164.839 601.115 163.973 599.304 163.108C597.754 162.368 596.307 162.795 595.296 164.159C589.625 171.82 583.953 179.481 578.281 187.141C569.306 199.263 560.332 211.384 551.357 223.506C549.298 226.287 547.239 229.068 545.18 231.849L548.488 230.503C543.582 228.819 538.676 227.134 533.77 225.45C525.944 222.764 518.118 220.077 510.293 217.391C508.489 216.772 506.684 216.152 504.88 215.533C503.642 215.108 502.224 215.822 501.572 216.879C497.692 223.176 493.811 229.472 489.931 235.769C483.74 245.814 477.55 255.858 471.36 265.903C469.932 268.22 468.504 270.536 467.077 272.853C465.093 276.071 470.158 279.017 472.135 275.81Z" fill="#6966ED"/>
<path d="M679.509 207.618H641.108V425.006H679.509V207.618Z" fill="white"/>
<path d="M516.793 284.42H478.392V425.006H516.793V284.42Z" fill="white"/>
<path d="M598.151 245.368H559.75V425.006H598.151V245.368Z" fill="white"/>
<path d="M497.918 284.42H459.517V425.006H497.918V284.42Z" fill="#F953B2"/>
<path d="M579.276 245.368H540.875V425.006H579.276V245.368Z" fill="#F953B2"/>
<path d="M660.634 207.618H622.233V425.006H660.634V207.618Z" fill="#F953B2"/>
<path d="M760.866 151.644H722.466V425.006H760.866V151.644Z" fill="white"/>
<path d="M741.991 151.644H703.591V425.006H741.991V151.644Z" fill="#F953B2"/>
<path d="M359.916 404.965C367.238 393.707 374.556 382.447 381.873 371.186C390.904 357.289 399.932 343.391 408.961 329.492C418.572 314.698 428.182 299.903 437.792 285.109C446.955 271.003 456.118 256.898 465.283 242.793C472.87 231.117 480.458 219.441 488.048 207.768C488.819 206.583 489.589 205.399 490.359 204.215C491.222 202.889 490.627 200.979 489.308 200.208C487.885 199.375 486.166 199.929 485.301 201.258C477.979 212.516 470.661 223.777 463.343 235.038C454.313 248.935 445.284 262.833 436.255 276.732C426.645 291.526 417.035 306.32 407.425 321.115C398.261 335.22 389.098 349.326 379.933 363.431C372.346 375.107 364.759 386.783 357.168 398.456C356.398 399.64 355.628 400.825 354.858 402.009C353.995 403.335 354.589 405.245 355.908 406.016C357.332 406.849 359.051 406.295 359.916 404.965Z" fill="white"/>
<path d="M327.2 421.894C319.214 422.011 311.228 422.127 303.242 422.244C302.118 422.26 300.994 422.277 299.87 422.293C296.104 422.348 296.093 428.206 299.87 428.151C307.856 428.034 315.841 427.918 323.827 427.801C324.951 427.785 326.076 427.768 327.2 427.752C330.966 427.697 330.977 421.839 327.2 421.894Z" fill="black"/>
<path d="M328.026 435.111C320.04 435.228 312.054 435.344 304.069 435.461C302.944 435.477 301.82 435.494 300.696 435.51C296.93 435.565 296.919 441.423 300.696 441.368C308.682 441.251 316.668 441.135 324.653 441.018C325.778 441.002 326.902 440.985 328.026 440.969C331.792 440.914 331.803 435.056 328.026 435.111Z" fill="black"/>
<path d="M328.439 447.915C320.453 448.032 312.467 448.149 304.481 448.265C303.357 448.281 302.233 448.298 301.109 448.314C297.343 448.369 297.332 454.227 301.109 454.172C309.095 454.056 317.08 453.939 325.066 453.822C326.19 453.806 327.315 453.79 328.439 453.773C332.205 453.718 332.216 447.86 328.439 447.915Z" fill="black"/>
<path d="M375.228 337.93C382.235 341.708 389.242 345.486 396.25 349.265C397.262 349.81 398.274 350.356 399.286 350.902C402.604 352.691 405.566 347.635 402.243 345.844C395.235 342.065 388.228 338.287 381.22 334.509C380.208 333.963 379.196 333.417 378.184 332.872C374.866 331.083 371.905 336.138 375.228 337.93Z" fill="black"/>
<path d="M368.393 349.273C375.4 353.051 382.408 356.829 389.415 360.607C390.427 361.153 391.439 361.699 392.451 362.245C395.769 364.034 398.731 358.978 395.408 357.187C388.4 353.408 381.393 349.63 374.385 345.852C373.373 345.306 372.361 344.76 371.349 344.215C368.031 342.425 365.07 347.481 368.393 349.273Z" fill="black"/>
<path d="M362.115 360.439C369.122 364.218 376.129 367.996 383.137 371.774C384.149 372.32 385.161 372.866 386.173 373.411C389.491 375.2 392.453 370.145 389.13 368.353C382.122 364.575 375.115 360.797 368.107 357.018C367.095 356.473 366.083 355.927 365.071 355.381C361.753 353.592 358.792 358.648 362.115 360.439Z" fill="black"/>
<path d="M134.453 254.874C134.453 254.874 124.856 257.444 115.631 254.677C120.705 260.212 130.422 263.666 133.404 263.092C128.085 256.06 134.364 255.071 134.453 254.874Z" fill="black"/>
<path d="M133.674 252.05C133.158 252.187 132.632 252.293 132.107 252.393C131.529 252.504 130.948 252.596 130.366 252.686C129.656 252.796 130.81 252.64 130.369 252.687C130.172 252.709 129.975 252.736 129.777 252.759C129.352 252.807 128.927 252.849 128.501 252.884C124.254 253.239 120.373 253.013 116.41 251.853C113.512 251.004 111.625 254.667 113.56 256.748C116.436 259.841 120.188 262.155 124.052 263.802C127.168 265.13 130.74 266.513 134.183 265.916C135.926 265.615 137.002 263.051 135.933 261.614C135.396 260.891 134.935 260.149 134.502 259.361C134.344 259.075 134.415 259.17 134.507 259.414C134.456 259.28 134.403 259.146 134.359 259.01C134.302 258.837 134.163 257.994 134.192 258.482C134.223 259 134.212 258.218 134.204 258.073C134.181 257.66 134.218 258.387 134.153 258.429C134.183 258.41 134.217 258.159 134.237 258.107C134.347 257.83 133.896 258.673 134.082 258.454C134.136 258.39 134.193 258.269 134.227 258.187C134.443 257.66 133.841 258.532 134.161 258.275C134.275 258.184 134.704 257.83 134.237 258.169C133.756 258.517 134.255 258.169 134.379 258.094C134.507 258.016 134.642 257.953 134.772 257.88C135.313 257.575 134.21 258.079 134.519 257.977C135.201 257.752 136.06 257.515 136.524 256.945C137.523 255.72 137.723 254.001 136.524 252.803C135.493 251.772 133.387 251.571 132.382 252.803C132.695 252.419 132.901 252.393 133.259 252.236C133.89 251.96 133.63 252.096 133.506 252.129C133.417 252.152 133.326 252.191 133.239 252.223C132.772 252.395 132.305 252.582 131.859 252.801C130.81 253.315 129.915 254.114 129.267 255.083C127.216 258.147 128.931 261.954 130.876 264.57C131.459 263.136 132.042 261.702 132.626 260.268C132.219 260.338 133.416 260.284 132.968 260.216C132.87 260.201 132.755 260.225 132.657 260.225C132.396 260.226 132.139 260.193 131.879 260.183C131.378 260.163 132.466 260.293 132.101 260.216C131.961 260.186 131.817 260.17 131.676 260.145C131.339 260.083 131.005 260.009 130.672 259.928C129.949 259.752 129.237 259.538 128.533 259.299C128.128 259.161 127.726 259.014 127.326 258.86C127.138 258.788 126.951 258.712 126.764 258.638C126.004 258.335 127.309 258.888 126.551 258.546C124.881 257.794 123.258 256.949 121.719 255.951C121.311 255.686 120.908 255.411 120.513 255.126C120.334 254.997 120.156 254.867 119.981 254.733C120.458 255.097 119.786 254.568 119.75 254.539C119.025 253.939 118.343 253.295 117.703 252.606C116.753 254.238 115.803 255.869 114.853 257.501C119.254 258.789 123.942 259.122 128.502 258.742C130.747 258.555 133.048 258.278 135.232 257.698C136.713 257.305 137.762 255.591 137.278 254.096C136.785 252.574 135.261 251.628 133.674 252.05Z" fill="black"/>
<path d="M79.8632 247.459C79.4283 252.666 74.3566 251.447 71.9064 249.109C64.4197 241.965 46.7414 197.654 63.8976 194.338C65.7771 193.974 67.9423 194.358 69.1546 195.84C70.3669 197.321 70.0322 199.989 68.2482 200.684C65.8358 196.737 65.6008 191.547 67.6467 187.398C70.8041 180.994 82.65 176.42 88.8506 173.276C97.4473 168.917 106.971 166.393 116.579 165.74C120.064 165.503 123.996 165.67 126.406 168.197C126.859 168.672 127.258 169.353 126.997 169.955C126.858 170.273 126.56 170.494 126.25 170.649C124.143 171.702 121.433 170.035 120.745 167.783C120.056 165.531 120.915 163.07 122.225 161.113C124.919 157.089 129.617 154.482 134.457 154.326C139.297 154.17 144.153 156.468 147.101 160.31C149.052 162.852 150.162 165.959 150.737 169.111C151.651 174.133 152.071 178.906 149.994 183.646C147.854 188.531 144.262 192.765 139.861 195.764C133.442 200.139 125.445 201.946 117.696 201.407C114.53 201.187 111.376 200.593 108.205 200.747C105.963 200.856 103.566 201.371 101.673 202.635C99.7634 203.911 99.7831 205.399 99.4872 207.565C98.8322 212.359 99.1569 217.285 100.436 221.952C101.319 212.379 89.1413 201.838 81.905 212.04C80.6193 213.853 80.0758 216.099 79.9063 218.314C79.6399 221.796 80.2659 225.399 82.0441 228.404C83.8223 231.409 86.8159 233.758 90.2482 234.401C89.3252 237.44 88.4021 240.478 87.4791 243.517C86.916 245.37 86.2639 247.354 84.7042 248.503C83.1445 249.652 80.4041 249.319 79.8632 247.459Z" fill="black"/>
<path d="M76.9343 247.459C76.9519 247.294 76.7616 248.01 76.7217 248.215C76.8014 247.805 76.7821 248.062 76.6807 248.216C76.9761 247.768 76.8323 248.065 76.7099 248.172C76.2834 248.545 76.7359 248.14 76.7952 248.12C76.2831 248.293 76.8832 248.181 76.9225 248.099C76.9042 248.137 76.5798 248.201 76.5117 248.213C77.4952 248.036 76.4078 248.266 76.4169 248.187C76.4179 248.178 75.896 248.171 76.351 248.203C76.7629 248.232 76.2717 248.19 76.1646 248.162C75.8497 248.082 75.5481 247.993 75.2417 247.884C74.8337 247.739 75.6431 248.101 75.2656 247.884C75.1234 247.802 74.9732 247.734 74.8306 247.651C74.666 247.557 73.8579 246.941 74.327 247.35C73.7272 246.827 73.2299 246.237 72.7263 245.625C73.3218 246.349 72.6147 245.456 72.4158 245.171C72.1393 244.775 71.8728 244.371 71.6132 243.964C70.3867 242.037 69.3086 240.015 68.3032 237.966C67.6985 236.733 67.1231 235.486 66.5723 234.228C66.4371 233.919 66.3041 233.61 66.1711 233.3C66.1278 233.199 65.9559 232.782 66.168 233.293C66.1021 233.134 66.0359 232.975 65.9704 232.817C65.705 232.173 65.4459 231.527 65.1929 230.878C63.0499 225.384 61.2786 219.695 60.2458 213.882C60.1283 213.221 60.0244 212.558 59.9266 211.894C59.8758 211.549 59.943 212.027 59.9473 212.06C59.9262 211.898 59.905 211.736 59.886 211.574C59.8391 211.174 59.7938 210.774 59.7556 210.373C59.6356 209.115 59.5662 207.851 59.5725 206.587C59.5753 206.014 59.5935 205.441 59.6311 204.869C59.6492 204.593 59.6716 204.318 59.6991 204.043C59.7092 203.942 59.7239 203.841 59.7313 203.739C59.7821 203.043 59.6044 204.401 59.7317 203.725C59.9241 202.704 60.1449 201.727 60.4672 200.738C60.7285 199.937 60.3533 200.89 60.5308 200.554C60.6616 200.307 60.7724 200.049 60.9094 199.804C61.0298 199.589 61.166 199.386 61.2941 199.175C61.7108 198.491 61.1039 199.303 61.3635 199.06C61.7003 198.744 62.0488 198.389 62.3688 198.055C62.6766 197.734 62.2029 198.193 62.1514 198.223C62.2885 198.143 62.4095 198.035 62.5475 197.955C62.7579 197.834 62.9688 197.717 63.1814 197.599C63.895 197.205 62.9511 197.627 63.3215 197.533C63.6 197.463 63.8695 197.351 64.1493 197.279C64.7763 197.12 65.4092 197.076 65.9974 197.221C66.3333 197.304 66.5021 197.357 66.7157 197.526C66.9527 197.713 66.8985 197.566 66.9507 197.903C66.8759 197.421 66.9356 197.891 66.9438 197.985C66.9286 198.309 66.9262 198.369 66.9368 198.165C66.9559 197.964 66.9311 198.019 66.8624 198.327C66.9128 198.301 66.9982 198.035 67.0724 197.985C66.5648 198.328 67.4103 197.859 66.7695 198.155C68.1053 198.506 69.441 198.856 70.7768 199.206C69.2024 196.538 68.7655 193.379 69.619 190.39C69.7925 189.783 69.9999 189.198 70.2962 188.639C70.4443 188.36 70.607 188.09 70.7804 187.826C70.8568 187.709 71.3418 187.067 71.0719 187.401C71.9018 186.375 72.8908 185.463 73.9256 184.648C78.0759 181.378 83.8475 178.949 88.8634 176.527C91.9879 175.018 95.075 173.539 98.3609 172.403C101.993 171.148 105.727 170.186 109.512 169.519C112.955 168.913 116.576 168.401 120.078 168.636C121.272 168.716 122.687 169.024 123.702 169.714C123.815 169.792 124.154 170.229 124.335 170.268C124.302 170.261 124.811 168.022 124.827 168.083C124.813 168.028 125.056 168.039 125.056 168.037C125.065 168.074 124.554 167.99 124.834 168.057C125.11 168.123 124.614 167.996 124.617 167.997C124.317 167.895 124.364 167.926 124.205 167.798C124.292 167.868 123.671 167.249 123.834 167.462C123.755 167.359 123.483 166.752 123.569 167.004C123.358 166.382 123.402 165.742 123.562 165.116C123.938 163.642 124.811 162.342 125.846 161.249C127.856 159.128 130.659 157.649 133.504 157.318C136.575 156.962 139.594 157.828 142.162 159.582C144.792 161.378 146.411 164.239 147.289 167.24C148.303 170.709 148.858 174.627 148.458 178.234C148.081 181.637 146.388 184.813 144.359 187.519C140.26 192.986 134.072 196.417 127.466 197.843C123.945 198.603 120.329 198.719 116.746 198.402C112.684 198.043 108.67 197.386 104.624 198.288C101.151 199.062 97.6691 201.099 96.9364 204.829C96.1931 208.614 96.0247 212.61 96.4517 216.439C96.6888 218.565 97.0591 220.663 97.6109 222.73C97.9835 224.126 99.413 225.041 100.825 224.828C102.33 224.602 103.248 223.444 103.364 221.952C103.969 214.212 97.8203 205.777 89.9012 204.992C85.5424 204.56 81.7836 207.116 79.3758 210.562C76.4158 214.797 76.3205 221.147 77.7965 225.938C79.4715 231.375 83.7656 236.05 89.4693 237.226L87.4237 233.623C86.3952 237.008 85.4515 240.435 84.323 243.788C84.0336 244.648 83.488 245.809 82.9833 246.135C82.171 246.66 83.4391 245.815 82.587 246.262C82.9191 246.088 82.3019 246.186 82.6801 246.286L82.4001 246.223C82.0631 246.119 82.04 246.109 82.3308 246.193C82.3875 246.348 82.6156 246.483 82.6874 246.681C82.1476 245.195 80.6968 244.192 79.0845 244.635C77.6508 245.029 76.4961 246.744 77.0389 248.238C77.8923 250.587 79.8413 251.958 82.3356 252.088C84.7691 252.215 86.8591 250.889 88.2454 248.978C89.5317 247.206 90.0906 244.995 90.7185 242.928C91.5031 240.346 92.2877 237.763 93.0723 235.18C93.5103 233.738 92.5498 231.891 91.0267 231.577C87.7305 230.898 85.1086 228.578 83.8069 225.441C82.5116 222.318 82.2423 218.101 83.6031 214.952C83.9194 214.22 84.3887 213.521 84.8952 212.953C85.444 212.339 85.9398 211.882 86.3886 211.614C86.6827 211.438 86.9745 211.26 87.2866 211.117C86.8421 211.321 87.6277 211.011 87.7638 210.972C87.938 210.923 88.749 210.771 88.1765 210.843C88.5274 210.799 88.8858 210.79 89.2391 210.801C89.4162 210.806 89.5927 210.82 89.7692 210.835C89.721 210.831 89.3072 210.758 89.6501 210.824C89.9583 210.882 90.2635 210.951 90.5647 211.039C90.7448 211.092 91.4029 211.33 91.2404 211.262C91.1123 211.209 91.8098 211.55 92.013 211.665C93.2507 212.365 93.8195 212.862 94.871 214.074C95.0015 214.225 95.1324 214.378 95.2544 214.535C95.0669 214.293 95.2743 214.572 95.3389 214.664C95.5705 214.994 95.7908 215.333 95.9964 215.68C96.2023 216.027 96.3946 216.384 96.5718 216.747C96.6598 216.927 96.7487 217.111 96.8263 217.297C96.7062 217.01 96.8287 217.326 96.8687 217.44C97.4946 219.227 97.6556 220.046 97.5067 221.952L103.26 221.173C102.09 216.79 101.816 212.299 102.386 207.798C102.497 206.918 102.486 206.73 102.716 205.817C102.83 205.363 102.582 205.859 102.853 205.478C103.031 205.227 102.977 205.295 103.321 205.057C104.715 204.091 106.541 203.759 108.205 203.676C112.796 203.448 117.333 204.587 121.937 204.396C126.208 204.22 130.506 203.416 134.486 201.838C142.248 198.761 149.003 193.031 152.442 185.307C154.364 180.987 154.708 176.48 154.103 171.828C153.536 167.458 152.587 163.005 150 159.337C145.2 152.531 136.12 149.498 128.304 152.695C124.482 154.258 121.004 157.013 119.051 160.714C116.891 164.808 116.965 170.119 121.212 172.82C122.94 173.919 125.179 174.228 127.087 173.453C129.909 172.306 130.836 169.194 128.966 166.73C126.458 163.423 121.94 162.648 118.041 162.742C109.11 162.956 100.08 165.186 91.8828 168.662C88.6711 170.024 85.5611 171.631 82.4107 173.13C79.3348 174.593 76.2647 176.1 73.3844 177.926C70.503 179.753 67.7246 181.899 65.7982 184.754C63.5159 188.138 62.9692 192.518 63.6114 196.471C63.9373 198.478 64.6874 200.415 65.719 202.163C66.5789 203.62 68.2818 203.881 69.7263 203.213C72.1962 202.072 73.2122 199.02 72.6271 196.488C71.9932 193.744 69.5512 191.879 66.8457 191.439C63.5763 190.906 60.1263 192.018 57.7579 194.335C53.7521 198.254 53.4104 204.66 53.8551 209.899C54.4374 216.759 56.2694 223.492 58.6082 229.947C60.7053 235.734 63.1675 241.546 66.4588 246.768C67.9031 249.059 69.5591 251.428 71.9807 252.771C73.9 253.836 76.3293 254.455 78.4796 253.748C81.3275 252.81 82.4947 250.25 82.7919 247.459C82.9597 245.884 81.3257 244.531 79.863 244.531C78.1399 244.531 77.1026 245.88 76.9343 247.459Z" fill="black"/>
<path d="M181.763 362.204C192.269 384.65 198.455 408.795 209.532 431.013C220.577 453.167 230.445 475.899 239.08 499.098C247.106 520.661 255.365 542.021 264.371 563.201C273.349 584.315 282.46 605.394 290.177 627.011C306.123 671.677 315.225 719.204 305.971 766.396C303.705 777.954 300.741 789.815 295.601 800.459C290.918 810.158 284.885 819.156 280.681 829.092C276.504 838.964 274.805 849.713 273.969 860.349C273.533 865.896 273.411 871.472 273.671 877.031C273.933 882.631 274.966 888.042 275.622 893.589C276.343 899.693 274.233 904.635 268.338 906.989C262.877 909.171 256.801 907.904 251.385 906.22C240.631 902.874 230.347 897.69 221.198 891.128C216.52 887.773 212.22 883.947 208.262 879.77C205.143 876.479 201.345 872.287 200.532 867.627C200.045 864.833 200.759 861.549 201.439 858.842C201.607 858.175 202.033 857.383 202.071 856.706C202.139 855.492 204.194 856.003 200.478 855.844C197.286 855.706 199.356 856.401 197.905 858.536C197.111 859.704 195.686 860.509 194.318 860.711C189.074 861.489 184.819 855.491 182.817 851.438C180.847 847.45 180.092 843.026 180.273 838.601C180.66 829.173 184.871 820.168 189.255 811.992C193.632 803.829 198.804 796.097 202.948 787.81C207.87 777.966 211.269 767.402 213.231 756.579C217.257 734.373 215.747 711.405 210.44 689.546C207.582 677.774 203.722 666.28 199.843 654.815C196.067 643.656 192.961 632.182 188.756 621.184C184.712 610.606 179.514 600.537 174.381 590.46C171.703 585.202 169.043 579.932 166.584 574.567C165.451 572.095 163.836 569.394 163.278 566.725C163.043 565.601 162.902 563.325 164.73 563.974C166.382 564.562 166.429 567.461 166.276 568.795C165.978 571.403 164.79 573.889 164.017 576.38C163.144 579.195 162.471 582.073 161.959 584.976C160.984 590.502 160.537 596.111 160.418 601.718C160.173 613.25 161.247 624.753 161.569 636.273C162.277 661.608 161.143 687.105 160.849 712.448L159.942 790.495C159.797 802.963 159.848 815.449 159.282 827.907C158.738 839.877 157.797 851.829 157.536 863.811C157.405 869.831 157.44 875.859 157.813 881.871C158.169 887.617 159.209 893.217 159.822 898.922C160.376 904.077 159.786 909.72 155.442 913.135C151.554 916.192 146.184 916.997 141.415 917.588C136.055 918.251 129.825 919.243 124.868 916.508C120.755 914.237 118.187 907.856 123.687 905.477C122.253 904.893 120.819 904.31 119.385 903.726C122.32 914.14 109.122 918.142 101.38 918.314C92.1219 918.519 82.6684 916.655 73.5076 915.504C64.0593 914.317 53.5339 913.1 45.0058 908.556C41.9262 906.915 38.7349 904.575 37.9335 900.972C36.957 896.583 40.2071 892.69 42.9735 889.703C48.9189 883.283 54.3957 877.545 57.8728 869.338C61.4434 860.91 62.8867 852.024 64.0015 843C66.6277 821.74 68.9261 800.328 68.3867 778.875C67.2786 734.805 66.682 690.82 67.2411 646.733C67.7968 602.918 69.403 559.182 71.3478 515.411C73.2578 472.423 74.2044 429.403 85.6504 387.632C86.8284 383.333 92.983 367.542 83.8181 367.294C80.3423 367.199 77.1443 370.91 75.4114 373.504C73.5273 376.324 72.6503 379.636 72.4851 382.999C72.122 390.388 74.7278 398.112 76.1637 405.302C77.7393 413.193 79.7576 421.014 82.5202 428.577C87.7978 443.025 95.8632 456.903 108.72 465.832C117.829 472.158 128.855 474.903 139.875 474.425C163.131 473.417 185.049 460.976 203.609 447.851C218.099 437.604 231.721 425.96 244.16 413.299C246.989 410.419 249.821 407.546 252.676 404.691C256.099 401.268 259.464 397.773 262.951 394.416C264.39 393.031 265.829 391.774 268.048 392.023C272.505 392.521 273.259 397.163 271.421 400.41C269.554 403.707 267.441 406.886 265.458 410.114C264.286 412.02 265.804 414.521 267.987 414.521C286.187 414.521 304.387 414.521 322.587 414.521C323.798 414.521 325.075 414.4 326.281 414.521C330.925 414.986 331.94 421.443 326.743 421.829C322.98 422.108 322.971 427.41 326.743 427.686C331.435 428.031 331.447 434.649 326.743 434.994C322.979 435.27 322.972 440.575 326.743 440.852C331.435 441.196 331.447 447.814 326.743 448.159C322.978 448.436 322.973 453.737 326.743 454.017C332.128 454.417 330.78 461.092 325.952 461.325C323.798 461.429 321.613 461.325 319.457 461.325C312.343 461.325 305.229 461.325 298.115 461.325C292.358 461.325 286.558 460.956 281.067 463.059C273.323 466.024 269.142 472.338 264.209 478.505C243.928 503.864 218.396 527.152 187.94 539.397C169.593 546.774 149.548 549.714 129.957 546.384C110.733 543.115 92.0773 534.736 77.2231 522.045C51.4317 500.01 37.0734 467.307 31.1242 434.471C24.9627 400.462 27.3291 364.176 39.3964 331.691C44.9649 316.701 52.8664 302.342 63.4569 290.301C66.1033 287.292 68.9115 284.425 71.8777 281.73C75.6247 278.327 79.4024 275.496 81.7944 270.877C84.4941 265.665 85.0409 260.218 84.4964 254.452C83.8185 247.273 83.1833 240.088 82.4626 232.913C81.2675 221.016 76.8387 206.232 84.7245 195.686C91.9346 186.045 105.89 182.768 117.293 184.421C127.066 185.837 136.64 190.791 142.093 199.204C146.468 205.952 148.788 214.081 149.222 222.079C149.634 229.674 148.496 237.846 144.123 244.255C142.183 247.098 139.57 249.446 136.464 250.949C133.592 252.339 130.188 252.193 129.585 255.93C129.074 259.098 130.25 262.77 131.08 265.79C131.915 268.827 132.754 272.253 134.319 275.016C136.62 279.077 141.359 280.268 145.664 280.703C152.551 281.399 158.916 282.214 165.156 285.468C176.771 291.524 185.37 301.877 193.093 312.187C200.569 322.168 207.562 332.506 215.365 342.24C228.971 359.213 249.084 380.702 272.884 370.613C283.542 366.095 292.14 357.575 300.218 349.53C309.666 340.119 319.269 330.855 329.725 322.557C340.461 314.038 352.063 306.098 365.281 302.081C371.496 300.192 377.876 298.921 384.181 297.382C388.481 296.332 400.067 290.956 400.407 299.353C400.553 302.96 397.09 304.482 394.491 306.039C392.198 307.414 389.905 308.788 387.611 310.162C385.801 311.247 385.617 314.182 387.611 315.22C396.71 319.956 405.809 324.692 414.908 329.428C418.087 331.083 421.465 332.564 424.515 334.454C430.633 338.247 428.344 344.04 425.723 348.965C420.153 359.428 414.584 369.892 409.015 380.355C406.432 385.207 402.733 389.623 396.518 386.867C392.974 385.295 389.572 383.251 386.135 381.462C379.696 378.111 373.257 374.759 366.817 371.408C364.921 370.421 362.974 369.495 361.115 368.439C360.426 368.048 359.792 367.706 359.272 367.064C356.866 364.098 359.923 359.9 363.507 361.439C366.882 362.89 369.763 358.419 366.463 356.381C362.554 353.968 365.173 347.861 369.585 349.761C372.961 351.215 375.84 346.74 372.541 344.703C368.632 342.289 371.251 336.183 375.663 338.083C379.039 339.537 381.917 335.064 378.62 333.025C374.443 330.441 377.453 324.955 381.944 326.51C382.597 326.736 383.238 327.184 383.848 327.501C387.474 329.388 391.099 331.275 394.725 333.162C401.139 336.501 407.554 339.84 413.968 343.178C417.308 344.917 420.274 339.863 416.925 338.12C408.165 333.561 399.406 329.002 390.647 324.443C387.042 322.567 383.205 319.847 378.961 320.416C369.694 321.66 368.139 333.429 375.663 338.083C376.649 336.397 377.634 334.711 378.62 333.025C373.86 330.975 368.37 332.064 365.734 336.875C363.154 341.585 365.221 347.067 369.585 349.761C370.57 348.075 371.556 346.389 372.541 344.703C367.782 342.653 362.292 343.742 359.656 348.554C357.076 353.263 359.143 358.745 363.507 361.439C364.492 359.753 365.478 358.067 366.463 356.381C361.835 354.393 356.489 355.305 353.774 359.916C351.236 364.227 352.716 369.923 356.804 372.713C360.702 375.374 365.359 377.246 369.534 379.419C376.102 382.837 382.669 386.255 389.237 389.674C394.705 392.52 400.062 395.16 406.264 392.176C411.441 389.685 413.531 384.329 416.07 379.56C419.603 372.921 423.137 366.282 426.671 359.643C428.844 355.559 431.308 351.522 433.193 347.292C436.62 339.6 432.608 332.044 425.603 328.398C413.925 322.32 402.246 316.241 390.568 310.162V315.22C395.475 312.28 402.963 309.403 405.339 303.823C407.3 299.216 405.883 293.77 401.807 290.793C396.656 287.031 391.258 289.508 385.759 290.945C372.191 294.491 358.583 296.782 346.314 303.991C334.41 310.986 323.511 319.642 313.278 328.878C303.205 337.97 294.159 348.258 283.689 356.897C274.576 364.416 263.485 370.228 251.566 366.001C239.028 361.555 228.833 349.547 220.657 339.522C212.063 328.984 204.569 317.611 196.321 306.809C188.497 296.56 179.722 286.463 168.113 280.41C162.303 277.38 156.074 275.741 149.566 275.153C146.628 274.887 143.005 275.126 140.535 273.248C139.3 272.309 138.972 271.189 138.461 269.761C137.187 266.198 135.926 262.373 135.462 258.602C135.386 257.989 135.465 257.314 135.357 256.717C135.357 256.714 134.623 257.869 134.605 257.859C134.734 257.929 135.803 257.499 136.039 257.418C137.967 256.757 139.851 255.893 141.563 254.787C148.144 250.536 152.169 243.442 153.922 235.934C157.54 220.439 153.555 200.785 141.707 189.582C125.481 174.24 94.0791 173.54 80.0019 192.292C71.8914 203.096 74.6677 217.023 76.2111 229.393C77.1054 236.561 77.6317 243.786 78.3107 250.978C78.9647 257.903 79.4787 264.246 75.3284 270.274C72.5251 274.345 67.9858 277.206 64.4759 280.68C61.6157 283.512 58.9172 286.507 56.3816 289.632C51.0261 296.233 46.3425 303.349 42.352 310.853C25.4555 342.628 19.8196 380.193 22.8078 415.811C25.7693 451.111 37.3656 486.987 60.8818 514.057C87.3693 544.548 129.476 559.509 169.184 551.239C205.408 543.696 236.398 519.344 260.39 492.126C264.613 487.336 268.649 482.386 272.516 477.305C277.734 470.446 283.988 467.183 292.599 467.183H313.188C318.008 467.183 323.485 467.923 328.262 467.008C333.054 466.09 336.6 461.71 336.198 456.806C335.782 451.723 331.558 448.517 326.743 448.159V454.017C338.971 453.12 338.974 435.891 326.743 434.994V440.852C338.971 439.955 338.974 422.726 326.743 421.829V427.686C336.715 426.947 340.021 413.253 330.074 409.37C326.892 408.128 322.812 408.663 319.471 408.663C306.121 408.663 292.771 408.663 279.422 408.663C275.61 408.663 271.798 408.663 267.986 408.663C268.829 410.132 269.672 411.602 270.515 413.071C272.543 409.771 274.713 406.523 276.612 403.149C279.898 397.314 278.174 389.701 271.665 387.011C266.427 384.845 261.923 387.16 258.252 390.831C254.687 394.396 251.123 397.96 247.558 401.525C239.724 409.359 231.996 417.243 223.654 424.555C193.552 450.942 134.852 493.264 100.652 450.244C90.5651 437.556 85.5053 421.382 82.2202 405.738C81.4637 402.136 80.8399 398.512 80.0323 394.92C79.1565 391.025 78.1108 387.028 78.3429 382.999C78.4585 380.993 78.9254 379.045 79.9417 377.296C80.3313 376.626 80.7781 376.023 81.2895 375.434C81.3462 375.368 83.4952 373.314 82.9152 373.253C83.3601 373.3 79.6023 387.515 79.2845 388.687C68.0095 430.234 67.3706 473.399 65.4585 516.119C63.4663 560.628 61.8841 605.105 61.3472 649.66C61.0783 671.974 60.937 694.29 61.1257 716.604C61.3112 738.538 62.3554 760.454 62.5904 782.38C62.82 803.806 60.4946 825.251 57.7123 846.469C56.487 855.813 54.2162 865.294 49.2598 873.412C44.9124 880.532 37.2177 885.213 33.553 892.741C24.6428 911.043 50.9009 917.811 63.3457 919.916C72.8441 921.523 82.5073 922.614 92.0835 923.659C100.295 924.555 109.164 924.685 116.581 920.498C123 916.874 127.099 909.497 125.034 902.169C124.472 900.177 122.443 899.678 120.731 900.419C116.697 902.164 114.48 906.507 114.647 910.812C114.834 915.634 118.233 919.667 122.374 921.823C127.949 924.726 134.332 924.262 140.371 923.567C145.282 923.003 150.216 922.323 154.766 920.288C166.017 915.256 166.522 904.1 164.87 893.397C162.845 880.27 163.139 866.851 163.755 853.625C164.385 840.114 165.38 826.637 165.537 813.107C165.706 798.519 165.876 783.931 166.046 769.342C166.379 740.652 166.712 711.962 167.046 683.272C167.213 668.89 167.654 654.48 167.503 640.098C167.367 627.08 165.954 614.095 166.29 601.068C166.453 594.723 167.03 588.382 168.505 582.197C169.78 576.852 173.023 571.225 172.034 565.603C171.236 561.074 167.321 557.034 162.448 558.182C157.514 559.344 156.405 564.504 157.791 568.765C161.63 580.561 168.516 591.67 174.047 602.725C180.074 614.77 184.568 626.941 188.662 639.743C196.805 665.212 206.845 690.223 209.093 717.117C211.18 742.09 207.636 767.669 195.288 789.746C185.949 806.441 171.43 825.357 174.885 845.696C176.379 854.498 182.741 865.784 192.67 866.59C197.292 866.965 201.935 864.277 203.741 859.961C204.889 857.216 204.906 851.151 200.682 851.015C194.911 850.829 194.37 863.674 194.641 867.373C195.354 877.088 205.261 885.746 212.178 891.501C221.626 899.361 232.417 905.419 243.886 909.794C254.102 913.691 266.883 917.013 276.114 909.059C280.323 905.432 281.991 900.314 281.606 894.851C281.169 888.666 279.756 882.63 279.5 876.403C278.99 863.991 280.001 851.089 283.322 839.085C286.602 827.229 293.747 816.966 299.305 806.127C305.118 794.792 308.642 782.413 311.214 769.975C316.66 743.641 316.805 716.538 312.802 689.996C305.145 639.222 282.792 592.479 263.217 545.517C253.054 521.135 244.706 496.071 234.529 471.7C223.915 446.283 210.653 422.105 201.303 396.176C196.814 383.729 192.437 371.245 186.821 359.247C185.224 355.836 180.172 358.806 181.763 362.204Z" fill="black"/>
<path d="M488.806 207.293C492.221 207.293 494.989 204.524 494.989 201.109C494.989 197.695 492.221 194.926 488.806 194.926C485.391 194.926 482.623 197.695 482.623 201.109C482.623 204.524 485.391 207.293 488.806 207.293Z" fill="white"/>
<path d="M669.746 893.626L649.476 881.923C633.021 872.423 622.884 854.866 622.884 835.865V507.014H604.009V835.944C604.009 854.945 593.872 872.503 577.417 882.003L557.285 893.626H669.746Z" fill="#82B536"/>
<path d="M953.936 218.032H843.111C831.478 218.032 822.047 227.462 822.047 239.096V320.632C822.047 332.265 831.478 341.695 843.111 341.695H953.936C965.569 341.695 975 332.265 975 320.632V239.096C975 227.462 965.569 218.032 953.936 218.032Z" fill="#6966ED"/>
<path d="M879.649 251.226H945.711C949.48 251.226 949.486 245.368 945.711 245.368H879.649C875.879 245.368 875.873 251.226 879.649 251.226Z" fill="white"/>
<path d="M845.479 271.403H933.367C937.415 271.403 941.493 271.546 945.539 271.403C945.597 271.401 945.654 271.403 945.711 271.403C949.48 271.403 949.487 265.545 945.711 265.545H857.822C853.774 265.545 849.697 265.401 845.65 265.545C845.593 265.547 845.536 265.545 845.479 265.545C841.709 265.545 841.703 271.403 845.479 271.403Z" fill="white"/>
<path d="M845.479 291.579H933.367C937.415 291.579 941.493 291.723 945.539 291.579C945.597 291.577 945.654 291.579 945.711 291.579C949.48 291.579 949.487 285.721 945.711 285.721H857.822C853.774 285.721 849.697 285.578 845.65 285.721C845.593 285.723 845.536 285.721 845.479 285.721C841.709 285.721 841.703 291.579 845.479 291.579Z" fill="white"/>
<path d="M845.479 311.756H921.955C925.724 311.756 925.73 305.898 921.955 305.898H845.479C841.709 305.898 841.703 311.756 845.479 311.756Z" fill="white"/>
<path d="M822.048 271.402H795.503C793.596 271.402 790.599 270.895 789.059 272.261C786.09 274.896 783.356 277.859 780.523 280.639C775.085 285.977 769.646 291.315 764.208 296.653C760.776 300.021 757.345 303.388 753.914 306.756C751.219 309.401 755.362 313.542 758.056 310.898C762.015 307.012 765.975 303.126 769.934 299.24C776.243 293.047 782.553 286.855 788.862 280.662C790.309 279.242 791.756 277.822 793.203 276.402C792.512 276.688 791.822 276.974 791.132 277.26H822.047C825.817 277.26 825.823 271.402 822.048 271.402Z" fill="#6966ED"/>
<path d="M405.611 148.607C405.611 140.153 410.164 132.767 416.95 128.756C413.419 126.558 409.253 125.284 404.788 125.284C392.058 125.284 381.74 135.603 381.74 148.332C381.74 161.062 392.058 171.381 404.788 171.381C409.063 171.381 413.065 170.212 416.497 168.183C409.963 164.115 405.611 156.87 405.611 148.607Z" fill="white"/>
<path d="M428.659 125.559C424.383 125.559 420.382 126.727 416.95 128.756C423.484 132.824 427.836 140.068 427.836 148.332C427.836 156.786 423.282 164.172 416.497 168.183C420.028 170.381 424.194 171.655 428.659 171.655C441.388 171.655 451.707 161.336 451.707 148.607C451.707 135.877 441.388 125.559 428.659 125.559Z" fill="#F953B2"/>
<path d="M427.836 148.332C427.836 140.069 423.484 132.824 416.95 128.756C410.164 132.767 405.611 140.153 405.611 148.607C405.611 156.871 409.963 164.115 416.497 168.183C423.282 164.172 427.836 156.786 427.836 148.332Z" fill="#6966ED"/>
<path d="M122.557 235.124C125.512 235.979 128.588 236.086 131.609 235.555C132.617 235.378 133.276 234.091 132.973 233.154C132.621 232.069 131.651 231.6 130.571 231.79C130.398 231.82 130.225 231.845 130.053 231.875C129.905 231.896 129.954 231.89 130.201 231.856C130.101 231.869 130.002 231.881 129.903 231.892C129.605 231.924 129.306 231.949 129.006 231.966C128.358 232.004 127.707 232.005 127.058 231.97C126.758 231.953 126.459 231.93 126.161 231.898C126.062 231.888 125.962 231.876 125.863 231.864C126.11 231.899 126.159 231.905 126.011 231.884C125.838 231.857 125.665 231.832 125.492 231.802C124.852 231.689 124.22 231.539 123.595 231.359C122.615 231.075 121.425 231.703 121.193 232.722C120.956 233.765 121.507 234.82 122.557 235.124Z" fill="black"/>
<path d="M315.66 297.563C324.389 285.273 328.756 269.968 327.874 254.922C326.638 255.864 325.402 256.805 324.166 257.747C332.612 260.95 341.513 264.003 350.643 262.151C358 260.659 364.301 256.04 369.531 250.848C372.552 247.849 375.296 244.586 377.996 241.298C376.364 240.868 374.732 240.437 373.1 240.006C374.093 247.11 375.199 254.604 379.244 260.717C382.926 266.281 388.741 270.509 395.582 270.698C399.353 270.801 399.35 264.944 395.582 264.84C390.623 264.703 386.255 261.111 383.705 256.807C380.442 251.3 379.62 244.677 378.749 238.449C378.453 236.332 375.163 235.562 373.854 237.156C369.509 242.449 364.995 247.935 359.343 251.892C356.694 253.747 353.865 255.25 350.751 256.105C347.089 257.11 343.243 257.092 339.524 256.396C334.775 255.507 330.227 253.806 325.724 252.098C323.991 251.441 321.912 253.141 322.016 254.922C322.845 269.054 318.797 283.068 310.602 294.607C309.686 295.897 310.373 297.865 311.653 298.614C313.122 299.473 314.741 298.856 315.66 297.563Z" fill="#F953B2"/>
<path d="M933.1 435.108C939.96 436.732 947.06 437.288 954.083 436.656C955.658 436.514 957.012 435.411 957.012 433.727C957.012 432.253 955.668 430.655 954.083 430.798C947.535 431.388 941.022 430.966 934.657 429.459C933.119 429.095 931.484 429.941 931.054 431.505C930.646 432.991 931.555 434.742 933.1 435.108Z" fill="#F953B2"/>
<path d="M937.433 489.354C943.173 494.68 948.914 500.006 954.654 505.332C955.778 506.374 957.699 506.528 958.796 505.332C959.837 504.199 959.996 502.303 958.796 501.19C953.056 495.864 947.315 490.538 941.575 485.211C940.451 484.169 938.53 484.016 937.433 485.211C936.393 486.345 936.233 488.241 937.433 489.354Z" fill="#F953B2"/>
<path d="M937.544 399.029C940.43 398.067 943.316 397.105 946.203 396.143C946.926 395.902 947.561 395.467 947.953 394.797C948.321 394.169 948.476 393.244 948.248 392.54C947.781 391.095 946.202 389.976 944.646 390.494C941.759 391.457 938.873 392.419 935.987 393.381C935.264 393.622 934.628 394.057 934.236 394.727C933.869 395.355 933.713 396.28 933.941 396.984C934.408 398.428 935.988 399.548 937.544 399.029Z" fill="#F953B2"/>
</svg>
